SplineFontDB: 1.0
FontName: DejaVuSansMono-Roman
FullName: DejaVu Sans Mono
FamilyName: DejaVu Sans Mono
Weight: Book
Copyright: Copyright (c) 2003 by Bitstream, Inc. All Rights Reserved.\nDejaVu changes are in public domain\n
Version: 1.13
ItalicAngle: 0
UnderlinePosition: -213
UnderlineWidth: 141
Ascent: 1556
Descent: 492
Order2: 1
NeedsXUIDChange: 1
FSType: 0
PfmFamily: 17
TTFWeight: 400
TTFWidth: 5
Panose: 2 11 6 9 3 8 4 2 2 4
LineGap: 410
VLineGap: 0
OS2TypoAscent: 1556
OS2TypoDescent: -492
OS2TypoLinegap: 0
OS2WinAscent: 1901
OS2WinAOffset: 0
OS2WinDescent: 483
OS2WinDOffset: 0
HheadAscent: 1901
HheadAOffset: 0
HheadDescent: -483
HheadDOffset: 0
ScriptLang: 2
 1 DFLT 1 dflt 
 1 latn 1 dflt 
TtfTable: prep 1819
\H79^'sa'0"[O+/'`aO"!s',:J,f]Q'EJ+4!s'&8rW!$$&c`OE!s&u6rW!$$&-2\0!s&o4RK*Ej
%KQJ.!s&k:lUM+E,lnGTI/j?M$ihRR!s&c01&qCW$36@l!s&].rW!$$#QP>7!s&W,rW!$$"ooqL
!s&Q*rW!$$"98o3!s&K(,le#J!W`3"!s&Ef=oJO&rWE+I"8r-#qu-]o1'@?a"8I9Hp\'OLp\k9h
^]aB(=U"MX"876Jp%0R7oiVCi5Qp^+"7u(:"nVQmnh1+8rWDZh"7IuImM#cjQ36L>7g88Y"73Pt
d6R^7lUM'Bl!st_Q36A^"6f^dkN3]ekPbSG)[#4$"6=5"j8K/?]*%$M)$T!q"5k%!hj+B$rWD!U
"5MWG"l0(ZgD'hEQ35gm'a<:i"5&S@"kXOlf6mbP3Wmol$O,'A"4[;Pe'\R,e,BHt$3S]T"47#L
c\`;<cQ!&4('Dh\"3d&5bDRYMbPhUdrWC8j"3CHDa8Q1\rWC-.%0a]L"2k*?_YsYRrWBrq$O+<[
"2>6H^:h,^^A\5J]Nk]S]*#`s"MD>m"h\+C]KcV3,m1aX"1a^"\;roZ\,HK<O$NrXq?+-o%0a-<
"1)M?Z=F'B%KipJ"0_\+Y5U]b"0MP)XSr=&&d,05"0&4/"fX6ZW"&p-V@a!0-j-=Y"/VeF"f6VL
Ub)\DrWAno"/5\rTV!)*TO\.sSe)'t)$?HA".]c$SGiV[RLKFirWASu".>N/"e#>lQnAK-O$Nr9
Q33G<]*4N""-o*V"dQ\%Q%0"%O<k'p>m$<V"I&feP5YQGO<k'm]*"-@"-8?d"ckqONf=DMNYDST
$Nl?G,mB6<",i$K"cFZ/M@frIrW@uU",HjXL4p3CLAh:/&Hd^c",$RTJe:<QJl;c&rW@[q"+PcJ
"b6LRIXM<H*Wpfh"+(L[HN""jrW@?C"*J\o"a(=XFgqGP5hZ?_$j1Ue"EP1XF$KkKrW@0>"*"5A
Df/JWDjCKCD(#R*;Zgkb")Rr=CGH!,rW?ji").N5B=e7XrW?a2"(_B5@q$J_A,ZR>!"]<C*WojM
"(;*1?iC.6=pkL?%Kg!I"'inL>?VC<>8.0C$NjQ2"'?6>=8i;&rW?.>)$O"q"'#7%;uQksrW?#G
"&St!:D<n+rW>jq/HnlJ"&-</9.0m78JhV'2ZlW=&d:iD"%Yit"\AUp7mdmm7q;]k72Q1t])tJ=

StartChar: .notdef
Encoding: 0 -1 0
Width: 1233
Flags: W
Fore
104 -362 m 1,0,-1
 104 1444 l 1,1,-1
 1128 1444 l 1,2,-1
 1128 -362 l 1,3,-1
 104 -362 l 1,0,-1
219 -248 m 1,4,-1
 1014 -248 l 1,5,-1
 1014 1329 l 1,6,-1
 219 1329 l 1,7,-1
 219 -248 l 1,4,-1
EndSplineSet
EndChar
StartChar: exclam
Encoding: 33 33 33
Width: 1233
Flags: W
Fore
516 1493 m 1,0,-1
 719 1493 l 1,1,-1
 719 838 l 1,2,-1
 698 481 l 1,3,-1
 537 481 l 1,4,-1
 516 838 l 1,5,-1
 516 1493 l 1,0,-1
516 254 m 1,6,-1
 719 254 l 1,7,-1
 719 0 l 1,8,-1
 516 0 l 1,9,-1
 516 254 l 1,6,-1
EndSplineSet
EndChar
StartChar: quotedbl
Encoding: 34 34 34
Width: 1233
Flags: W
Fore
895 1493 m 1,0,-1
 895 938 l 1,1,-1
 721 938 l 1,2,-1
 721 1493 l 1,3,-1
 895 1493 l 1,0,-1
512 1493 m 1,4,-1
 512 938 l 1,5,-1
 338 938 l 1,6,-1
 338 1493 l 1,7,-1
 512 1493 l 1,4,-1
EndSplineSet
EndChar
StartChar: numbersign
Encoding: 35 35 35
Width: 1233
Flags: W
Fore
684 1470 m 1,0,-1
 580 1055 l 1,1,-1
 825 1055 l 1,2,-1
 930 1470 l 1,3,-1
 1090 1470 l 1,4,-1
 985 1055 l 1,5,-1
 1229 1055 l 1,6,-1
 1229 901 l 1,7,-1
 948 901 l 1,8,-1
 864 567 l 1,9,-1
 1114 567 l 1,10,-1
 1114 414 l 1,11,-1
 825 414 l 1,12,-1
 721 0 l 1,13,-1
 561 0 l 1,14,-1
 666 414 l 1,15,-1
 420 414 l 1,16,-1
 315 0 l 1,17,-1
 156 0 l 1,18,-1
 260 414 l 1,19,-1
 2 414 l 1,20,-1
 2 567 l 1,21,-1
 299 567 l 1,22,-1
 383 901 l 1,23,-1
 117 901 l 1,24,-1
 117 1055 l 1,25,-1
 420 1055 l 1,26,-1
 524 1470 l 1,27,-1
 684 1470 l 1,0,-1
788 901 m 1,28,-1
 543 901 l 1,29,-1
 459 567 l 1,30,-1
 705 567 l 1,31,-1
 788 901 l 1,28,-1
EndSplineSet
EndChar
StartChar: dollar
Encoding: 36 36 36
Width: 1233
Flags: W
Fore
692 580 m 1,0,-1
 692 146 l 1,1,2
 802 149 802 149 864 207 c 128,-1,3
 926 265 926 265 926 365 c 0,4,5
 926 458 926 458 870 509.5 c 128,-1,6
 814 561 814 561 692 580 c 1,0,-1
592 770 m 1,7,-1
 592 1183 l 1,8,9
 488 1179 488 1179 429.5 1123 c 128,-1,10
 371 1067 371 1067 371 973 c 0,11,12
 371 887 371 887 425.5 837 c 128,-1,13
 480 787 480 787 592 770 c 1,7,-1
692 -301 m 1,14,-1
 592 -301 l 1,15,-1
 591 0 l 1,16,17
 489 5 489 5 388.5 28 c 128,-1,18
 288 51 288 51 190 92 c 1,19,-1
 190 272 l 1,20,21
 290 210 290 210 391.5 177 c 128,-1,22
 493 144 493 144 592 142 c 1,23,-1
 592 600 l 1,24,25
 392 631 392 631 291 722 c 128,-1,26
 190 813 190 813 190 963 c 0,27,28
 190 1120 190 1120 295.5 1213.5 c 128,-1,29
 401 1307 401 1307 592 1321 c 1,30,-1
 592 1556 l 1,31,-1
 692 1556 l 1,32,-1
 693 1321 l 1,33,34
 772 1316 772 1316 853 1301 c 128,-1,35
 934 1286 934 1286 1018 1260 c 1,36,-1
 1018 1087 l 1,37,38
 933 1130 933 1130 852.5 1153.5 c 128,-1,39
 772 1177 772 1177 692 1181 c 1,40,-1
 692 750 l 1,41,42
 898 719 898 719 1006 622 c 128,-1,43
 1114 525 1114 525 1114 371 c 0,44,45
 1114 217 1114 217 997.5 114 c 128,-1,46
 881 11 881 11 693 2 c 1,47,-1
 692 -301 l 1,14,-1
EndSplineSet
EndChar
StartChar: percent
Encoding: 37 37 37
Width: 1233
Flags: W
Fore
696 319 m 0,0,1
 696 241 696 241 748.5 188 c 128,-1,2
 801 135 801 135 879 135 c 0,3,4
 956 135 956 135 1009.5 188.5 c 128,-1,5
 1063 242 1063 242 1063 319 c 0,6,7
 1063 396 1063 396 1009 450 c 128,-1,8
 955 504 955 504 879 504 c 0,9,10
 801 504 801 504 748.5 451 c 128,-1,11
 696 398 696 398 696 319 c 0,0,1
561 319 m 0,12,13
 561 454 561 454 653 546.5 c 128,-1,14
 745 639 745 639 879 639 c 0,15,16
 943 639 943 639 1000.5 615 c 128,-1,17
 1058 591 1058 591 1104 545 c 0,18,19
 1150 498 1150 498 1175 440 c 128,-1,20
 1200 382 1200 382 1200 319 c 0,21,22
 1200 186 1200 186 1107 93 c 128,-1,23
 1014 0 1014 0 879 0 c 0,24,25
 743 0 743 0 652 91.5 c 128,-1,26
 561 183 561 183 561 319 c 0,12,13
121 465 m 1,27,-1
 86 561 l 1,28,-1
 1128 979 l 1,29,-1
 1169 883 l 1,30,-1
 121 465 l 1,27,-1
168 1112 m 0,31,32
 168 1033 168 1033 220.5 980.5 c 128,-1,33
 273 928 273 928 352 928 c 0,34,35
 429 928 429 928 483 981.5 c 128,-1,36
 537 1035 537 1035 537 1112 c 0,37,38
 537 1189 537 1189 483 1242.5 c 128,-1,39
 429 1296 429 1296 352 1296 c 0,40,41
 275 1296 275 1296 221.5 1243 c 128,-1,42
 168 1190 168 1190 168 1112 c 0,31,32
33 1112 m 0,43,44
 33 1247 33 1247 125 1339.5 c 128,-1,45
 217 1432 217 1432 352 1432 c 0,46,47
 416 1432 416 1432 474.5 1408 c 128,-1,48
 533 1384 533 1384 578 1339 c 0,49,50
 623 1294 623 1294 647.5 1235.5 c 128,-1,51
 672 1177 672 1177 672 1112 c 0,52,53
 672 978 672 978 579 885.5 c 128,-1,54
 486 793 486 793 352 793 c 0,55,56
 217 793 217 793 125 885 c 128,-1,57
 33 977 33 977 33 1112 c 0,43,44
EndSplineSet
EndChar
StartChar: ampersand
Encoding: 38 38 38
Width: 1233
Flags: W
Fore
547 907 m 2,0,-1
 963 348 l 1,1,2
 1002 397 1002 397 1021 472 c 128,-1,3
 1040 547 1040 547 1040 651 c 0,4,5
 1040 683 1040 683 1037 753 c 1,6,-1
 1036 760 l 1,7,-1
 1200 760 l 1,8,-1
 1200 721 l 2,9,10
 1200 560 1200 560 1163 438.5 c 128,-1,11
 1126 317 1126 317 1051 229 c 1,12,-1
 1221 0 l 1,13,-1
 1008 0 l 1,14,-1
 930 109 l 1,15,16
 847 39 847 39 754 5 c 128,-1,17
 661 -29 661 -29 555 -29 c 0,18,19
 339 -29 339 -29 198 105.5 c 128,-1,20
 57 240 57 240 57 444 c 0,21,22
 57 581 57 581 126 698 c 128,-1,23
 195 815 195 815 334 915 c 1,24,25
 284 987 284 987 260 1056 c 128,-1,26
 236 1125 236 1125 236 1196 c 0,27,28
 236 1346 236 1346 335.5 1433 c 128,-1,29
 435 1520 435 1520 608 1520 c 0,30,31
 673 1520 673 1520 738.5 1508 c 128,-1,32
 804 1496 804 1496 874 1473 c 1,33,-1
 874 1290 l 1,34,35
 815 1329 815 1329 752.5 1347.5 c 128,-1,36
 690 1366 690 1366 621 1366 c 0,37,38
 524 1366 524 1366 468 1320.5 c 128,-1,39
 412 1275 412 1275 412 1198 c 0,40,41
 412 1139 412 1139 441 1074.5 c 128,-1,42
 470 1010 470 1010 547 907 c 2,0,-1
416 803 m 1,43,44
 324 730 324 730 278.5 648.5 c 128,-1,45
 233 567 233 567 233 475 c 0,46,47
 233 324 233 324 333 224.5 c 128,-1,48
 433 125 433 125 588 125 c 0,49,50
 630 125 630 125 676 137 c 128,-1,51
 722 149 722 149 766 172 c 0,52,53
 793 187 793 187 810.5 198.5 c 128,-1,54
 828 210 828 210 844 223 c 1,55,-1
 416 803 l 1,43,44
EndSplineSet
EndChar
StartChar: quotesingle
Encoding: 39 39 39
Width: 1233
Flags: W
Fore
702 1493 m 1,0,-1
 702 938 l 1,1,-1
 528 938 l 1,2,-1
 528 1493 l 1,3,-1
 702 1493 l 1,0,-1
EndSplineSet
EndChar
StartChar: parenleft
Encoding: 40 40 40
Width: 1233
Flags: W
Fore
885 1554 m 1,0,1
 752 1326 752 1326 686.5 1099.5 c 128,-1,2
 621 873 621 873 621 643 c 0,3,4
 621 414 621 414 686.5 187 c 128,-1,5
 752 -40 752 -40 885 -270 c 1,6,-1
 725 -270 l 1,7,8
 574 -32 574 -32 500 193.5 c 128,-1,9
 426 419 426 419 426 643 c 0,10,11
 426 866 426 866 500 1092 c 128,-1,12
 574 1318 574 1318 725 1554 c 1,13,-1
 885 1554 l 1,0,1
EndSplineSet
EndChar
StartChar: parenright
Encoding: 41 41 41
Width: 1233
Flags: W
Fore
348 1554 m 1,0,-1
 508 1554 l 1,1,2
 659 1318 659 1318 733 1092 c 128,-1,3
 807 866 807 866 807 643 c 0,4,5
 807 418 807 418 733 192 c 128,-1,6
 659 -34 659 -34 508 -270 c 1,7,-1
 348 -270 l 1,8,9
 481 -38 481 -38 546.5 189 c 128,-1,10
 612 416 612 416 612 643 c 0,11,12
 612 871 612 871 546.5 1098 c 128,-1,13
 481 1325 481 1325 348 1554 c 1,0,-1
EndSplineSet
EndChar
StartChar: asterisk
Encoding: 42 42 42
Width: 1233
Flags: W
Fore
1067 1247 m 1,0,-1
 709 1053 l 1,1,-1
 1067 858 l 1,2,-1
 1010 760 l 1,3,-1
 674 963 l 1,4,-1
 674 586 l 1,5,-1
 559 586 l 1,6,-1
 559 963 l 1,7,-1
 223 760 l 1,8,-1
 166 858 l 1,9,-1
 524 1053 l 1,10,-1
 166 1247 l 1,11,-1
 223 1346 l 1,12,-1
 559 1143 l 1,13,-1
 559 1520 l 1,14,-1
 674 1520 l 1,15,-1
 674 1143 l 1,16,-1
 1010 1346 l 1,17,-1
 1067 1247 l 1,0,-1
EndSplineSet
EndChar
StartChar: plus
Encoding: 43 43 43
Width: 1233
Flags: W
Fore
700 1171 m 1,0,-1
 700 727 l 1,1,-1
 1145 727 l 1,2,-1
 1145 557 l 1,3,-1
 700 557 l 1,4,-1
 700 113 l 1,5,-1
 532 113 l 1,6,-1
 532 557 l 1,7,-1
 88 557 l 1,8,-1
 88 727 l 1,9,-1
 532 727 l 1,10,-1
 532 1171 l 1,11,-1
 700 1171 l 1,0,-1
EndSplineSet
EndChar
StartChar: comma
Encoding: 44 44 44
Width: 1233
Flags: W
Fore
502 303 m 1,0,-1
 754 303 l 1,1,-1
 754 96 l 1,2,-1
 557 -287 l 1,3,-1
 403 -287 l 1,4,-1
 502 96 l 1,5,-1
 502 303 l 1,0,-1
EndSplineSet
EndChar
StartChar: hyphen
Encoding: 45 45 45
Width: 1233
Flags: W
Fore
356 643 m 1,0,-1
 877 643 l 1,1,-1
 877 479 l 1,2,-1
 356 479 l 1,3,-1
 356 643 l 1,0,-1
EndSplineSet
EndChar
StartChar: period
Encoding: 46 46 46
Width: 1233
Flags: W
Fore
489 305 m 1,0,-1
 741 305 l 1,1,-1
 741 0 l 1,2,-1
 489 0 l 1,3,-1
 489 305 l 1,0,-1
EndSplineSet
EndChar
StartChar: slash
Encoding: 47 47 47
Width: 1233
Flags: W
Fore
889 1493 m 1,0,-1
 1079 1493 l 1,1,-1
 293 -190 l 1,2,-1
 102 -190 l 1,3,-1
 889 1493 l 1,0,-1
EndSplineSet
EndChar
StartChar: zero
Encoding: 48 48 48
Width: 1233
Flags: W
Fore
483 750 m 0,0,1
 483 805 483 805 521.5 845 c 128,-1,2
 560 885 560 885 614 885 c 0,3,4
 670 885 670 885 710 845 c 128,-1,5
 750 805 750 805 750 750 c 0,6,7
 750 694 750 694 710.5 655 c 128,-1,8
 671 616 671 616 614 616 c 0,9,10
 558 616 558 616 520.5 654 c 128,-1,11
 483 692 483 692 483 750 c 0,0,1
616 1360 m 0,12,13
 475 1360 475 1360 405.5 1208 c 128,-1,14
 336 1056 336 1056 336 745 c 0,15,16
 336 435 336 435 405.5 283 c 128,-1,17
 475 131 475 131 616 131 c 0,18,19
 758 131 758 131 827.5 283 c 128,-1,20
 897 435 897 435 897 745 c 0,21,22
 897 1056 897 1056 827.5 1208 c 128,-1,23
 758 1360 758 1360 616 1360 c 0,12,13
616 1520 m 0,24,25
 855 1520 855 1520 977.5 1324 c 128,-1,26
 1100 1128 1100 1128 1100 745 c 0,27,28
 1100 363 1100 363 977.5 167 c 128,-1,29
 855 -29 855 -29 616 -29 c 0,30,31
 377 -29 377 -29 255 167 c 128,-1,32
 133 363 133 363 133 745 c 0,33,34
 133 1128 133 1128 255 1324 c 128,-1,35
 377 1520 377 1520 616 1520 c 0,24,25
EndSplineSet
EndChar
StartChar: one
Encoding: 49 49 49
Width: 1233
Flags: W
Fore
270 170 m 1,0,-1
 584 170 l 1,1,-1
 584 1311 l 1,2,-1
 246 1235 l 1,3,-1
 246 1419 l 1,4,-1
 582 1493 l 1,5,-1
 784 1493 l 1,6,-1
 784 170 l 1,7,-1
 1094 170 l 1,8,-1
 1094 0 l 1,9,-1
 270 0 l 1,10,-1
 270 170 l 1,0,-1
EndSplineSet
EndChar
StartChar: two
Encoding: 50 50 50
Width: 1233
Flags: W
Fore
373 170 m 1,0,-1
 1059 170 l 1,1,-1
 1059 0 l 1,2,-1
 152 0 l 1,3,-1
 152 170 l 1,4,5
 339 367 339 367 479 518 c 128,-1,6
 619 669 619 669 672 731 c 1,7,8
 772 853 772 853 807 928.5 c 128,-1,9
 842 1004 842 1004 842 1083 c 0,10,11
 842 1208 842 1208 768.5 1279 c 128,-1,12
 695 1350 695 1350 567 1350 c 0,13,14
 476 1350 476 1350 376 1317 c 128,-1,15
 276 1284 276 1284 164 1217 c 1,16,-1
 164 1421 l 1,17,18
 267 1470 267 1470 366.5 1495 c 128,-1,19
 466 1520 466 1520 563 1520 c 0,20,21
 782 1520 782 1520 915.5 1403.5 c 128,-1,22
 1049 1287 1049 1287 1049 1098 c 0,23,24
 1049 1002 1049 1002 1004.5 906 c 128,-1,25
 960 810 960 810 860 694 c 0,26,27
 804 629 804 629 697.5 514 c 128,-1,28
 591 399 591 399 373 170 c 1,0,-1
EndSplineSet
EndChar
StartChar: three
Encoding: 51 51 51
Width: 1233
Flags: W
Fore
776 799 m 1,0,1
 923 760 923 760 1001 660.5 c 128,-1,2
 1079 561 1079 561 1079 412 c 0,3,4
 1079 206 1079 206 940.5 88.5 c 128,-1,5
 802 -29 802 -29 557 -29 c 0,6,7
 454 -29 454 -29 347 -10 c 128,-1,8
 240 9 240 9 137 45 c 1,9,-1
 137 246 l 1,10,11
 239 193 239 193 338 167 c 128,-1,12
 437 141 437 141 535 141 c 0,13,14
 701 141 701 141 790 216 c 128,-1,15
 879 291 879 291 879 432 c 0,16,17
 879 562 879 562 790 638.5 c 128,-1,18
 701 715 701 715 549 715 c 2,19,-1
 395 715 l 1,20,-1
 395 881 l 1,21,-1
 549 881 l 2,22,23
 688 881 688 881 766 942 c 128,-1,24
 844 1003 844 1003 844 1112 c 0,25,26
 844 1227 844 1227 771.5 1288.5 c 128,-1,27
 699 1350 699 1350 565 1350 c 0,28,29
 476 1350 476 1350 381 1330 c 128,-1,30
 286 1310 286 1310 182 1270 c 1,31,-1
 182 1456 l 1,32,33
 303 1488 303 1488 397.5 1504 c 128,-1,34
 492 1520 492 1520 565 1520 c 0,35,36
 783 1520 783 1520 913.5 1410.5 c 128,-1,37
 1044 1301 1044 1301 1044 1120 c 0,38,39
 1044 997 1044 997 975.5 915 c 128,-1,40
 907 833 907 833 776 799 c 1,0,1
EndSplineSet
EndChar
StartChar: four
Encoding: 52 52 52
Width: 1233
Flags: W
Fore
735 1309 m 1,0,-1
 264 520 l 1,1,-1
 735 520 l 1,2,-1
 735 1309 l 1,0,-1
702 1493 m 1,3,-1
 936 1493 l 1,4,-1
 936 520 l 1,5,-1
 1135 520 l 1,6,-1
 1135 356 l 1,7,-1
 936 356 l 1,8,-1
 936 0 l 1,9,-1
 735 0 l 1,10,-1
 735 356 l 1,11,-1
 102 356 l 1,12,-1
 102 547 l 1,13,-1
 702 1493 l 1,3,-1
EndSplineSet
EndChar
StartChar: five
Encoding: 53 53 53
Width: 1233
Flags: W
Fore
207 1493 m 1,0,-1
 963 1493 l 1,1,-1
 963 1323 l 1,2,-1
 391 1323 l 1,3,-1
 391 956 l 1,4,5
 434 972 434 972 477.5 979.5 c 128,-1,6
 521 987 521 987 565 987 c 0,7,8
 797 987 797 987 933 850 c 128,-1,9
 1069 713 1069 713 1069 479 c 0,10,11
 1069 243 1069 243 926.5 107 c 128,-1,12
 784 -29 784 -29 537 -29 c 0,13,14
 418 -29 418 -29 319.5 -13 c 128,-1,15
 221 3 221 3 143 35 c 1,16,-1
 143 240 l 1,17,18
 235 190 235 190 328 165.5 c 128,-1,19
 421 141 421 141 518 141 c 0,20,21
 685 141 685 141 775.5 229 c 128,-1,22
 866 317 866 317 866 479 c 0,23,24
 866 639 866 639 772.5 728 c 128,-1,25
 679 817 679 817 512 817 c 0,26,27
 431 817 431 817 354 798.5 c 128,-1,28
 277 780 277 780 207 743 c 1,29,-1
 207 1493 l 1,0,-1
EndSplineSet
EndChar
StartChar: six
Encoding: 54 54 54
Width: 1233
Flags: W
Fore
991 1460 m 1,0,-1
 991 1274 l 1,1,2
 928 1311 928 1311 857 1330.5 c 128,-1,3
 786 1350 786 1350 709 1350 c 0,4,5
 517 1350 517 1350 418 1205.5 c 128,-1,6
 319 1061 319 1061 319 780 c 1,7,8
 367 880 367 880 452 933.5 c 128,-1,9
 537 987 537 987 647 987 c 0,10,11
 863 987 863 987 981.5 854.5 c 128,-1,12
 1100 722 1100 722 1100 479 c 0,13,14
 1100 237 1100 237 978 104 c 128,-1,15
 856 -29 856 -29 635 -29 c 0,16,17
 375 -29 375 -29 254 157.5 c 128,-1,18
 133 344 133 344 133 745 c 0,19,20
 133 1123 133 1123 278.5 1321.5 c 128,-1,21
 424 1520 424 1520 700 1520 c 0,22,23
 774 1520 774 1520 848 1504.5 c 128,-1,24
 922 1489 922 1489 991 1460 c 1,0,-1
631 829 m 0,25,26
 502 829 502 829 428 736 c 128,-1,27
 354 643 354 643 354 479 c 0,28,29
 354 315 354 315 428 222 c 128,-1,30
 502 129 502 129 631 129 c 0,31,32
 765 129 765 129 833 217.5 c 128,-1,33
 901 306 901 306 901 479 c 0,34,35
 901 653 901 653 833 741 c 128,-1,36
 765 829 765 829 631 829 c 0,25,26
EndSplineSet
EndChar
StartChar: seven
Encoding: 55 55 55
Width: 1233
Flags: W
Fore
139 1493 m 1,0,-1
 1079 1493 l 1,1,-1
 1079 1407 l 1,2,-1
 545 0 l 1,3,-1
 334 0 l 1,4,-1
 854 1323 l 1,5,-1
 139 1323 l 1,6,-1
 139 1493 l 1,0,-1
EndSplineSet
EndChar
StartChar: eight
Encoding: 56 56 56
Width: 1233
Flags: W
Fore
616 709 m 0,0,1
 481 709 481 709 407.5 633.5 c 128,-1,2
 334 558 334 558 334 420 c 0,3,4
 334 282 334 282 408.5 205.5 c 128,-1,5
 483 129 483 129 616 129 c 0,6,7
 752 129 752 129 825.5 204.5 c 128,-1,8
 899 280 899 280 899 420 c 0,9,10
 899 557 899 557 824.5 633 c 128,-1,11
 750 709 750 709 616 709 c 0,0,1
440 793 m 1,12,13
 311 826 311 826 238.5 916 c 128,-1,14
 166 1006 166 1006 166 1133 c 0,15,16
 166 1311 166 1311 287 1415.5 c 128,-1,17
 408 1520 408 1520 616 1520 c 0,18,19
 825 1520 825 1520 946 1415.5 c 128,-1,20
 1067 1311 1067 1311 1067 1133 c 0,21,22
 1067 1006 1067 1006 994.5 916 c 128,-1,23
 922 826 922 826 793 793 c 1,24,25
 943 760 943 760 1022.5 660 c 128,-1,26
 1102 560 1102 560 1102 401 c 0,27,28
 1102 199 1102 199 973 85 c 128,-1,29
 844 -29 844 -29 616 -29 c 0,30,31
 388 -29 388 -29 259.5 84.5 c 128,-1,32
 131 198 131 198 131 399 c 0,33,34
 131 559 131 559 210.5 659.5 c 128,-1,35
 290 760 290 760 440 793 c 1,12,13
367 1114 m 0,36,37
 367 994 367 994 431 931 c 128,-1,38
 495 868 495 868 616 868 c 0,39,40
 738 868 738 868 802 931 c 128,-1,41
 866 994 866 994 866 1114 c 0,42,43
 866 1236 866 1236 802.5 1300 c 128,-1,44
 739 1364 739 1364 616 1364 c 0,45,46
 495 1364 495 1364 431 1299.5 c 128,-1,47
 367 1235 367 1235 367 1114 c 0,36,37
EndSplineSet
EndChar
StartChar: nine
Encoding: 57 57 57
Width: 1233
Flags: W
Fore
596 662 m 0,0,1
 725 662 725 662 798.5 755 c 128,-1,2
 872 848 872 848 872 1012 c 0,3,4
 872 1176 872 1176 798.5 1269 c 128,-1,5
 725 1362 725 1362 596 1362 c 0,6,7
 462 1362 462 1362 394 1273.5 c 128,-1,8
 326 1185 326 1185 326 1012 c 0,9,10
 326 838 326 838 393.5 750 c 128,-1,11
 461 662 461 662 596 662 c 0,0,1
236 31 m 1,12,-1
 236 217 l 1,13,14
 299 180 299 180 370 160.5 c 128,-1,15
 441 141 441 141 518 141 c 0,16,17
 710 141 710 141 808.5 285.5 c 128,-1,18
 907 430 907 430 907 711 c 1,19,20
 860 611 860 611 775 557.5 c 128,-1,21
 690 504 690 504 580 504 c 0,22,23
 364 504 364 504 245.5 637 c 128,-1,24
 127 770 127 770 127 1014 c 0,25,26
 127 1255 127 1255 248.5 1387.5 c 128,-1,27
 370 1520 370 1520 592 1520 c 0,28,29
 852 1520 852 1520 973 1333 c 128,-1,30
 1094 1146 1094 1146 1094 745 c 0,31,32
 1094 368 1094 368 948.5 169.5 c 128,-1,33
 803 -29 803 -29 526 -29 c 0,34,35
 453 -29 453 -29 379 -13.5 c 128,-1,36
 305 2 305 2 236 31 c 1,12,-1
EndSplineSet
EndChar
StartChar: colon
Encoding: 58 58 58
Width: 1233
Flags: W
Fore
489 1063 m 1,0,-1
 741 1063 l 1,1,-1
 741 760 l 1,2,-1
 489 760 l 1,3,-1
 489 1063 l 1,0,-1
489 305 m 1,4,-1
 741 305 l 1,5,-1
 741 0 l 1,6,-1
 489 0 l 1,7,-1
 489 305 l 1,4,-1
EndSplineSet
EndChar
StartChar: semicolon
Encoding: 59 59 59
Width: 1233
Flags: W
Fore
502 303 m 1,0,-1
 754 303 l 1,1,-1
 754 96 l 1,2,-1
 557 -287 l 1,3,-1
 403 -287 l 1,4,-1
 502 96 l 1,5,-1
 502 303 l 1,0,-1
489 1063 m 1,6,-1
 741 1063 l 1,7,-1
 741 760 l 1,8,-1
 489 760 l 1,9,-1
 489 1063 l 1,6,-1
EndSplineSet
EndChar
StartChar: less
Encoding: 60 60 60
Width: 1233
Flags: W
Fore
1145 961 m 1,0,-1
 295 641 l 1,1,-1
 1145 324 l 1,2,-1
 1145 141 l 1,3,-1
 88 559 l 1,4,-1
 88 725 l 1,5,-1
 1145 1143 l 1,6,-1
 1145 961 l 1,0,-1
EndSplineSet
EndChar
StartChar: equal
Encoding: 61 61 61
Width: 1233
Flags: W
Fore
88 524 m 1,0,-1
 1145 524 l 1,1,-1
 1145 352 l 1,2,-1
 88 352 l 1,3,-1
 88 524 l 1,0,-1
88 930 m 1,4,-1
 1145 930 l 1,5,-1
 1145 760 l 1,6,-1
 88 760 l 1,7,-1
 88 930 l 1,4,-1
EndSplineSet
EndChar
StartChar: greater
Encoding: 62 62 62
Width: 1233
Flags: W
Fore
88 961 m 1,0,-1
 88 1143 l 1,1,-1
 1145 725 l 1,2,-1
 1145 559 l 1,3,-1
 88 141 l 1,4,-1
 88 324 l 1,5,-1
 938 641 l 1,6,-1
 88 961 l 1,0,-1
EndSplineSet
EndChar
StartChar: question
Encoding: 63 63 63
Width: 1233
Flags: W
Fore
684 401 m 1,0,-1
 494 401 l 1,1,-1
 494 555 l 2,2,3
 494 653 494 653 524.5 721.5 c 128,-1,4
 555 790 555 790 639 872 c 2,5,-1
 729 961 l 1,6,7
 791 1020 791 1020 814.5 1064 c 128,-1,8
 838 1108 838 1108 838 1157 c 0,9,10
 838 1246 838 1246 772.5 1301 c 128,-1,11
 707 1356 707 1356 598 1356 c 0,12,13
 520 1356 520 1356 431 1321.5 c 128,-1,14
 342 1287 342 1287 244 1219 c 1,15,-1
 244 1407 l 1,16,17
 338 1464 338 1464 433.5 1492 c 128,-1,18
 529 1520 529 1520 633 1520 c 0,19,20
 819 1520 819 1520 929.5 1424 c 128,-1,21
 1040 1328 1040 1328 1040 1167 c 0,22,23
 1040 1091 1040 1091 1006.5 1025.5 c 128,-1,24
 973 960 973 960 879 868 c 2,25,-1
 791 782 l 2,26,27
 722 716 722 716 703 674 c 128,-1,28
 684 632 684 632 684 571 c 2,29,-1
 684 524 l 1,30,-1
 684 401 l 1,0,-1
487 254 m 1,31,-1
 690 254 l 1,32,-1
 690 0 l 1,33,-1
 487 0 l 1,34,-1
 487 254 l 1,31,-1
EndSplineSet
EndChar
StartChar: at
Encoding: 64 64 64
Width: 1233
Flags: W
Fore
1038 545 m 0,0,1
 1038 674 1038 674 974 751.5 c 128,-1,2
 910 829 910 829 803 829 c 0,3,4
 696 829 696 829 631.5 751.5 c 128,-1,5
 567 674 567 674 567 545 c 0,6,7
 567 415 567 415 631.5 337.5 c 128,-1,8
 696 260 696 260 803 260 c 0,9,10
 910 260 910 260 974 337.5 c 128,-1,11
 1038 415 1038 415 1038 545 c 0,0,1
1178 135 m 1,12,-1
 1034 135 l 1,13,-1
 1034 246 l 1,14,15
 997 183 997 183 931.5 149 c 128,-1,16
 866 115 866 115 784 115 c 0,17,18
 623 115 623 115 517.5 236 c 128,-1,19
 412 357 412 357 412 545 c 0,20,21
 412 733 412 733 517.5 854 c 128,-1,22
 623 975 623 975 784 975 c 0,23,24
 864 975 864 975 931 940 c 128,-1,25
 998 905 998 905 1034 844 c 1,26,-1
 1034 907 l 2,27,28
 1034 1063 1034 1063 946 1158 c 128,-1,29
 858 1253 858 1253 713 1253 c 0,30,31
 467 1253 467 1253 321.5 1061.5 c 128,-1,32
 176 870 176 870 176 543 c 0,33,34
 176 214 176 214 341 19 c 128,-1,35
 506 -176 506 -176 780 -176 c 0,36,37
 834 -176 834 -176 888 -166 c 128,-1,38
 942 -156 942 -156 999 -135 c 1,39,-1
 1047 -270 l 1,40,41
 984 -295 984 -295 922.5 -307 c 128,-1,42
 861 -319 861 -319 803 -319 c 0,43,44
 446 -319 446 -319 236.5 -86 c 128,-1,45
 27 147 27 147 27 543 c 0,46,47
 27 933 27 933 215 1164 c 128,-1,48
 403 1395 403 1395 719 1395 c 0,49,50
 928 1395 928 1395 1053 1262 c 128,-1,51
 1178 1129 1178 1129 1178 905 c 2,52,-1
 1178 135 l 1,12,-1
EndSplineSet
EndChar
StartChar: A
Encoding: 65 65 65
Width: 1233
Flags: W
Fore
616 1315 m 1,0,-1
 403 551 l 1,1,-1
 829 551 l 1,2,-1
 616 1315 l 1,0,-1
494 1493 m 1,3,-1
 739 1493 l 1,4,-1
 1196 0 l 1,5,-1
 987 0 l 1,6,-1
 877 389 l 1,7,-1
 354 389 l 1,8,-1
 246 0 l 1,9,-1
 37 0 l 1,10,-1
 494 1493 l 1,3,-1
EndSplineSet
EndChar
StartChar: B
Encoding: 66 66 66
Width: 1233
Flags: W
Fore
369 713 m 1,0,-1
 369 166 l 1,1,-1
 608 166 l 2,2,3
 784 166 784 166 859 227.5 c 128,-1,4
 934 289 934 289 934 430 c 0,5,6
 934 576 934 576 855 644.5 c 128,-1,7
 776 713 776 713 608 713 c 2,8,-1
 369 713 l 1,0,-1
369 1327 m 1,9,-1
 369 877 l 1,10,-1
 604 877 l 2,11,12
 750 877 750 877 815.5 933 c 128,-1,13
 881 989 881 989 881 1114 c 0,14,15
 881 1227 881 1227 816.5 1277 c 128,-1,16
 752 1327 752 1327 604 1327 c 2,17,-1
 369 1327 l 1,9,-1
166 1493 m 1,18,-1
 608 1493 l 2,19,20
 837 1493 837 1493 961 1394 c 128,-1,21
 1085 1295 1085 1295 1085 1114 c 0,22,23
 1085 977 1085 977 1019.5 898 c 128,-1,24
 954 819 954 819 823 799 c 1,25,26
 970 777 970 777 1053.5 673.5 c 128,-1,27
 1137 570 1137 570 1137 410 c 0,28,29
 1137 207 1137 207 1004 103.5 c 128,-1,30
 871 0 871 0 608 0 c 2,31,-1
 166 0 l 1,32,-1
 166 1493 l 1,18,-1
EndSplineSet
EndChar
StartChar: C
Encoding: 67 67 67
Width: 1233
Flags: W
Fore
1073 53 m 1,0,1
 996 12 996 12 915 -8.5 c 128,-1,2
 834 -29 834 -29 743 -29 c 0,3,4
 456 -29 456 -29 297.5 174 c 128,-1,5
 139 377 139 377 139 745 c 0,6,7
 139 1111 139 1111 298.5 1315.5 c 128,-1,8
 458 1520 458 1520 743 1520 c 0,9,10
 834 1520 834 1520 915 1499.5 c 128,-1,11
 996 1479 996 1479 1073 1438 c 1,12,-1
 1073 1231 l 1,13,14
 999 1292 999 1292 914 1324 c 128,-1,15
 829 1356 829 1356 743 1356 c 0,16,17
 546 1356 546 1356 448 1204 c 128,-1,18
 350 1052 350 1052 350 745 c 0,19,20
 350 439 350 439 448 287 c 128,-1,21
 546 135 546 135 743 135 c 0,22,23
 831 135 831 135 915.5 167 c 128,-1,24
 1000 199 1000 199 1073 260 c 1,25,-1
 1073 53 l 1,0,1
EndSplineSet
EndChar
StartChar: D
Encoding: 68 68 68
Width: 1233
Flags: W
Fore
436 166 m 2,0,1
 691 166 691 166 792 291.5 c 128,-1,2
 893 417 893 417 893 745 c 0,3,4
 893 1076 893 1076 792.5 1201.5 c 128,-1,5
 692 1327 692 1327 436 1327 c 2,6,-1
 340 1327 l 1,7,-1
 340 166 l 1,8,-1
 436 166 l 2,0,1
440 1493 m 2,9,10
 782 1493 782 1493 944 1311 c 128,-1,11
 1106 1129 1106 1129 1106 745 c 0,12,13
 1106 363 1106 363 944 181.5 c 128,-1,14
 782 0 782 0 440 0 c 2,15,-1
 137 0 l 1,16,-1
 137 1493 l 1,17,-1
 440 1493 l 2,9,10
EndSplineSet
EndChar
StartChar: E
Encoding: 69 69 69
Width: 1233
Flags: W
Fore
197 1493 m 1,0,-1
 1083 1493 l 1,1,-1
 1083 1323 l 1,2,-1
 399 1323 l 1,3,-1
 399 881 l 1,4,-1
 1053 881 l 1,5,-1
 1053 711 l 1,6,-1
 399 711 l 1,7,-1
 399 170 l 1,8,-1
 1102 170 l 1,9,-1
 1102 0 l 1,10,-1
 197 0 l 1,11,-1
 197 1493 l 1,0,-1
EndSplineSet
EndChar
StartChar: F
Encoding: 70 70 70
Width: 1233
Flags: W
Fore
233 1493 m 1,0,-1
 1112 1493 l 1,1,-1
 1112 1323 l 1,2,-1
 436 1323 l 1,3,-1
 436 883 l 1,4,-1
 1049 883 l 1,5,-1
 1049 713 l 1,6,-1
 436 713 l 1,7,-1
 436 0 l 1,8,-1
 233 0 l 1,9,-1
 233 1493 l 1,0,-1
EndSplineSet
EndChar
StartChar: G
Encoding: 71 71 71
Width: 1233
Flags: W
Fore
1104 123 m 1,0,1
 1023 48 1023 48 921.5 9.5 c 128,-1,2
 820 -29 820 -29 702 -29 c 0,3,4
 418 -29 418 -29 260 174.5 c 128,-1,5
 102 378 102 378 102 745 c 0,6,7
 102 1111 102 1111 262 1315.5 c 128,-1,8
 422 1520 422 1520 707 1520 c 0,9,10
 801 1520 801 1520 887 1493.5 c 128,-1,11
 973 1467 973 1467 1053 1413 c 1,12,-1
 1053 1206 l 1,13,14
 972 1283 972 1283 887 1319.5 c 128,-1,15
 802 1356 802 1356 707 1356 c 0,16,17
 510 1356 510 1356 411.5 1203.5 c 128,-1,18
 313 1051 313 1051 313 745 c 0,19,20
 313 434 313 434 408.5 284.5 c 128,-1,21
 504 135 504 135 702 135 c 0,22,23
 769 135 769 135 819.5 150.5 c 128,-1,24
 870 166 870 166 911 199 c 1,25,-1
 911 600 l 1,26,-1
 694 600 l 1,27,-1
 694 766 l 1,28,-1
 1104 766 l 1,29,-1
 1104 123 l 1,0,1
EndSplineSet
EndChar
StartChar: H
Encoding: 72 72 72
Width: 1233
Flags: W
Fore
137 1493 m 1,0,-1
 340 1493 l 1,1,-1
 340 881 l 1,2,-1
 893 881 l 1,3,-1
 893 1493 l 1,4,-1
 1096 1493 l 1,5,-1
 1096 0 l 1,6,-1
 893 0 l 1,7,-1
 893 711 l 1,8,-1
 340 711 l 1,9,-1
 340 0 l 1,10,-1
 137 0 l 1,11,-1
 137 1493 l 1,0,-1
EndSplineSet
EndChar
StartChar: I
Encoding: 73 73 73
Width: 1233
Flags: W
Fore
201 1493 m 1,0,-1
 1030 1493 l 1,1,-1
 1030 1323 l 1,2,-1
 717 1323 l 1,3,-1
 717 170 l 1,4,-1
 1030 170 l 1,5,-1
 1030 0 l 1,6,-1
 201 0 l 1,7,-1
 201 170 l 1,8,-1
 514 170 l 1,9,-1
 514 1323 l 1,10,-1
 201 1323 l 1,11,-1
 201 1493 l 1,0,-1
EndSplineSet
EndChar
StartChar: J
Encoding: 74 74 74
Width: 1233
Flags: W
Fore
109 61 m 1,0,-1
 109 297 l 1,1,2
 200 216 200 216 297 175.5 c 128,-1,3
 394 135 394 135 498 135 c 0,4,5
 641 135 641 135 697.5 209.5 c 128,-1,6
 754 284 754 284 754 487 c 2,7,-1
 754 1323 l 1,8,-1
 373 1323 l 1,9,-1
 373 1493 l 1,10,-1
 956 1493 l 1,11,-1
 956 487 l 2,12,13
 956 205 956 205 850.5 88 c 128,-1,14
 745 -29 745 -29 498 -29 c 0,15,16
 402 -29 402 -29 307 -7 c 128,-1,17
 212 15 212 15 109 61 c 1,0,-1
EndSplineSet
EndChar
StartChar: K
Encoding: 75 75 75
Width: 1233
Flags: W
Fore
137 1493 m 1,0,-1
 340 1493 l 1,1,-1
 340 829 l 1,2,-1
 971 1493 l 1,3,-1
 1208 1493 l 1,4,-1
 627 883 l 1,5,-1
 1225 0 l 1,6,-1
 981 0 l 1,7,-1
 494 748 l 1,8,-1
 340 584 l 1,9,-1
 340 0 l 1,10,-1
 137 0 l 1,11,-1
 137 1493 l 1,0,-1
EndSplineSet
EndChar
StartChar: L
Encoding: 76 76 76
Width: 1233
Flags: W
Fore
215 1493 m 1,0,-1
 418 1493 l 1,1,-1
 418 170 l 1,2,-1
 1139 170 l 1,3,-1
 1139 0 l 1,4,-1
 215 0 l 1,5,-1
 215 1493 l 1,0,-1
EndSplineSet
EndChar
StartChar: M
Encoding: 77 77 77
Width: 1233
Flags: W
Fore
86 1493 m 1,0,-1
 356 1493 l 1,1,-1
 614 733 l 1,2,-1
 874 1493 l 1,3,-1
 1145 1493 l 1,4,-1
 1145 0 l 1,5,-1
 958 0 l 1,6,-1
 958 1319 l 1,7,-1
 692 532 l 1,8,-1
 539 532 l 1,9,-1
 272 1319 l 1,10,-1
 272 0 l 1,11,-1
 86 0 l 1,12,-1
 86 1493 l 1,0,-1
EndSplineSet
EndChar
StartChar: N
Encoding: 78 78 78
Width: 1233
Flags: W
Fore
139 1493 m 1,0,-1
 395 1493 l 1,1,-1
 899 264 l 1,2,-1
 899 1493 l 1,3,-1
 1094 1493 l 1,4,-1
 1094 0 l 1,5,-1
 838 0 l 1,6,-1
 334 1229 l 1,7,-1
 334 0 l 1,8,-1
 139 0 l 1,9,-1
 139 1493 l 1,0,-1
EndSplineSet
EndChar
StartChar: O
Encoding: 79 79 79
Width: 1233
Flags: W
Fore
905 745 m 0,0,1
 905 1074 905 1074 837.5 1215 c 128,-1,2
 770 1356 770 1356 616 1356 c 0,3,4
 463 1356 463 1356 395.5 1215 c 128,-1,5
 328 1074 328 1074 328 745 c 0,6,7
 328 417 328 417 395.5 276 c 128,-1,8
 463 135 463 135 616 135 c 0,9,10
 770 135 770 135 837.5 275.5 c 128,-1,11
 905 416 905 416 905 745 c 0,0,1
1116 745 m 0,12,13
 1116 355 1116 355 992.5 163 c 128,-1,14
 869 -29 869 -29 616 -29 c 0,15,16
 363 -29 363 -29 240 162 c 128,-1,17
 117 353 117 353 117 745 c 0,18,19
 117 1136 117 1136 240.5 1328 c 128,-1,20
 364 1520 364 1520 616 1520 c 0,21,22
 869 1520 869 1520 992.5 1328 c 128,-1,23
 1116 1136 1116 1136 1116 745 c 0,12,13
EndSplineSet
EndChar
StartChar: P
Encoding: 80 80 80
Width: 1233
Flags: W
Fore
399 1327 m 1,0,-1
 399 766 l 1,1,-1
 633 766 l 2,2,3
 773 766 773 766 851.5 840 c 128,-1,4
 930 914 930 914 930 1047 c 0,5,6
 930 1180 930 1180 852 1253.5 c 128,-1,7
 774 1327 774 1327 633 1327 c 2,8,-1
 399 1327 l 1,0,-1
197 1493 m 1,9,-1
 633 1493 l 2,10,11
 883 1493 883 1493 1012 1379.5 c 128,-1,12
 1141 1266 1141 1266 1141 1047 c 0,13,14
 1141 826 1141 826 1012.5 713 c 128,-1,15
 884 600 884 600 633 600 c 2,16,-1
 399 600 l 1,17,-1
 399 0 l 1,18,-1
 197 0 l 1,19,-1
 197 1493 l 1,9,-1
EndSplineSet
EndChar
StartChar: Q
Encoding: 81 81 81
Width: 1233
Flags: W
Fore
655 -27 m 1,0,1
 648 -27 648 -27 635 -28 c 128,-1,2
 622 -29 622 -29 614 -29 c 0,3,4
 364 -29 364 -29 240.5 163 c 128,-1,5
 117 355 117 355 117 745 c 0,6,7
 117 1136 117 1136 240.5 1328 c 128,-1,8
 364 1520 364 1520 616 1520 c 0,9,10
 869 1520 869 1520 992.5 1328 c 128,-1,11
 1116 1136 1116 1136 1116 745 c 0,12,13
 1116 451 1116 451 1047.5 271.5 c 128,-1,14
 979 92 979 92 840 20 c 1,15,-1
 1040 -170 l 1,16,-1
 889 -270 l 1,17,-1
 655 -27 l 1,0,1
905 745 m 0,18,19
 905 1074 905 1074 837.5 1215 c 128,-1,20
 770 1356 770 1356 616 1356 c 0,21,22
 463 1356 463 1356 395.5 1215 c 128,-1,23
 328 1074 328 1074 328 745 c 0,24,25
 328 417 328 417 395.5 276 c 128,-1,26
 463 135 463 135 616 135 c 0,27,28
 770 135 770 135 837.5 275.5 c 128,-1,29
 905 416 905 416 905 745 c 0,18,19
EndSplineSet
EndChar
StartChar: R
Encoding: 82 82 82
Width: 1233
Flags: W
Fore
760 705 m 1,0,1
 838 685 838 685 893 629.5 c 128,-1,2
 948 574 948 574 1030 408 c 2,3,-1
 1233 0 l 1,4,-1
 1016 0 l 1,5,-1
 838 377 l 1,6,7
 761 538 761 538 699.5 584.5 c 128,-1,8
 638 631 638 631 539 631 c 2,9,-1
 346 631 l 1,10,-1
 346 0 l 1,11,-1
 143 0 l 1,12,-1
 143 1493 l 1,13,-1
 559 1493 l 2,14,15
 805 1493 805 1493 936 1382 c 128,-1,16
 1067 1271 1067 1271 1067 1061 c 0,17,18
 1067 913 1067 913 986.5 819.5 c 128,-1,19
 906 726 906 726 760 705 c 1,0,1
346 1327 m 1,20,-1
 346 797 l 1,21,-1
 567 797 l 2,22,23
 712 797 712 797 783 862 c 128,-1,24
 854 927 854 927 854 1061 c 0,25,26
 854 1190 854 1190 778.5 1258.5 c 128,-1,27
 703 1327 703 1327 559 1327 c 2,28,-1
 346 1327 l 1,20,-1
EndSplineSet
EndChar
StartChar: S
Encoding: 83 83 83
Width: 1233
Flags: W
Fore
1012 1442 m 1,0,-1
 1012 1237 l 1,1,2
 920 1296 920 1296 827.5 1326 c 128,-1,3
 735 1356 735 1356 641 1356 c 0,4,5
 498 1356 498 1356 415 1289.5 c 128,-1,6
 332 1223 332 1223 332 1110 c 0,7,8
 332 1011 332 1011 386.5 959 c 128,-1,9
 441 907 441 907 590 872 c 2,10,-1
 696 848 l 2,11,12
 906 799 906 799 1002 694 c 128,-1,13
 1098 589 1098 589 1098 408 c 0,14,15
 1098 195 1098 195 966 83 c 128,-1,16
 834 -29 834 -29 582 -29 c 0,17,18
 477 -29 477 -29 371 -6.5 c 128,-1,19
 265 16 265 16 158 61 c 1,20,-1
 158 276 l 1,21,22
 273 203 273 203 375.5 169 c 128,-1,23
 478 135 478 135 582 135 c 0,24,25
 735 135 735 135 820 203.5 c 128,-1,26
 905 272 905 272 905 395 c 0,27,28
 905 507 905 507 846.5 566 c 128,-1,29
 788 625 788 625 643 657 c 2,30,-1
 535 682 l 2,31,32
 327 729 327 729 233 824 c 128,-1,33
 139 919 139 919 139 1079 c 0,34,35
 139 1279 139 1279 273.5 1399.5 c 128,-1,36
 408 1520 408 1520 631 1520 c 0,37,38
 717 1520 717 1520 812 1500.5 c 128,-1,39
 907 1481 907 1481 1012 1442 c 1,0,-1
EndSplineSet
EndChar
StartChar: T
Encoding: 84 84 84
Width: 1233
Flags: W
Fore
47 1493 m 1,0,-1
 1186 1493 l 1,1,-1
 1186 1323 l 1,2,-1
 719 1323 l 1,3,-1
 719 0 l 1,4,-1
 516 0 l 1,5,-1
 516 1323 l 1,6,-1
 47 1323 l 1,7,-1
 47 1493 l 1,0,-1
EndSplineSet
EndChar
StartChar: U
Encoding: 85 85 85
Width: 1233
Flags: W
Fore
147 573 m 2,0,-1
 147 1493 l 1,1,-1
 350 1493 l 1,2,-1
 350 481 l 2,3,4
 350 372 350 372 356 325.5 c 128,-1,5
 362 279 362 279 377 254 c 1,6,7
 409 195 409 195 469.5 165 c 128,-1,8
 530 135 530 135 616 135 c 0,9,10
 703 135 703 135 763 165 c 128,-1,11
 823 195 823 195 856 254 c 0,12,13
 871 279 871 279 877 325 c 128,-1,14
 883 371 883 371 883 479 c 2,15,-1
 883 573 l 1,16,-1
 883 1493 l 1,17,-1
 1085 1493 l 1,18,-1
 1085 573 l 2,19,20
 1085 344 1085 344 1056.5 247.5 c 128,-1,21
 1028 151 1028 151 958 88 c 0,22,23
 892 29 892 29 807 0 c 128,-1,24
 722 -29 722 -29 616 -29 c 0,25,26
 511 -29 511 -29 426 0 c 128,-1,27
 341 29 341 29 274 88 c 0,28,29
 205 150 205 150 176 248.5 c 128,-1,30
 147 347 147 347 147 573 c 2,0,-1
EndSplineSet
EndChar
StartChar: V
Encoding: 86 86 86
Width: 1233
Flags: W
Fore
616 170 m 1,0,-1
 967 1493 l 1,1,-1
 1176 1493 l 1,2,-1
 739 0 l 1,3,-1
 494 0 l 1,4,-1
 57 1493 l 1,5,-1
 266 1493 l 1,6,-1
 616 170 l 1,0,-1
EndSplineSet
EndChar
StartChar: W
Encoding: 87 87 87
Width: 1233
Flags: W
Fore
0 1493 m 1,0,-1
 197 1493 l 1,1,-1
 340 281 l 1,2,-1
 510 1083 l 1,3,-1
 721 1083 l 1,4,-1
 893 279 l 1,5,-1
 1036 1493 l 1,6,-1
 1233 1493 l 1,7,-1
 1010 0 l 1,8,-1
 819 0 l 1,9,-1
 616 887 l 1,10,-1
 414 0 l 1,11,-1
 223 0 l 1,12,-1
 0 1493 l 1,0,-1
EndSplineSet
EndChar
StartChar: X
Encoding: 88 88 88
Width: 1233
Flags: W
Fore
86 1493 m 1,0,-1
 303 1493 l 1,1,-1
 631 930 l 1,2,-1
 965 1493 l 1,3,-1
 1182 1493 l 1,4,-1
 735 791 l 1,5,-1
 1214 0 l 1,6,-1
 997 0 l 1,7,-1
 631 643 l 1,8,-1
 236 0 l 1,9,-1
 18 0 l 1,10,-1
 518 791 l 1,11,-1
 86 1493 l 1,0,-1
EndSplineSet
EndChar
StartChar: Y
Encoding: 89 89 89
Width: 1233
Flags: W
Fore
37 1493 m 1,0,-1
 252 1493 l 1,1,-1
 616 834 l 1,2,-1
 979 1493 l 1,3,-1
 1196 1493 l 1,4,-1
 717 670 l 1,5,-1
 717 0 l 1,6,-1
 514 0 l 1,7,-1
 514 670 l 1,8,-1
 37 1493 l 1,0,-1
EndSplineSet
EndChar
StartChar: Z
Encoding: 90 90 90
Width: 1233
Flags: W
Fore
178 1493 m 1,0,-1
 1147 1493 l 1,1,-1
 1147 1339 l 1,2,-1
 367 170 l 1,3,-1
 1169 170 l 1,4,-1
 1169 0 l 1,5,-1
 156 0 l 1,6,-1
 156 154 l 1,7,-1
 915 1323 l 1,8,-1
 178 1323 l 1,9,-1
 178 1493 l 1,0,-1
EndSplineSet
EndChar
StartChar: bracketleft
Encoding: 91 91 91
Width: 1233
Flags: W
Fore
463 1556 m 1,0,-1
 887 1556 l 1,1,-1
 887 1413 l 1,2,-1
 647 1413 l 1,3,-1
 647 -127 l 1,4,-1
 887 -127 l 1,5,-1
 887 -270 l 1,6,-1
 463 -270 l 1,7,-1
 463 1556 l 1,0,-1
EndSplineSet
EndChar
StartChar: backslash
Encoding: 92 92 92
Width: 1233
Flags: W
Fore
293 1493 m 1,0,-1
 1079 -190 l 1,1,-1
 889 -190 l 1,2,-1
 102 1493 l 1,3,-1
 293 1493 l 1,0,-1
EndSplineSet
EndChar
StartChar: bracketright
Encoding: 93 93 93
Width: 1233
Flags: W
Fore
770 1556 m 1,0,-1
 770 -270 l 1,1,-1
 346 -270 l 1,2,-1
 346 -127 l 1,3,-1
 586 -127 l 1,4,-1
 586 1413 l 1,5,-1
 346 1413 l 1,6,-1
 346 1556 l 1,7,-1
 770 1556 l 1,0,-1
EndSplineSet
EndChar
StartChar: asciicircum
Encoding: 94 94 94
Width: 1233
Flags: W
Fore
705 1493 m 1,0,-1
 1161 936 l 1,1,-1
 983 936 l 1,2,-1
 616 1331 l 1,3,-1
 250 936 l 1,4,-1
 72 936 l 1,5,-1
 528 1493 l 1,6,-1
 705 1493 l 1,0,-1
EndSplineSet
EndChar
StartChar: underscore
Encoding: 95 95 95
Width: 1233
Flags: W
Fore
1024 -403 m 1,0,-1
 1024 -483 l 1,1,-1
 0 -483 l 1,2,-1
 0 -403 l 1,3,-1
 1024 -403 l 1,0,-1
EndSplineSet
EndChar
StartChar: grave
Encoding: 96 96 96
Width: 1233
Flags: W
Fore
477 1638 m 1,0,-1
 758 1262 l 1,1,-1
 604 1262 l 1,2,-1
 279 1638 l 1,3,-1
 477 1638 l 1,0,-1
EndSplineSet
EndChar
StartChar: a
Encoding: 97 97 97
Width: 1233
Flags: W
Fore
702 563 m 1,0,-1
 641 563 l 2,1,2
 480 563 480 563 398.5 506.5 c 128,-1,3
 317 450 317 450 317 338 c 0,4,5
 317 237 317 237 378 181 c 128,-1,6
 439 125 439 125 547 125 c 0,7,8
 699 125 699 125 786 230.5 c 128,-1,9
 873 336 873 336 874 522 c 1,10,-1
 874 563 l 1,11,-1
 702 563 l 1,0,-1
1059 639 m 2,12,-1
 1059 0 l 1,13,-1
 874 0 l 1,14,-1
 874 166 l 1,15,16
 815 66 815 66 725.5 18.5 c 128,-1,17
 636 -29 636 -29 508 -29 c 0,18,19
 337 -29 337 -29 235 67.5 c 128,-1,20
 133 164 133 164 133 326 c 0,21,22
 133 513 133 513 258.5 610 c 128,-1,23
 384 707 384 707 627 707 c 2,24,-1
 874 707 l 1,25,-1
 874 736 l 1,26,27
 873 870 873 870 806 930.5 c 128,-1,28
 739 991 739 991 592 991 c 0,29,30
 498 991 498 991 402 964 c 128,-1,31
 306 937 306 937 215 885 c 1,32,-1
 215 1069 l 1,33,34
 317 1108 317 1108 410.5 1127.5 c 128,-1,35
 504 1147 504 1147 592 1147 c 0,36,37
 731 1147 731 1147 829.5 1106 c 128,-1,38
 928 1065 928 1065 989 983 c 0,39,40
 1027 933 1027 933 1043 859.5 c 128,-1,41
 1059 786 1059 786 1059 639 c 2,12,-1
EndSplineSet
EndChar
StartChar: b
Encoding: 98 98 98
Width: 1233
Flags: W
Fore
918 559 m 0,0,1
 918 773 918 773 850 882 c 128,-1,2
 782 991 782 991 649 991 c 0,3,4
 515 991 515 991 446 881.5 c 128,-1,5
 377 772 377 772 377 559 c 0,6,7
 377 347 377 347 446 237 c 128,-1,8
 515 127 515 127 649 127 c 0,9,10
 782 127 782 127 850 236 c 128,-1,11
 918 345 918 345 918 559 c 0,0,1
377 977 m 1,12,13
 421 1059 421 1059 498.5 1103 c 128,-1,14
 576 1147 576 1147 678 1147 c 0,15,16
 880 1147 880 1147 996 991.5 c 128,-1,17
 1112 836 1112 836 1112 563 c 0,18,19
 1112 286 1112 286 995.5 128.5 c 128,-1,20
 879 -29 879 -29 676 -29 c 0,21,22
 576 -29 576 -29 499.5 14.5 c 128,-1,23
 423 58 423 58 377 141 c 1,24,-1
 377 0 l 1,25,-1
 193 0 l 1,26,-1
 193 1556 l 1,27,-1
 377 1556 l 1,28,-1
 377 977 l 1,12,13
EndSplineSet
EndChar
StartChar: c
Encoding: 99 99 99
Width: 1233
Flags: W
Fore
1061 57 m 1,0,1
 987 14 987 14 908.5 -7.5 c 128,-1,2
 830 -29 830 -29 748 -29 c 0,3,4
 488 -29 488 -29 341.5 127 c 128,-1,5
 195 283 195 283 195 559 c 0,6,7
 195 835 195 835 341.5 991 c 128,-1,8
 488 1147 488 1147 748 1147 c 0,9,10
 829 1147 829 1147 906 1126 c 128,-1,11
 983 1105 983 1105 1061 1061 c 1,12,-1
 1061 868 l 1,13,14
 988 933 988 933 914.5 962 c 128,-1,15
 841 991 841 991 748 991 c 0,16,17
 575 991 575 991 482 879 c 128,-1,18
 389 767 389 767 389 559 c 0,19,20
 389 352 389 352 482.5 239.5 c 128,-1,21
 576 127 576 127 748 127 c 0,22,23
 844 127 844 127 920 156.5 c 128,-1,24
 996 186 996 186 1061 248 c 1,25,-1
 1061 57 l 1,0,1
EndSplineSet
EndChar
StartChar: d
Encoding: 100 100 100
Width: 1233
Flags: W
Fore
858 977 m 1,0,-1
 858 1556 l 1,1,-1
 1042 1556 l 1,2,-1
 1042 0 l 1,3,-1
 858 0 l 1,4,-1
 858 141 l 1,5,6
 812 58 812 58 735.5 14.5 c 128,-1,7
 659 -29 659 -29 559 -29 c 0,8,9
 356 -29 356 -29 239.5 128.5 c 128,-1,10
 123 286 123 286 123 563 c 0,11,12
 123 836 123 836 240 991.5 c 128,-1,13
 357 1147 357 1147 559 1147 c 0,14,15
 660 1147 660 1147 737 1103.5 c 128,-1,16
 814 1060 814 1060 858 977 c 1,0,-1
317 559 m 0,17,18
 317 345 317 345 385 236 c 128,-1,19
 453 127 453 127 586 127 c 0,20,21
 719 127 719 127 788.5 237 c 128,-1,22
 858 347 858 347 858 559 c 0,23,24
 858 772 858 772 788.5 881.5 c 128,-1,25
 719 991 719 991 586 991 c 0,26,27
 453 991 453 991 385 882 c 128,-1,28
 317 773 317 773 317 559 c 0,17,18
EndSplineSet
EndChar
StartChar: e
Encoding: 101 101 101
Width: 1233
Flags: W
Fore
1112 606 m 2,0,-1
 1112 516 l 1,1,-1
 315 516 l 1,2,-1
 315 510 l 2,3,4
 315 327 315 327 410.5 227 c 128,-1,5
 506 127 506 127 680 127 c 0,6,7
 768 127 768 127 864 155 c 128,-1,8
 960 183 960 183 1069 240 c 1,9,-1
 1069 57 l 1,10,11
 964 14 964 14 866.5 -7.5 c 128,-1,12
 769 -29 769 -29 678 -29 c 0,13,14
 417 -29 417 -29 270 127.5 c 128,-1,15
 123 284 123 284 123 559 c 0,16,17
 123 827 123 827 267 987 c 128,-1,18
 411 1147 411 1147 651 1147 c 0,19,20
 865 1147 865 1147 988.5 1002 c 128,-1,21
 1112 857 1112 857 1112 606 c 2,0,-1
928 660 m 1,22,23
 924 822 924 822 851.5 906.5 c 128,-1,24
 779 991 779 991 643 991 c 0,25,26
 510 991 510 991 424 903 c 128,-1,27
 338 815 338 815 322 659 c 1,28,-1
 928 660 l 1,22,23
EndSplineSet
EndChar
StartChar: f
Encoding: 102 102 102
Width: 1233
Flags: W
Fore
1063 1556 m 1,0,-1
 1063 1403 l 1,1,-1
 854 1403 l 2,2,3
 755 1403 755 1403 716.5 1362.5 c 128,-1,4
 678 1322 678 1322 678 1219 c 2,5,-1
 678 1120 l 1,6,-1
 1063 1120 l 1,7,-1
 1063 977 l 1,8,-1
 678 977 l 1,9,-1
 678 0 l 1,10,-1
 494 0 l 1,11,-1
 494 977 l 1,12,-1
 195 977 l 1,13,-1
 195 1120 l 1,14,-1
 494 1120 l 1,15,-1
 494 1198 l 2,16,17
 494 1382 494 1382 578.5 1469 c 128,-1,18
 663 1556 663 1556 842 1556 c 2,19,-1
 1063 1556 l 1,0,-1
EndSplineSet
EndChar
StartChar: g
Encoding: 103 103 103
Width: 1233
Flags: W
Fore
858 569 m 0,0,1
 858 776 858 776 790.5 883.5 c 128,-1,2
 723 991 723 991 594 991 c 0,3,4
 459 991 459 991 388 883.5 c 128,-1,5
 317 776 317 776 317 569 c 0,6,7
 317 362 317 362 388.5 253.5 c 128,-1,8
 460 145 460 145 596 145 c 0,9,10
 723 145 723 145 790.5 254 c 128,-1,11
 858 363 858 363 858 569 c 0,0,1
1042 72 m 2,12,13
 1042 -180 1042 -180 923 -310 c 128,-1,14
 804 -440 804 -440 573 -440 c 0,15,16
 497 -440 497 -440 414 -426 c 128,-1,17
 331 -412 331 -412 248 -385 c 1,18,-1
 248 -203 l 1,19,20
 346 -249 346 -249 426 -271 c 128,-1,21
 506 -293 506 -293 573 -293 c 0,22,23
 722 -293 722 -293 790 -212 c 128,-1,24
 858 -131 858 -131 858 45 c 2,25,-1
 858 53 l 1,26,-1
 858 178 l 1,27,28
 814 84 814 84 738 38 c 128,-1,29
 662 -8 662 -8 553 -8 c 0,30,31
 357 -8 357 -8 240 149 c 128,-1,32
 123 306 123 306 123 569 c 0,33,34
 123 833 123 833 240 990 c 128,-1,35
 357 1147 357 1147 553 1147 c 0,36,37
 661 1147 661 1147 736 1104 c 128,-1,38
 811 1061 811 1061 858 971 c 1,39,-1
 858 1116 l 1,40,-1
 1042 1116 l 1,41,-1
 1042 72 l 2,12,13
EndSplineSet
EndChar
StartChar: h
Encoding: 104 104 104
Width: 1233
Flags: W
Fore
1051 694 m 2,0,-1
 1051 0 l 1,1,-1
 866 0 l 1,2,-1
 866 694 l 2,3,4
 866 845 866 845 813 916 c 128,-1,5
 760 987 760 987 647 987 c 0,6,7
 518 987 518 987 448.5 895.5 c 128,-1,8
 379 804 379 804 379 633 c 2,9,-1
 379 0 l 1,10,-1
 195 0 l 1,11,-1
 195 1556 l 1,12,-1
 379 1556 l 1,13,-1
 379 952 l 1,14,15
 428 1048 428 1048 512 1097.5 c 128,-1,16
 596 1147 596 1147 711 1147 c 0,17,18
 882 1147 882 1147 966.5 1034.5 c 128,-1,19
 1051 922 1051 922 1051 694 c 2,0,-1
EndSplineSet
EndChar
StartChar: i
Encoding: 105 105 105
Width: 1233
Flags: W
Fore
256 1120 m 1,0,-1
 727 1120 l 1,1,-1
 727 143 l 1,2,-1
 1092 143 l 1,3,-1
 1092 0 l 1,4,-1
 178 0 l 1,5,-1
 178 143 l 1,6,-1
 543 143 l 1,7,-1
 543 977 l 1,8,-1
 256 977 l 1,9,-1
 256 1120 l 1,0,-1
543 1556 m 1,10,-1
 727 1556 l 1,11,-1
 727 1323 l 1,12,-1
 543 1323 l 1,13,-1
 543 1556 l 1,10,-1
EndSplineSet
EndChar
StartChar: j
Encoding: 106 106 106
Width: 1233
Flags: W
Fore
600 -20 m 2,0,-1
 600 977 l 1,1,-1
 283 977 l 1,2,-1
 283 1120 l 1,3,-1
 784 1120 l 1,4,-1
 784 -20 l 2,5,6
 784 -215 784 -215 694.5 -320.5 c 128,-1,7
 605 -426 605 -426 440 -426 c 2,8,-1
 186 -426 l 1,9,-1
 186 -270 l 1,10,-1
 420 -270 l 2,11,12
 510 -270 510 -270 555 -207.5 c 128,-1,13
 600 -145 600 -145 600 -20 c 2,0,-1
600 1556 m 1,14,-1
 784 1556 l 1,15,-1
 784 1323 l 1,16,-1
 600 1323 l 1,17,-1
 600 1556 l 1,14,-1
EndSplineSet
EndChar
StartChar: k
Encoding: 107 107 107
Width: 1233
Flags: W
Fore
236 1556 m 1,0,-1
 426 1556 l 1,1,-1
 426 655 l 1,2,-1
 909 1120 l 1,3,-1
 1133 1120 l 1,4,-1
 692 698 l 1,5,-1
 1202 0 l 1,6,-1
 977 0 l 1,7,-1
 563 578 l 1,8,-1
 426 449 l 1,9,-1
 426 0 l 1,10,-1
 236 0 l 1,11,-1
 236 1556 l 1,0,-1
EndSplineSet
EndChar
StartChar: l
Encoding: 108 108 108
Width: 1233
Flags: W
Fore
639 406 m 2,0,1
 639 282 639 282 684.5 219 c 128,-1,2
 730 156 730 156 819 156 c 2,3,-1
 1034 156 l 1,4,-1
 1034 0 l 1,5,-1
 801 0 l 2,6,7
 636 0 636 0 545.5 106 c 128,-1,8
 455 212 455 212 455 406 c 2,9,-1
 455 1423 l 1,10,-1
 160 1423 l 1,11,-1
 160 1567 l 1,12,-1
 639 1567 l 1,13,-1
 639 406 l 2,0,1
EndSplineSet
EndChar
StartChar: m
Encoding: 109 109 109
Width: 1233
Flags: W
Fore
676 1006 m 1,0,1
 710 1078 710 1078 762.5 1112.5 c 128,-1,2
 815 1147 815 1147 889 1147 c 0,3,4
 1024 1147 1024 1147 1079.5 1042.5 c 128,-1,5
 1135 938 1135 938 1135 649 c 2,6,-1
 1135 0 l 1,7,-1
 967 0 l 1,8,-1
 967 641 l 2,9,10
 967 878 967 878 940.5 935.5 c 128,-1,11
 914 993 914 993 844 993 c 0,12,13
 764 993 764 993 734.5 931.5 c 128,-1,14
 705 870 705 870 705 641 c 2,15,-1
 705 0 l 1,16,-1
 537 0 l 1,17,-1
 537 641 l 2,18,19
 537 881 537 881 508.5 937 c 128,-1,20
 480 993 480 993 406 993 c 0,21,22
 333 993 333 993 304.5 931.5 c 128,-1,23
 276 870 276 870 276 641 c 2,24,-1
 276 0 l 1,25,-1
 109 0 l 1,26,-1
 109 1120 l 1,27,-1
 276 1120 l 1,28,-1
 276 1024 l 1,29,30
 309 1084 309 1084 358.5 1115.5 c 128,-1,31
 408 1147 408 1147 471 1147 c 0,32,33
 547 1147 547 1147 597.5 1112 c 128,-1,34
 648 1077 648 1077 676 1006 c 1,0,1
EndSplineSet
EndChar
StartChar: n
Encoding: 110 110 110
Width: 1233
Flags: W
Fore
1051 694 m 2,0,-1
 1051 0 l 1,1,-1
 866 0 l 1,2,-1
 866 694 l 2,3,4
 866 845 866 845 813 916 c 128,-1,5
 760 987 760 987 647 987 c 0,6,7
 518 987 518 987 448.5 895.5 c 128,-1,8
 379 804 379 804 379 633 c 2,9,-1
 379 0 l 1,10,-1
 195 0 l 1,11,-1
 195 1120 l 1,12,-1
 379 1120 l 1,13,-1
 379 952 l 1,14,15
 428 1048 428 1048 512 1097.5 c 128,-1,16
 596 1147 596 1147 711 1147 c 0,17,18
 882 1147 882 1147 966.5 1034.5 c 128,-1,19
 1051 922 1051 922 1051 694 c 2,0,-1
EndSplineSet
EndChar
StartChar: o
Encoding: 111 111 111
Width: 1233
Flags: W
Fore
616 991 m 0,0,1
 476 991 476 991 404 882 c 128,-1,2
 332 773 332 773 332 559 c 0,3,4
 332 346 332 346 404 236.5 c 128,-1,5
 476 127 476 127 616 127 c 0,6,7
 757 127 757 127 829 236.5 c 128,-1,8
 901 346 901 346 901 559 c 0,9,10
 901 773 901 773 829 882 c 128,-1,11
 757 991 757 991 616 991 c 0,0,1
616 1147 m 0,12,13
 849 1147 849 1147 972.5 996 c 128,-1,14
 1096 845 1096 845 1096 559 c 0,15,16
 1096 272 1096 272 973 121.5 c 128,-1,17
 850 -29 850 -29 616 -29 c 0,18,19
 383 -29 383 -29 260 121.5 c 128,-1,20
 137 272 137 272 137 559 c 0,21,22
 137 845 137 845 260 996 c 128,-1,23
 383 1147 383 1147 616 1147 c 0,12,13
EndSplineSet
EndChar
StartChar: p
Encoding: 112 112 112
Width: 1233
Flags: W
Fore
375 141 m 1,0,-1
 375 -426 l 1,1,-1
 190 -426 l 1,2,-1
 190 1120 l 1,3,-1
 375 1120 l 1,4,-1
 375 977 l 1,5,6
 421 1060 421 1060 497.5 1103.5 c 128,-1,7
 574 1147 574 1147 674 1147 c 0,8,9
 877 1147 877 1147 992.5 990 c 128,-1,10
 1108 833 1108 833 1108 555 c 0,11,12
 1108 282 1108 282 992 126.5 c 128,-1,13
 876 -29 876 -29 674 -29 c 0,14,15
 572 -29 572 -29 495.5 14.5 c 128,-1,16
 419 58 419 58 375 141 c 1,0,-1
915 559 m 0,17,18
 915 773 915 773 847.5 882 c 128,-1,19
 780 991 780 991 647 991 c 0,20,21
 513 991 513 991 444 881.5 c 128,-1,22
 375 772 375 772 375 559 c 0,23,24
 375 347 375 347 444 237 c 128,-1,25
 513 127 513 127 647 127 c 0,26,27
 780 127 780 127 847.5 236 c 128,-1,28
 915 345 915 345 915 559 c 0,17,18
EndSplineSet
EndChar
StartChar: q
Encoding: 113 113 113
Width: 1233
Flags: W
Fore
332 555 m 0,0,1
 332 341 332 341 399.5 232 c 128,-1,2
 467 123 467 123 600 123 c 0,3,4
 733 123 733 123 801.5 232.5 c 128,-1,5
 870 342 870 342 870 555 c 0,6,7
 870 768 870 768 801.5 877.5 c 128,-1,8
 733 987 733 987 600 987 c 0,9,10
 467 987 467 987 399.5 878 c 128,-1,11
 332 769 332 769 332 555 c 0,0,1
870 139 m 1,12,13
 825 56 825 56 748.5 11.5 c 128,-1,14
 672 -33 672 -33 571 -33 c 0,15,16
 370 -33 370 -33 253.5 122.5 c 128,-1,17
 137 278 137 278 137 551 c 0,18,19
 137 829 137 829 253 986 c 128,-1,20
 369 1143 369 1143 571 1143 c 0,21,22
 671 1143 671 1143 747.5 1099.5 c 128,-1,23
 824 1056 824 1056 870 973 c 1,24,-1
 870 1116 l 1,25,-1
 1055 1116 l 1,26,-1
 1055 -430 l 1,27,-1
 870 -430 l 1,28,-1
 870 139 l 1,12,13
EndSplineSet
EndChar
StartChar: r
Encoding: 114 114 114
Width: 1233
Flags: W
Fore
1155 889 m 1,0,1
 1096 935 1096 935 1035 956 c 128,-1,2
 974 977 974 977 901 977 c 0,3,4
 729 977 729 977 638 869 c 128,-1,5
 547 761 547 761 547 557 c 2,6,-1
 547 0 l 1,7,-1
 362 0 l 1,8,-1
 362 1120 l 1,9,-1
 547 1120 l 1,10,-1
 547 901 l 1,11,12
 593 1020 593 1020 688.5 1083.5 c 128,-1,13
 784 1147 784 1147 915 1147 c 0,14,15
 983 1147 983 1147 1042 1130 c 128,-1,16
 1101 1113 1101 1113 1155 1077 c 1,17,-1
 1155 889 l 1,0,1
EndSplineSet
EndChar
StartChar: s
Encoding: 115 115 115
Width: 1233
Flags: W
Fore
973 1081 m 1,0,-1
 973 901 l 1,1,2
 894 947 894 947 814 970 c 128,-1,3
 734 993 734 993 651 993 c 0,4,5
 526 993 526 993 464.5 952.5 c 128,-1,6
 403 912 403 912 403 829 c 0,7,8
 403 754 403 754 449 717 c 128,-1,9
 495 680 495 680 678 645 c 2,10,-1
 752 631 l 2,11,12
 889 605 889 605 959.5 527 c 128,-1,13
 1030 449 1030 449 1030 324 c 0,14,15
 1030 158 1030 158 912 64.5 c 128,-1,16
 794 -29 794 -29 584 -29 c 0,17,18
 501 -29 501 -29 410 -11.5 c 128,-1,19
 319 6 319 6 213 41 c 1,20,-1
 213 231 l 1,21,22
 316 178 316 178 410 151.5 c 128,-1,23
 504 125 504 125 588 125 c 0,24,25
 710 125 710 125 777 174.5 c 128,-1,26
 844 224 844 224 844 313 c 0,27,28
 844 441 844 441 599 490 c 2,29,-1
 591 492 l 1,30,-1
 522 506 l 2,31,32
 363 537 363 537 290 610.5 c 128,-1,33
 217 684 217 684 217 811 c 0,34,35
 217 972 217 972 326 1059.5 c 128,-1,36
 435 1147 435 1147 637 1147 c 0,37,38
 727 1147 727 1147 810 1130.5 c 128,-1,39
 893 1114 893 1114 973 1081 c 1,0,-1
EndSplineSet
EndChar
StartChar: t
Encoding: 116 116 116
Width: 1233
Flags: W
Fore
614 1438 m 1,0,-1
 614 1120 l 1,1,-1
 1032 1120 l 1,2,-1
 1032 977 l 1,3,-1
 614 977 l 1,4,-1
 614 369 l 2,5,6
 614 245 614 245 661 196 c 128,-1,7
 708 147 708 147 825 147 c 2,8,-1
 1032 147 l 1,9,-1
 1032 0 l 1,10,-1
 807 0 l 2,11,12
 600 0 600 0 515 83 c 128,-1,13
 430 166 430 166 430 369 c 2,14,-1
 430 977 l 1,15,-1
 131 977 l 1,16,-1
 131 1120 l 1,17,-1
 430 1120 l 1,18,-1
 430 1438 l 1,19,-1
 614 1438 l 1,0,-1
EndSplineSet
EndChar
StartChar: u
Encoding: 117 117 117
Width: 1233
Flags: W
Fore
195 424 m 2,0,-1
 195 1118 l 1,1,-1
 379 1118 l 1,2,-1
 379 424 l 2,3,4
 379 273 379 273 432.5 202 c 128,-1,5
 486 131 486 131 598 131 c 0,6,7
 728 131 728 131 797 222.5 c 128,-1,8
 866 314 866 314 866 485 c 2,9,-1
 866 1118 l 1,10,-1
 1051 1118 l 1,11,-1
 1051 0 l 1,12,-1
 866 0 l 1,13,-1
 866 168 l 1,14,15
 817 71 817 71 732.5 21 c 128,-1,16
 648 -29 648 -29 535 -29 c 0,17,18
 363 -29 363 -29 279 83.5 c 128,-1,19
 195 196 195 196 195 424 c 2,0,-1
EndSplineSet
EndChar
StartChar: v
Encoding: 118 118 118
Width: 1233
Flags: W
Fore
100 1120 m 1,0,-1
 291 1120 l 1,1,-1
 616 180 l 1,2,-1
 942 1120 l 1,3,-1
 1133 1120 l 1,4,-1
 735 0 l 1,5,-1
 498 0 l 1,6,-1
 100 1120 l 1,0,-1
EndSplineSet
EndChar
StartChar: w
Encoding: 119 119 119
Width: 1233
Flags: W
Fore
0 1120 m 1,0,-1
 182 1120 l 1,1,-1
 377 215 l 1,2,-1
 537 793 l 1,3,-1
 694 793 l 1,4,-1
 856 215 l 1,5,-1
 1051 1120 l 1,6,-1
 1233 1120 l 1,7,-1
 971 0 l 1,8,-1
 795 0 l 1,9,-1
 616 614 l 1,10,-1
 438 0 l 1,11,-1
 262 0 l 1,12,-1
 0 1120 l 1,0,-1
EndSplineSet
EndChar
StartChar: x
Encoding: 120 120 120
Width: 1233
Flags: W
Fore
1118 1120 m 1,0,-1
 717 584 l 1,1,-1
 1157 0 l 1,2,-1
 944 0 l 1,3,-1
 616 449 l 1,4,-1
 289 0 l 1,5,-1
 76 0 l 1,6,-1
 516 584 l 1,7,-1
 115 1120 l 1,8,-1
 319 1120 l 1,9,-1
 616 715 l 1,10,-1
 911 1120 l 1,11,-1
 1118 1120 l 1,0,-1
EndSplineSet
EndChar
StartChar: y
Encoding: 121 121 121
Width: 1233
Flags: W
Fore
858 360 m 1,0,1
 812 243 812 243 741 52 c 0,2,3
 642 -212 642 -212 608 -270 c 0,4,5
 562 -348 562 -348 493 -387 c 128,-1,6
 424 -426 424 -426 332 -426 c 2,7,-1
 184 -426 l 1,8,-1
 184 -272 l 1,9,-1
 293 -272 l 2,10,11
 374 -272 374 -272 420 -225 c 128,-1,12
 466 -178 466 -178 537 18 c 1,13,-1
 104 1120 l 1,14,-1
 299 1120 l 1,15,-1
 631 244 l 1,16,-1
 958 1120 l 1,17,-1
 1153 1120 l 1,18,-1
 858 360 l 1,0,1
EndSplineSet
EndChar
StartChar: z
Encoding: 122 122 122
Width: 1233
Flags: W
Fore
227 1122 m 1,0,-1
 1040 1122 l 1,1,-1
 1040 954 l 1,2,-1
 397 150 l 1,3,-1
 1040 150 l 1,4,-1
 1040 0 l 1,5,-1
 203 0 l 1,6,-1
 203 170 l 1,7,-1
 846 975 l 1,8,-1
 227 975 l 1,9,-1
 227 1122 l 1,0,-1
EndSplineSet
EndChar
StartChar: braceleft
Encoding: 123 123 123
Width: 1233
Flags: W
Fore
1012 -190 m 1,0,-1
 1012 -334 l 1,1,-1
 948 -334 l 2,2,3
 699 -334 699 -334 614.5 -260 c 128,-1,4
 530 -186 530 -186 530 35 c 2,5,-1
 530 274 l 2,6,7
 530 425 530 425 476.5 483 c 128,-1,8
 423 541 423 541 283 541 c 2,9,-1
 221 541 l 1,10,-1
 221 684 l 1,11,-1
 283 684 l 2,12,13
 424 684 424 684 477 741 c 128,-1,14
 530 798 530 798 530 948 c 2,15,-1
 530 1188 l 2,16,17
 530 1409 530 1409 614.5 1482.5 c 128,-1,18
 699 1556 699 1556 948 1556 c 2,19,-1
 1012 1556 l 1,20,-1
 1012 1413 l 1,21,-1
 942 1413 l 2,22,23
 802 1413 802 1413 759.5 1369.5 c 128,-1,24
 717 1326 717 1326 717 1184 c 2,25,-1
 717 936 l 2,26,27
 717 779 717 779 671.5 708 c 128,-1,28
 626 637 626 637 516 612 c 1,29,30
 627 585 627 585 672 514 c 128,-1,31
 717 443 717 443 717 287 c 2,32,-1
 717 39 l 2,33,34
 717 -104 717 -104 759.5 -147 c 128,-1,35
 802 -190 802 -190 942 -190 c 2,36,-1
 1012 -190 l 1,0,-1
EndSplineSet
EndChar
StartChar: bar
Encoding: 124 124 124
Width: 1233
Flags: W
Fore
702 1565 m 1,0,-1
 702 -483 l 1,1,-1
 530 -483 l 1,2,-1
 530 1565 l 1,3,-1
 702 1565 l 1,0,-1
EndSplineSet
EndChar
StartChar: braceright
Encoding: 125 125 125
Width: 1233
Flags: W
Fore
221 -190 m 1,0,-1
 289 -190 l 2,1,2
 430 -190 430 -190 473 -146 c 128,-1,3
 516 -102 516 -102 516 39 c 2,4,-1
 516 287 l 2,5,6
 516 443 516 443 561 514 c 128,-1,7
 606 585 606 585 717 612 c 1,8,9
 607 637 607 637 561.5 708 c 128,-1,10
 516 779 516 779 516 936 c 2,11,-1
 516 1184 l 2,12,13
 516 1325 516 1325 473 1369 c 128,-1,14
 430 1413 430 1413 289 1413 c 2,15,-1
 221 1413 l 1,16,-1
 221 1556 l 1,17,-1
 283 1556 l 2,18,19
 532 1556 532 1556 616 1482.5 c 128,-1,20
 700 1409 700 1409 700 1188 c 2,21,-1
 700 948 l 2,22,23
 700 798 700 798 753.5 741 c 128,-1,24
 807 684 807 684 948 684 c 2,25,-1
 1012 684 l 1,26,-1
 1012 541 l 1,27,-1
 948 541 l 2,28,29
 807 541 807 541 753.5 483 c 128,-1,30
 700 425 700 425 700 274 c 2,31,-1
 700 35 l 2,32,33
 700 -186 700 -186 616 -260 c 128,-1,34
 532 -334 532 -334 283 -334 c 2,35,-1
 221 -334 l 1,36,-1
 221 -190 l 1,0,-1
EndSplineSet
EndChar
StartChar: asciitilde
Encoding: 126 126 126
Width: 1233
Flags: W
Fore
1145 780 m 1,0,-1
 1145 606 l 1,1,2
 1070 547 1070 547 998.5 519.5 c 128,-1,3
 927 492 927 492 848 492 c 0,4,5
 758 492 758 492 645 543 c 0,6,7
 623 553 623 553 612 557 c 0,8,9
 535 590 535 590 483.5 602 c 128,-1,10
 432 614 432 614 381 614 c 0,11,12
 302 614 302 614 231.5 584.5 c 128,-1,13
 161 555 161 555 88 492 c 1,14,-1
 88 666 l 1,15,16
 166 726 166 726 239 753 c 128,-1,17
 312 780 312 780 395 780 c 0,18,19
 448 780 448 780 498 769 c 128,-1,20
 548 758 548 758 622 727 c 0,21,22
 634 722 634 722 655 712 c 0,23,24
 771 657 771 657 864 657 c 0,25,26
 934 657 934 657 1002.5 687.5 c 128,-1,27
 1071 718 1071 718 1145 780 c 1,0,-1
EndSplineSet
EndChar
StartChar: exclamdown
Encoding: 161 161 161
Width: 1233
Flags: W
Fore
516 1239 m 1,0,-1
 516 1493 l 1,1,-1
 719 1493 l 1,2,-1
 719 1239 l 1,3,-1
 516 1239 l 1,0,-1
516 0 m 1,4,-1
 516 655 l 1,5,-1
 537 1012 l 1,6,-1
 698 1012 l 1,7,-1
 719 655 l 1,8,-1
 719 0 l 1,9,-1
 516 0 l 1,4,-1
EndSplineSet
EndChar
StartChar: cent
Encoding: 162 162 162
Width: 1233
Flags: W
Fore
1061 1077 m 1,0,-1
 1061 905 l 1,1,2
 994 945 994 945 929 967 c 128,-1,3
 864 989 864 989 801 993 c 1,4,-1
 801 123 l 1,5,6
 864 128 864 128 929.5 150.5 c 128,-1,7
 995 173 995 173 1061 213 c 1,8,-1
 1061 41 l 1,9,10
 988 10 988 10 923 -7 c 128,-1,11
 858 -24 858 -24 801 -27 c 1,12,-1
 801 -313 l 1,13,-1
 698 -313 l 1,14,-1
 698 -27 l 1,15,16
 473 -5 473 -5 343 151.5 c 128,-1,17
 213 308 213 308 213 559 c 0,18,19
 213 809 213 809 344.5 967.5 c 128,-1,20
 476 1126 476 1126 698 1145 c 1,21,-1
 698 1432 l 1,22,-1
 801 1432 l 1,23,-1
 801 1145 l 1,24,25
 858 1142 858 1142 923 1125 c 128,-1,26
 988 1108 988 1108 1061 1077 c 1,0,-1
698 127 m 1,27,-1
 698 991 l 1,28,29
 566 979 566 979 486 861 c 128,-1,30
 406 743 406 743 406 559 c 0,31,32
 406 375 406 375 486 257.5 c 128,-1,33
 566 140 566 140 698 127 c 1,27,-1
EndSplineSet
EndChar
StartChar: sterling
Encoding: 163 163 163
Width: 1233
Flags: W
Fore
1092 1462 m 1,0,-1
 1092 1278 l 1,1,2
 1030 1322 1030 1322 966.5 1344 c 128,-1,3
 903 1366 903 1366 836 1366 c 0,4,5
 702 1366 702 1366 638.5 1276.5 c 128,-1,6
 575 1187 575 1187 575 995 c 2,7,-1
 575 778 l 1,8,-1
 946 778 l 1,9,-1
 946 635 l 1,10,-1
 575 635 l 1,11,-1
 575 170 l 1,12,-1
 1112 170 l 1,13,-1
 1112 0 l 1,14,-1
 139 0 l 1,15,-1
 139 170 l 1,16,-1
 375 170 l 1,17,-1
 375 635 l 1,18,-1
 176 635 l 1,19,-1
 176 778 l 1,20,-1
 375 778 l 1,21,-1
 375 1016 l 2,22,23
 375 1270 375 1270 484.5 1395 c 128,-1,24
 594 1520 594 1520 817 1520 c 0,25,26
 882 1520 882 1520 950.5 1505.5 c 128,-1,27
 1019 1491 1019 1491 1092 1462 c 1,0,-1
EndSplineSet
EndChar
StartChar: currency
Encoding: 164 164 164
Width: 1233
Flags: W
Fore
868 643 m 0,0,1
 868 733 868 733 806 794.5 c 128,-1,2
 744 856 744 856 653 856 c 0,3,4
 563 856 563 856 500.5 794.5 c 128,-1,5
 438 733 438 733 438 643 c 0,6,7
 438 551 438 551 500.5 488.5 c 128,-1,8
 563 426 563 426 653 426 c 0,9,10
 744 426 744 426 806 489 c 128,-1,11
 868 552 868 552 868 643 c 0,0,1
844 924 m 1,12,-1
 1010 1090 l 1,13,-1
 1100 997 l 1,14,-1
 934 831 l 1,15,16
 964 782 964 782 978.5 735.5 c 128,-1,17
 993 689 993 689 993 641 c 0,18,19
 993 591 993 591 978 545.5 c 128,-1,20
 963 500 963 500 932 455 c 1,21,-1
 1100 289 l 1,22,-1
 1006 195 l 1,23,-1
 840 362 l 1,24,25
 794 331 794 331 748.5 316 c 128,-1,26
 703 301 703 301 653 301 c 0,27,28
 605 301 605 301 557 315.5 c 128,-1,29
 509 330 509 330 461 358 c 1,30,-1
 297 195 l 1,31,-1
 205 285 l 1,32,-1
 371 451 l 1,33,34
 340 502 340 502 325.5 548.5 c 128,-1,35
 311 595 311 595 311 641 c 0,36,37
 311 691 311 691 326.5 737.5 c 128,-1,38
 342 784 342 784 373 829 c 1,39,-1
 205 995 l 1,40,-1
 299 1090 l 1,41,-1
 465 922 l 1,42,43
 511 953 511 953 556.5 968 c 128,-1,44
 602 983 602 983 653 983 c 0,45,46
 699 983 699 983 746 968.5 c 128,-1,47
 793 954 793 954 844 924 c 1,12,-1
EndSplineSet
EndChar
StartChar: yen
Encoding: 165 165 165
Width: 1233
Flags: W
Fore
37 1493 m 1,0,-1
 252 1493 l 1,1,-1
 616 834 l 1,2,-1
 979 1493 l 1,3,-1
 1196 1493 l 1,4,-1
 866 932 l 1,5,-1
 1118 932 l 1,6,-1
 1118 821 l 1,7,-1
 803 821 l 1,8,-1
 717 670 l 1,9,-1
 717 635 l 1,10,-1
 1118 635 l 1,11,-1
 1118 524 l 1,12,-1
 717 524 l 1,13,-1
 717 0 l 1,14,-1
 514 0 l 1,15,-1
 514 524 l 1,16,-1
 115 524 l 1,17,-1
 115 635 l 1,18,-1
 514 635 l 1,19,-1
 514 670 l 1,20,-1
 424 821 l 1,21,-1
 115 821 l 1,22,-1
 115 932 l 1,23,-1
 358 932 l 1,24,-1
 37 1493 l 1,0,-1
EndSplineSet
EndChar
StartChar: brokenbar
Encoding: 166 166 166
Width: 1233
Flags: W
Fore
702 1432 m 1,0,-1
 702 674 l 1,1,-1
 530 674 l 1,2,-1
 530 1432 l 1,3,-1
 702 1432 l 1,0,-1
702 408 m 1,4,-1
 702 -350 l 1,5,-1
 530 -350 l 1,6,-1
 530 408 l 1,7,-1
 702 408 l 1,4,-1
EndSplineSet
EndChar
StartChar: section
Encoding: 167 167 167
Width: 1233
Flags: W
Fore
936 1462 m 1,0,-1
 936 1298 l 1,1,2
 853 1337 853 1337 781.5 1356.5 c 128,-1,3
 710 1376 710 1376 653 1376 c 0,4,5
 556 1376 556 1376 502.5 1336 c 128,-1,6
 449 1296 449 1296 449 1225 c 0,7,8
 449 1135 449 1135 654 1020 c 0,9,10
 680 1005 680 1005 694 997 c 0,11,12
 906 878 906 878 971 801 c 128,-1,13
 1036 724 1036 724 1036 623 c 0,14,15
 1036 533 1036 533 990.5 463 c 128,-1,16
 945 393 945 393 852 340 c 1,17,18
 913 288 913 288 942 233.5 c 128,-1,19
 971 179 971 179 971 115 c 0,20,21
 971 -27 971 -27 869 -111 c 128,-1,22
 767 -195 767 -195 594 -195 c 0,23,24
 521 -195 521 -195 443.5 -180.5 c 128,-1,25
 366 -166 366 -166 279 -137 c 1,26,-1
 279 27 l 1,27,28
 366 -12 366 -12 440 -31.5 c 128,-1,29
 514 -51 514 -51 571 -51 c 0,30,31
 673 -51 673 -51 729.5 -9 c 128,-1,32
 786 33 786 33 786 109 c 0,33,34
 786 211 786 211 565 334 c 2,35,-1
 541 348 l 2,36,37
 327 468 327 468 263 544.5 c 128,-1,38
 199 621 199 621 199 723 c 0,39,40
 199 814 199 814 245.5 885.5 c 128,-1,41
 292 957 292 957 383 1006 c 1,42,43
 323 1050 323 1050 293.5 1106 c 128,-1,44
 264 1162 264 1162 264 1231 c 0,45,46
 264 1361 264 1361 364 1440.5 c 128,-1,47
 464 1520 464 1520 631 1520 c 0,48,49
 703 1520 703 1520 779.5 1505.5 c 128,-1,50
 856 1491 856 1491 936 1462 c 1,0,-1
485 936 m 1,51,52
 423 891 423 891 392.5 846 c 128,-1,53
 362 801 362 801 362 754 c 0,54,55
 362 678 362 678 432.5 610.5 c 128,-1,56
 503 543 503 543 750 410 c 1,57,58
 812 455 812 455 842 500 c 128,-1,59
 872 545 872 545 872 592 c 0,60,61
 872 668 872 668 800.5 736 c 128,-1,62
 729 804 729 804 485 936 c 1,51,52
EndSplineSet
EndChar
StartChar: dieresis
Encoding: 168 168 168
Width: 1233
Flags: W
Fore
319 1552 m 1,0,-1
 522 1552 l 1,1,-1
 522 1350 l 1,2,-1
 319 1350 l 1,3,-1
 319 1552 l 1,0,-1
711 1552 m 1,4,-1
 913 1552 l 1,5,-1
 913 1350 l 1,6,-1
 711 1350 l 1,7,-1
 711 1552 l 1,4,-1
EndSplineSet
Ligature: 0 0 'liga' space uni0308
EndChar
StartChar: copyright
Encoding: 169 169 169
Width: 1233
Flags: W
Fore
864 1071 m 1,0,-1
 864 963 l 1,1,2
 806 991 806 991 750.5 1004.5 c 128,-1,3
 695 1018 695 1018 637 1018 c 0,4,5
 520 1018 520 1018 452.5 943.5 c 128,-1,6
 385 869 385 869 385 741 c 0,7,8
 385 609 385 609 455 538 c 128,-1,9
 525 467 525 467 655 467 c 0,10,11
 711 467 711 467 762.5 479.5 c 128,-1,12
 814 492 814 492 864 518 c 1,13,-1
 864 414 l 1,14,15
 812 391 812 391 755 380 c 128,-1,16
 698 369 698 369 637 369 c 0,17,18
 457 369 457 369 353.5 469 c 128,-1,19
 250 569 250 569 250 741 c 0,20,21
 250 914 250 914 354 1015 c 128,-1,22
 458 1116 458 1116 637 1116 c 0,23,24
 698 1116 698 1116 755 1105 c 128,-1,25
 812 1094 812 1094 864 1071 c 1,0,-1
616 1255 m 0,26,27
 510 1255 510 1255 419.5 1218 c 128,-1,28
 329 1181 329 1181 254 1106 c 0,29,30
 179 1031 179 1031 140.5 939 c 128,-1,31
 102 847 102 847 102 741 c 0,32,33
 102 637 102 637 140.5 545.5 c 128,-1,34
 179 454 179 454 254 379 c 0,35,36
 330 303 330 303 420.5 265 c 128,-1,37
 511 227 511 227 616 227 c 0,38,39
 722 227 722 227 812.5 265 c 128,-1,40
 903 303 903 303 979 379 c 0,41,42
 1055 455 1055 455 1092.5 545.5 c 128,-1,43
 1130 636 1130 636 1130 741 c 0,44,45
 1130 847 1130 847 1092 939 c 128,-1,46
 1054 1031 1054 1031 979 1106 c 0,47,48
 904 1181 904 1181 813.5 1218 c 128,-1,49
 723 1255 723 1255 616 1255 c 0,26,27
616 1358 m 0,50,51
 743 1358 743 1358 852 1313 c 128,-1,52
 961 1268 961 1268 1051 1178 c 0,53,54
 1141 1087 1141 1087 1187 977 c 128,-1,55
 1233 867 1233 867 1233 741 c 0,56,57
 1233 616 1233 616 1187.5 507 c 128,-1,58
 1142 398 1142 398 1051 307 c 0,59,60
 960 216 960 216 851 170.5 c 128,-1,61
 742 125 742 125 616 125 c 0,62,63
 491 125 491 125 382 170.5 c 128,-1,64
 273 216 273 216 182 307 c 0,65,66
 91 398 91 398 45.5 507 c 128,-1,67
 0 616 0 616 0 741 c 0,68,69
 0 867 0 867 46 977 c 128,-1,70
 92 1087 92 1087 182 1178 c 0,71,72
 272 1268 272 1268 381 1313 c 128,-1,73
 490 1358 490 1358 616 1358 c 0,50,51
EndSplineSet
EndChar
StartChar: ordfeminine
Encoding: 170 170 170
Width: 1233
Flags: W
Fore
684 1104 m 2,0,1
 540 1104 540 1104 478 1070 c 128,-1,2
 416 1036 416 1036 416 958 c 0,3,4
 416 894 416 894 459.5 855.5 c 128,-1,5
 503 817 503 817 575 817 c 0,6,7
 680 817 680 817 745.5 888.5 c 128,-1,8
 811 960 811 960 811 1075 c 2,9,-1
 811 1104 l 1,10,-1
 684 1104 l 2,0,1
954 1165 m 2,11,-1
 954 717 l 1,12,-1
 811 717 l 1,13,-1
 811 829 l 1,14,15
 762 764 762 764 696.5 731 c 128,-1,16
 631 698 631 698 549 698 c 0,17,18
 420 698 420 698 345 766 c 128,-1,19
 270 834 270 834 270 950 c 0,20,21
 270 1079 270 1079 363.5 1149 c 128,-1,22
 457 1219 457 1219 629 1219 c 2,23,-1
 811 1219 l 1,24,-1
 811 1223 l 2,25,26
 811 1313 811 1313 751.5 1359 c 128,-1,27
 692 1405 692 1405 575 1405 c 0,28,29
 524 1405 524 1405 461.5 1387.5 c 128,-1,30
 399 1370 399 1370 332 1337 c 1,31,-1
 332 1464 l 1,32,33
 400 1492 400 1492 467.5 1506 c 128,-1,34
 535 1520 535 1520 598 1520 c 0,35,36
 782 1520 782 1520 868 1434 c 128,-1,37
 954 1348 954 1348 954 1165 c 2,11,-1
293 592 m 1,38,-1
 961 592 l 1,39,-1
 961 469 l 1,40,-1
 293 469 l 1,41,-1
 293 592 l 1,38,-1
EndSplineSet
EndChar
StartChar: guillemotleft
Encoding: 171 171 171
Width: 1233
Flags: W
Fore
588 1059 m 1,0,-1
 588 868 l 1,1,-1
 287 600 l 1,2,-1
 588 332 l 1,3,-1
 588 141 l 1,4,-1
 119 559 l 1,5,-1
 119 641 l 1,6,-1
 588 1059 l 1,0,-1
1042 1059 m 1,7,-1
 1042 868 l 1,8,-1
 741 600 l 1,9,-1
 1042 332 l 1,10,-1
 1042 141 l 1,11,-1
 573 559 l 1,12,-1
 573 641 l 1,13,-1
 1042 1059 l 1,7,-1
EndSplineSet
EndChar
StartChar: logicalnot
Encoding: 172 172 172
Width: 1233
Flags: W
Fore
88 862 m 1,0,-1
 1145 862 l 1,1,-1
 1145 371 l 1,2,-1
 977 371 l 1,3,-1
 977 690 l 1,4,-1
 88 690 l 1,5,-1
 88 862 l 1,0,-1
EndSplineSet
EndChar
StartChar: sfthyphen
Encoding: 173 173 173
Width: 1233
Flags: W
Fore
356 643 m 1,0,-1
 877 643 l 1,1,-1
 877 479 l 1,2,-1
 356 479 l 1,3,-1
 356 643 l 1,0,-1
EndSplineSet
EndChar
StartChar: registered
Encoding: 174 174 174
Width: 1233
Flags: W
Fore
600 1100 m 2,0,1
 747 1100 747 1100 819 1051 c 128,-1,2
 891 1002 891 1002 891 901 c 0,3,4
 891 830 891 830 847 783.5 c 128,-1,5
 803 737 803 737 723 723 c 1,6,7
 742 718 742 718 771 684.5 c 128,-1,8
 800 651 800 651 838 592 c 1,9,-1
 952 406 l 1,10,-1
 809 406 l 1,11,-1
 702 580 l 2,12,13
 653 660 653 660 622.5 681 c 128,-1,14
 592 702 592 702 547 702 c 2,15,-1
 492 702 l 1,16,-1
 492 406 l 1,17,-1
 362 406 l 1,18,-1
 362 1100 l 1,19,-1
 600 1100 l 2,0,1
594 1016 m 2,20,-1
 492 1016 l 1,21,-1
 492 784 l 1,22,-1
 594 784 l 2,23,24
 684 784 684 784 721 811 c 128,-1,25
 758 838 758 838 758 901 c 0,26,27
 758 963 758 963 721 989.5 c 128,-1,28
 684 1016 684 1016 594 1016 c 2,20,-1
616 1358 m 0,29,30
 743 1358 743 1358 852 1313 c 128,-1,31
 961 1268 961 1268 1051 1178 c 0,32,33
 1141 1087 1141 1087 1187 977 c 128,-1,34
 1233 867 1233 867 1233 741 c 0,35,36
 1233 616 1233 616 1187.5 507 c 128,-1,37
 1142 398 1142 398 1051 307 c 0,38,39
 960 216 960 216 851 170.5 c 128,-1,40
 742 125 742 125 616 125 c 0,41,42
 491 125 491 125 382 170.5 c 128,-1,43
 273 216 273 216 182 307 c 0,44,45
 91 398 91 398 45.5 507 c 128,-1,46
 0 616 0 616 0 741 c 0,47,48
 0 867 0 867 46 977 c 128,-1,49
 92 1087 92 1087 182 1178 c 0,50,51
 272 1268 272 1268 381 1313 c 128,-1,52
 490 1358 490 1358 616 1358 c 0,29,30
616 1255 m 0,53,54
 510 1255 510 1255 419.5 1218 c 128,-1,55
 329 1181 329 1181 254 1106 c 0,56,57
 179 1031 179 1031 140.5 939 c 128,-1,58
 102 847 102 847 102 741 c 0,59,60
 102 637 102 637 140.5 545.5 c 128,-1,61
 179 454 179 454 254 379 c 0,62,63
 330 303 330 303 420.5 265 c 128,-1,64
 511 227 511 227 616 227 c 0,65,66
 722 227 722 227 812.5 265 c 128,-1,67
 903 303 903 303 979 379 c 0,68,69
 1055 455 1055 455 1092.5 545.5 c 128,-1,70
 1130 636 1130 636 1130 741 c 0,71,72
 1130 847 1130 847 1092 939 c 128,-1,73
 1054 1031 1054 1031 979 1106 c 0,74,75
 904 1181 904 1181 813.5 1218 c 128,-1,76
 723 1255 723 1255 616 1255 c 0,53,54
EndSplineSet
EndChar
StartChar: macron
Encoding: 175 175 175
Width: 1233
Flags: W
Fore
317 1526 m 1,0,-1
 915 1526 l 1,1,-1
 915 1378 l 1,2,-1
 317 1378 l 1,3,-1
 317 1526 l 1,0,-1
EndSplineSet
Ligature: 0 0 'liga' space uni0304
EndChar
StartChar: degree
Encoding: 176 176 176
Width: 1233
Flags: W
Fore
616 1520 m 0,0,1
 681 1520 681 1520 739.5 1495.5 c 128,-1,2
 798 1471 798 1471 842 1425 c 0,3,4
 887 1380 887 1380 910.5 1323 c 128,-1,5
 934 1266 934 1266 934 1200 c 0,6,7
 934 1068 934 1068 841 976.5 c 128,-1,8
 748 885 748 885 614 885 c 0,9,10
 479 885 479 885 389 975 c 128,-1,11
 299 1065 299 1065 299 1200 c 0,12,13
 299 1334 299 1334 391 1427 c 128,-1,14
 483 1520 483 1520 616 1520 c 0,0,1
616 1391 m 0,15,16
 537 1391 537 1391 481.5 1335.5 c 128,-1,17
 426 1280 426 1280 426 1200 c 0,18,19
 426 1120 426 1120 480.5 1066 c 128,-1,20
 535 1012 535 1012 614 1012 c 0,21,22
 694 1012 694 1012 750.5 1067 c 128,-1,23
 807 1122 807 1122 807 1200 c 0,24,25
 807 1279 807 1279 751 1335 c 128,-1,26
 695 1391 695 1391 616 1391 c 0,15,16
EndSplineSet
EndChar
StartChar: plusminus
Encoding: 177 177 177
Width: 1233
Flags: W
Fore
88 170 m 1,0,-1
 1145 170 l 1,1,-1
 1145 0 l 1,2,-1
 88 0 l 1,3,-1
 88 170 l 1,0,-1
700 1171 m 1,4,-1
 700 842 l 1,5,-1
 1145 842 l 1,6,-1
 1145 672 l 1,7,-1
 700 672 l 1,8,-1
 700 340 l 1,9,-1
 532 340 l 1,10,-1
 532 672 l 1,11,-1
 88 672 l 1,12,-1
 88 842 l 1,13,-1
 532 842 l 1,14,-1
 532 1171 l 1,15,-1
 700 1171 l 1,4,-1
EndSplineSet
EndChar
StartChar: twosuperior
Encoding: 178 178 178
Width: 1233
Flags: W
Fore
483 782 m 1,0,-1
 893 782 l 1,1,-1
 893 668 l 1,2,-1
 322 668 l 1,3,-1
 322 778 l 1,4,-1
 553 1004 l 1,5,6
 654 1101 654 1101 694.5 1162 c 128,-1,7
 735 1223 735 1223 735 1274 c 0,8,9
 735 1335 735 1335 685 1373 c 128,-1,10
 635 1411 635 1411 553 1411 c 0,11,12
 504 1411 504 1411 447.5 1393 c 128,-1,13
 391 1375 391 1375 328 1339 c 1,14,-1
 328 1464 l 1,15,16
 393 1492 393 1492 453.5 1506 c 128,-1,17
 514 1520 514 1520 573 1520 c 0,18,19
 715 1520 715 1520 801 1453.5 c 128,-1,20
 887 1387 887 1387 887 1280 c 0,21,22
 887 1223 887 1223 850 1163.5 c 128,-1,23
 813 1104 813 1104 694 987 c 2,24,-1
 483 782 l 1,0,-1
EndSplineSet
EndChar
StartChar: threesuperior
Encoding: 179 179 179
Width: 1233
Flags: W
Fore
731 1120 m 1,0,1
 825 1099 825 1099 874.5 1045 c 128,-1,2
 924 991 924 991 924 911 c 0,3,4
 924 787 924 787 829 720 c 128,-1,5
 734 653 734 653 557 653 c 0,6,7
 499 653 499 653 442 663.5 c 128,-1,8
 385 674 385 674 326 694 c 1,9,-1
 326 815 l 1,10,11
 395 788 395 788 451.5 775 c 128,-1,12
 508 762 508 762 553 762 c 0,13,14
 654 762 654 762 713 802.5 c 128,-1,15
 772 843 772 843 772 911 c 0,16,17
 772 985 772 985 717 1023 c 128,-1,18
 662 1061 662 1061 553 1061 c 2,19,-1
 487 1061 l 1,20,-1
 487 1169 l 1,21,-1
 561 1169 l 2,22,23
 654 1169 654 1169 703 1200.5 c 128,-1,24
 752 1232 752 1232 752 1292 c 0,25,26
 752 1348 752 1348 704 1379.5 c 128,-1,27
 656 1411 656 1411 569 1411 c 0,28,29
 525 1411 525 1411 469 1399 c 128,-1,30
 413 1387 413 1387 354 1364 c 1,31,-1
 354 1485 l 1,32,33
 423 1502 423 1502 481.5 1511 c 128,-1,34
 540 1520 540 1520 590 1520 c 0,35,36
 735 1520 735 1520 819 1461 c 128,-1,37
 903 1402 903 1402 903 1303 c 0,38,39
 903 1232 903 1232 859 1185.5 c 128,-1,40
 815 1139 815 1139 731 1120 c 1,0,1
EndSplineSet
EndChar
StartChar: acute
Encoding: 180 180 180
Width: 1233
Flags: W
Fore
756 1638 m 1,0,-1
 954 1638 l 1,1,-1
 629 1262 l 1,2,-1
 475 1262 l 1,3,-1
 756 1638 l 1,0,-1
EndSplineSet
LCarets: 0 65535 '    ' 1 0 
Ligature: 0 0 'liga' space acutecomb
EndChar
StartChar: mu
Encoding: 181 181 181
Width: 1233
Flags: W
Fore
195 -428 m 1,0,-1
 195 1120 l 1,1,-1
 379 1120 l 1,2,-1
 379 424 l 2,3,4
 379 282 379 282 439 206.5 c 128,-1,5
 499 131 499 131 610 131 c 0,6,7
 737 131 737 131 801.5 216 c 128,-1,8
 866 301 866 301 866 467 c 2,9,-1
 866 1120 l 1,10,-1
 1051 1120 l 1,11,-1
 1051 256 l 2,12,13
 1051 197 1051 197 1067 169 c 128,-1,14
 1083 141 1083 141 1116 141 c 0,15,16
 1125 141 1125 141 1139.5 146 c 128,-1,17
 1154 151 1154 151 1182 164 c 1,18,-1
 1182 16 l 1,19,20
 1144 -7 1144 -7 1110 -18 c 128,-1,21
 1076 -29 1076 -29 1042 -29 c 0,22,23
 980 -29 980 -29 942.5 10.5 c 128,-1,24
 905 50 905 50 893 129 c 1,25,26
 847 49 847 49 780.5 10 c 128,-1,27
 714 -29 714 -29 625 -29 c 0,28,29
 533 -29 533 -29 469.5 9 c 128,-1,30
 406 47 406 47 362 127 c 1,31,-1
 362 -428 l 1,32,-1
 195 -428 l 1,0,-1
EndSplineSet
EndChar
StartChar: paragraph
Encoding: 182 182 182
Width: 1233
Flags: W
Fore
582 1493 m 2,0,-1
 1030 1493 l 1,1,-1
 1030 -197 l 1,2,-1
 889 -197 l 1,3,-1
 889 1370 l 1,4,-1
 698 1370 l 1,5,-1
 698 -197 l 1,6,-1
 557 -197 l 1,7,-1
 557 649 l 1,8,9
 342 666 342 666 224 776.5 c 128,-1,10
 106 887 106 887 106 1071 c 0,11,12
 106 1261 106 1261 236.5 1377 c 128,-1,13
 367 1493 367 1493 582 1493 c 2,0,-1
EndSplineSet
EndChar
StartChar: periodcentered
Encoding: 183 183 183
Width: 1233
Flags: W
Fore
489 864 m 1,0,-1
 741 864 l 1,1,-1
 741 559 l 1,2,-1
 489 559 l 1,3,-1
 489 864 l 1,0,-1
EndSplineSet
EndChar
StartChar: cedilla
Encoding: 184 184 184
Width: 1233
Flags: W
Fore
700 0 m 1,0,1
 756 -62 756 -62 782.5 -114.5 c 128,-1,2
 809 -167 809 -167 809 -215 c 0,3,4
 809 -304 809 -304 749 -349.5 c 128,-1,5
 689 -395 689 -395 571 -395 c 0,6,7
 526 -395 526 -395 482.5 -389 c 128,-1,8
 439 -383 439 -383 395 -371 c 1,9,-1
 395 -240 l 1,10,11
 429 -257 429 -257 466.5 -264.5 c 128,-1,12
 504 -272 504 -272 551 -272 c 0,13,14
 609 -272 609 -272 639.5 -248 c 128,-1,15
 670 -224 670 -224 670 -178 c 0,16,17
 670 -148 670 -148 648 -104.5 c 128,-1,18
 626 -61 626 -61 582 0 c 1,19,-1
 700 0 l 1,0,1
EndSplineSet
Ligature: 0 0 'liga' space uni0327
EndChar
StartChar: onesuperior
Encoding: 185 185 185
Width: 1233
Flags: W
Fore
362 778 m 1,0,-1
 567 778 l 1,1,-1
 567 1389 l 1,2,-1
 344 1348 l 1,3,-1
 344 1464 l 1,4,-1
 573 1503 l 1,5,-1
 711 1503 l 1,6,-1
 711 778 l 1,7,-1
 915 778 l 1,8,-1
 915 668 l 1,9,-1
 362 668 l 1,10,-1
 362 778 l 1,0,-1
EndSplineSet
EndChar
StartChar: ordmasculine
Encoding: 186 186 186
Width: 1233
Flags: W
Fore
616 1403 m 0,0,1
 514 1403 514 1403 456.5 1325 c 128,-1,2
 399 1247 399 1247 399 1108 c 0,3,4
 399 969 399 969 456.5 892 c 128,-1,5
 514 815 514 815 616 815 c 0,6,7
 717 815 717 815 775.5 893.5 c 128,-1,8
 834 972 834 972 834 1108 c 0,9,10
 834 1247 834 1247 776.5 1325 c 128,-1,11
 719 1403 719 1403 616 1403 c 0,0,1
616 1520 m 0,12,13
 786 1520 786 1520 887.5 1408 c 128,-1,14
 989 1296 989 1296 989 1108 c 0,15,16
 989 921 989 921 888 809.5 c 128,-1,17
 787 698 787 698 616 698 c 0,18,19
 446 698 446 698 345 809.5 c 128,-1,20
 244 921 244 921 244 1108 c 0,21,22
 244 1296 244 1296 345.5 1408 c 128,-1,23
 447 1520 447 1520 616 1520 c 0,12,13
276 592 m 1,24,-1
 952 592 l 1,25,-1
 952 469 l 1,26,-1
 276 469 l 1,27,-1
 276 592 l 1,24,-1
EndSplineSet
EndChar
StartChar: guillemotright
Encoding: 187 187 187
Width: 1233
Flags: W
Fore
647 1059 m 1,0,-1
 1116 641 l 1,1,-1
 1116 559 l 1,2,-1
 647 141 l 1,3,-1
 647 332 l 1,4,-1
 948 600 l 1,5,-1
 647 868 l 1,6,-1
 647 1059 l 1,0,-1
193 1059 m 1,7,-1
 662 641 l 1,8,-1
 662 559 l 1,9,-1
 193 141 l 1,10,-1
 193 332 l 1,11,-1
 494 600 l 1,12,-1
 193 868 l 1,13,-1
 193 1059 l 1,7,-1
EndSplineSet
EndChar
StartChar: questiondown
Encoding: 191 191 191
Width: 1233
Flags: W
Fore
549 1092 m 1,0,-1
 739 1092 l 1,1,-1
 739 938 l 2,2,3
 739 840 739 840 708.5 771.5 c 128,-1,4
 678 703 678 703 594 621 c 2,5,-1
 504 532 l 1,6,7
 442 473 442 473 418.5 429 c 128,-1,8
 395 385 395 385 395 336 c 0,9,10
 395 247 395 247 460.5 192 c 128,-1,11
 526 137 526 137 635 137 c 0,12,13
 713 137 713 137 802 171.5 c 128,-1,14
 891 206 891 206 989 274 c 1,15,-1
 989 86 l 1,16,17
 895 29 895 29 799.5 1 c 128,-1,18
 704 -27 704 -27 600 -27 c 0,19,20
 414 -27 414 -27 303.5 69 c 128,-1,21
 193 165 193 165 193 326 c 0,22,23
 193 402 193 402 226.5 467.5 c 128,-1,24
 260 533 260 533 354 625 c 2,25,-1
 442 711 l 2,26,27
 509 775 509 775 528 817 c 128,-1,28
 547 859 547 859 547 922 c 0,29,30
 547 923 547 923 547 927 c 0,31,32
 549 950 549 950 549 969 c 2,33,-1
 549 1092 l 1,0,-1
745 1239 m 1,34,-1
 543 1239 l 1,35,-1
 543 1493 l 1,36,-1
 745 1493 l 1,37,-1
 745 1239 l 1,34,-1
EndSplineSet
EndChar
StartChar: Aring
Encoding: 197 197 197
Width: 1233
Flags: W
Fore
768 1626 m 0,0,1
 768 1689 768 1689 723.5 1733.5 c 128,-1,2
 679 1778 679 1778 616 1778 c 0,3,4
 552 1778 552 1778 508.5 1734.5 c 128,-1,5
 465 1691 465 1691 465 1626 c 0,6,7
 465 1563 465 1563 509 1519 c 128,-1,8
 553 1475 553 1475 616 1475 c 0,9,10
 679 1475 679 1475 723.5 1519 c 128,-1,11
 768 1563 768 1563 768 1626 c 0,0,1
616 1311 m 1,12,-1
 403 551 l 1,13,-1
 829 551 l 1,14,-1
 616 1311 l 1,12,-1
465 1399 m 1,15,16
 407 1432 407 1432 374.5 1492.5 c 128,-1,17
 342 1553 342 1553 342 1626 c 0,18,19
 342 1740 342 1740 422 1820.5 c 128,-1,20
 502 1901 502 1901 616 1901 c 0,21,22
 730 1901 730 1901 810.5 1820.5 c 128,-1,23
 891 1740 891 1740 891 1626 c 0,24,25
 891 1553 891 1553 859 1494 c 128,-1,26
 827 1435 827 1435 768 1399 c 1,27,-1
 1196 0 l 1,28,-1
 987 0 l 1,29,-1
 877 389 l 1,30,-1
 354 389 l 1,31,-1
 246 0 l 1,32,-1
 37 0 l 1,33,-1
 465 1399 l 1,15,16
EndSplineSet
Ligature: 0 1 'liga' A uni030A
EndChar
StartChar: AE
Encoding: 198 198 198
Width: 1233
Flags: W
Fore
1161 1493 m 1,0,-1
 1161 1323 l 1,1,-1
 823 1323 l 1,2,-1
 823 881 l 1,3,-1
 1130 881 l 1,4,-1
 1130 711 l 1,5,-1
 823 711 l 1,6,-1
 823 170 l 1,7,-1
 1180 170 l 1,8,-1
 1180 0 l 1,9,-1
 637 0 l 1,10,-1
 637 383 l 1,11,-1
 285 383 l 1,12,-1
 184 0 l 1,13,-1
 0 0 l 1,14,-1
 410 1493 l 1,15,-1
 1161 1493 l 1,0,-1
530 1323 m 1,16,-1
 328 551 l 1,17,-1
 637 551 l 1,18,-1
 637 1323 l 1,19,-1
 530 1323 l 1,16,-1
EndSplineSet
EndChar
StartChar: Eth
Encoding: 208 208 208
Width: 1233
Flags: W
Fore
436 1493 m 2,0,1
 778 1493 778 1493 940 1311 c 128,-1,2
 1102 1129 1102 1129 1102 745 c 0,3,4
 1102 363 1102 363 939.5 181.5 c 128,-1,5
 777 0 777 0 436 0 c 2,6,-1
 133 0 l 1,7,-1
 133 709 l 1,8,-1
 8 709 l 1,9,-1
 8 858 l 1,10,-1
 133 858 l 1,11,-1
 133 1493 l 1,12,-1
 436 1493 l 2,0,1
436 166 m 2,13,14
 691 166 691 166 792 291.5 c 128,-1,15
 893 417 893 417 893 745 c 0,16,17
 893 1076 893 1076 792.5 1201.5 c 128,-1,18
 692 1327 692 1327 436 1327 c 2,19,-1
 340 1327 l 1,20,-1
 340 858 l 1,21,-1
 604 858 l 1,22,-1
 604 709 l 1,23,-1
 340 709 l 1,24,-1
 340 166 l 1,25,-1
 436 166 l 2,13,14
EndSplineSet
EndChar
StartChar: multiply
Encoding: 215 215 215
Width: 1233
Flags: W
Fore
150 293 m 1,0,-1
 500 641 l 1,1,-1
 150 991 l 1,2,-1
 266 1108 l 1,3,-1
 616 758 l 1,4,-1
 967 1108 l 1,5,-1
 1083 991 l 1,6,-1
 733 641 l 1,7,-1
 1081 293 l 1,8,-1
 965 174 l 1,9,-1
 616 524 l 1,10,-1
 268 174 l 1,11,-1
 150 293 l 1,0,-1
EndSplineSet
EndChar
StartChar: Oslash
Encoding: 216 216 216
Width: 1233
Flags: W
Fore
371 303 m 1,0,1
 401 225 401 225 466.5 180 c 128,-1,2
 532 135 532 135 616 135 c 0,3,4
 770 135 770 135 837.5 275.5 c 128,-1,5
 905 416 905 416 905 745 c 0,6,7
 905 855 905 855 900 923 c 128,-1,8
 895 991 895 991 885 1036 c 1,9,-1
 371 303 l 1,0,1
338 471 m 1,10,-1
 842 1190 l 1,11,12
 817 1271 817 1271 759.5 1313.5 c 128,-1,13
 702 1356 702 1356 616 1356 c 0,14,15
 459 1356 459 1356 393.5 1210 c 128,-1,16
 328 1064 328 1064 328 686 c 0,17,18
 328 606 328 606 330.5 555.5 c 128,-1,19
 333 505 333 505 338 471 c 1,10,-1
1032 1247 m 1,20,21
 1073 1166 1073 1166 1094.5 1037 c 128,-1,22
 1116 908 1116 908 1116 745 c 0,23,24
 1116 355 1116 355 992.5 163 c 128,-1,25
 869 -29 869 -29 616 -29 c 0,26,27
 495 -29 495 -29 405 11.5 c 128,-1,28
 315 52 315 52 254 133 c 1,29,-1
 111 -70 l 1,30,-1
 8 0 l 1,31,-1
 186 252 l 1,32,33
 154 325 154 325 135.5 456 c 128,-1,34
 117 587 117 587 117 745 c 0,35,36
 117 1136 117 1136 240.5 1328 c 128,-1,37
 364 1520 364 1520 616 1520 c 0,38,39
 731 1520 731 1520 817.5 1479 c 128,-1,40
 904 1438 904 1438 961 1358 c 1,41,-1
 1100 1559 l 1,42,-1
 1200 1485 l 1,43,-1
 1032 1247 l 1,20,21
EndSplineSet
EndChar
StartChar: Thorn
Encoding: 222 222 222
Width: 1233
Flags: W
Fore
403 1057 m 1,0,-1
 403 532 l 1,1,-1
 637 532 l 2,2,3
 795 532 795 532 873.5 598 c 128,-1,4
 952 664 952 664 952 795 c 0,5,6
 952 926 952 926 873.5 991.5 c 128,-1,7
 795 1057 795 1057 637 1057 c 2,8,-1
 403 1057 l 1,0,-1
201 1493 m 1,9,-1
 403 1493 l 1,10,-1
 403 1223 l 1,11,-1
 657 1223 l 2,12,13
 917 1223 917 1223 1041 1118 c 128,-1,14
 1165 1013 1165 1013 1165 795 c 0,15,16
 1165 576 1165 576 1041 471.5 c 128,-1,17
 917 367 917 367 657 367 c 2,18,-1
 403 367 l 1,19,-1
 403 0 l 1,20,-1
 201 0 l 1,21,-1
 201 1493 l 1,9,-1
EndSplineSet
EndChar
StartChar: germandbls
Encoding: 223 223 223
Width: 1233
Flags: W
Fore
188 1137 m 2,0,1
 188 1350 188 1350 293 1453 c 128,-1,2
 398 1556 398 1556 614 1556 c 0,3,4
 818 1556 818 1556 923 1445.5 c 128,-1,5
 1028 1335 1028 1335 1030 1119 c 1,6,7
 875 1105 875 1105 791 1043 c 128,-1,8
 707 981 707 981 707 881 c 0,9,10
 707 832 707 832 734.5 793.5 c 128,-1,11
 762 755 762 755 829 713 c 2,12,-1
 887 676 l 2,13,14
 1038 583 1038 583 1093.5 501 c 128,-1,15
 1149 419 1149 419 1149 303 c 0,16,17
 1149 149 1149 149 1037 60 c 128,-1,18
 925 -29 925 -29 729 -29 c 0,19,20
 660 -29 660 -29 592.5 -16.5 c 128,-1,21
 525 -4 525 -4 459 20 c 1,22,-1
 459 184 l 1,23,24
 535 153 535 153 601.5 138 c 128,-1,25
 668 123 668 123 727 123 c 0,26,27
 835 123 835 123 899 171.5 c 128,-1,28
 963 220 963 220 963 301 c 0,29,30
 963 372 963 372 930.5 419.5 c 128,-1,31
 898 467 898 467 778 541 c 1,32,-1
 711 580 l 1,33,34
 619 636 619 636 573.5 702.5 c 128,-1,35
 528 769 528 769 528 848 c 0,36,37
 528 976 528 976 609 1061.5 c 128,-1,38
 690 1147 690 1147 846 1182 c 1,39,40
 844 1289 844 1289 783.5 1346 c 128,-1,41
 723 1403 723 1403 610 1403 c 0,42,43
 489 1403 489 1403 432 1337.5 c 128,-1,44
 375 1272 375 1272 375 1133 c 2,45,-1
 375 0 l 1,46,-1
 188 0 l 1,47,-1
 188 1137 l 2,0,1
EndSplineSet
EndChar
StartChar: ae
Encoding: 230 230 230
Width: 1233
Flags: W
Fore
543 442 m 2,0,-1
 543 514 l 1,1,-1
 494 514 l 2,2,3
 325 514 325 514 265 469 c 128,-1,4
 205 424 205 424 205 311 c 0,5,6
 205 222 205 222 249.5 173.5 c 128,-1,7
 294 125 294 125 377 125 c 0,8,9
 469 125 469 125 506 191.5 c 128,-1,10
 543 258 543 258 543 442 c 2,0,-1
1036 657 m 1,11,-1
 1036 709 l 2,12,13
 1036 860 1036 860 997.5 926.5 c 128,-1,14
 959 993 959 993 872 993 c 0,15,16
 785 993 785 993 747 925 c 128,-1,17
 709 857 709 857 709 700 c 2,18,-1
 709 657 l 1,19,-1
 1036 657 l 1,11,-1
1200 514 m 1,20,-1
 709 514 l 1,21,22
 708 499 708 499 707.5 481.5 c 128,-1,23
 707 464 707 464 707 430 c 0,24,25
 707 269 707 269 757.5 197 c 128,-1,26
 808 125 808 125 920 125 c 0,27,28
 999 125 999 125 1063.5 150.5 c 128,-1,29
 1128 176 1128 176 1178 227 c 1,30,-1
 1178 55 l 1,31,32
 1123 14 1123 14 1057 -7.5 c 128,-1,33
 991 -29 991 -29 920 -29 c 0,34,35
 810 -29 810 -29 735.5 12 c 128,-1,36
 661 53 661 53 629 131 c 1,37,38
 590 51 590 51 523.5 11 c 128,-1,39
 457 -29 457 -29 360 -29 c 0,40,41
 204 -29 204 -29 122.5 57 c 128,-1,42
 41 143 41 143 41 307 c 0,43,44
 41 478 41 478 141 567.5 c 128,-1,45
 241 657 241 657 432 657 c 2,46,-1
 549 657 l 1,47,-1
 549 745 l 2,48,49
 549 865 549 865 499.5 929 c 128,-1,50
 450 993 450 993 356 993 c 0,51,52
 300 993 300 993 234 971.5 c 128,-1,53
 168 950 168 950 106 911 c 1,54,-1
 106 1079 l 1,55,56
 183 1114 183 1114 249 1130.5 c 128,-1,57
 315 1147 315 1147 375 1147 c 0,58,59
 466 1147 466 1147 528 1115.5 c 128,-1,60
 590 1084 590 1084 627 1020 c 1,61,62
 660 1081 660 1081 726 1114 c 128,-1,63
 792 1147 792 1147 881 1147 c 0,64,65
 1055 1147 1055 1147 1127.5 1028.5 c 128,-1,66
 1200 910 1200 910 1200 604 c 2,67,-1
 1200 514 l 1,20,-1
EndSplineSet
EndChar
StartChar: eth
Encoding: 240 240 240
Width: 1233
Flags: W
Fore
717 1327 m 1,0,1
 914 1115 914 1115 1005 925 c 128,-1,2
 1096 735 1096 735 1096 535 c 0,3,4
 1096 267 1096 267 970.5 119 c 128,-1,5
 845 -29 845 -29 616 -29 c 0,6,7
 388 -29 388 -29 262.5 119 c 128,-1,8
 137 267 137 267 137 535 c 0,9,10
 137 800 137 800 262.5 948 c 128,-1,11
 388 1096 388 1096 612 1096 c 0,12,13
 646 1096 646 1096 663.5 1095 c 128,-1,14
 681 1094 681 1094 696 1092 c 1,15,16
 663 1137 663 1137 627 1181.5 c 128,-1,17
 591 1226 591 1226 553 1270 c 1,18,-1
 274 1178 l 1,19,-1
 244 1276 l 1,20,-1
 481 1356 l 1,21,-1
 299 1556 l 1,22,-1
 518 1556 l 1,23,-1
 645 1411 l 1,24,-1
 934 1505 l 1,25,-1
 967 1407 l 1,26,-1
 717 1327 l 1,0,1
793 918 m 1,27,28
 758 931 758 931 717 937.5 c 128,-1,29
 676 944 676 944 631 944 c 0,30,31
 485 944 485 944 408.5 839 c 128,-1,32
 332 734 332 734 332 535 c 0,33,34
 332 339 332 339 406 233 c 128,-1,35
 480 127 480 127 616 127 c 0,36,37
 753 127 753 127 827 233 c 128,-1,38
 901 339 901 339 901 535 c 0,39,40
 901 645 901 645 872 746.5 c 128,-1,41
 843 848 843 848 793 918 c 1,27,28
EndSplineSet
EndChar
StartChar: divide
Encoding: 247 247 247
Width: 1233
Flags: W
Fore
494 395 m 1,0,-1
 739 395 l 1,1,-1
 739 150 l 1,2,-1
 494 150 l 1,3,-1
 494 395 l 1,0,-1
494 1135 m 1,4,-1
 739 1135 l 1,5,-1
 739 889 l 1,6,-1
 494 889 l 1,7,-1
 494 1135 l 1,4,-1
88 727 m 1,8,-1
 1145 727 l 1,9,-1
 1145 557 l 1,10,-1
 88 557 l 1,11,-1
 88 727 l 1,8,-1
EndSplineSet
EndChar
StartChar: oslash
Encoding: 248 248 248
Width: 1233
Flags: W
Fore
877 780 m 1,0,-1
 414 221 l 1,1,2
 450 174 450 174 500.5 150.5 c 128,-1,3
 551 127 551 127 616 127 c 0,4,5
 757 127 757 127 829 236.5 c 128,-1,6
 901 346 901 346 901 559 c 0,7,8
 901 611 901 611 895 666.5 c 128,-1,9
 889 722 889 722 877 780 c 1,0,-1
817 897 m 1,10,11
 782 945 782 945 732.5 968 c 128,-1,12
 683 991 683 991 616 991 c 0,13,14
 477 991 477 991 402.5 884 c 128,-1,15
 328 777 328 777 328 575 c 0,16,17
 328 527 328 527 335 469 c 128,-1,18
 342 411 342 411 356 340 c 1,19,-1
 817 897 l 1,10,11
217 180 m 1,20,21
 178 251 178 251 157.5 348.5 c 128,-1,22
 137 446 137 446 137 559 c 0,23,24
 137 845 137 845 260 996 c 128,-1,25
 383 1147 383 1147 616 1147 c 0,26,27
 716 1147 716 1147 795 1119.5 c 128,-1,28
 874 1092 874 1092 934 1036 c 1,29,-1
 1081 1212 l 1,30,-1
 1174 1135 l 1,31,-1
 1010 940 l 1,32,33
 1052 874 1052 874 1074 777.5 c 128,-1,34
 1096 681 1096 681 1096 559 c 0,35,36
 1096 272 1096 272 973 121.5 c 128,-1,37
 850 -29 850 -29 616 -29 c 0,38,39
 513 -29 513 -29 434.5 0.5 c 128,-1,40
 356 30 356 30 299 90 c 1,41,-1
 139 -96 l 1,42,-1
 47 -20 l 1,43,-1
 217 180 l 1,20,21
EndSplineSet
EndChar
StartChar: thorn
Encoding: 254 254 254
Width: 1233
Flags: W
Fore
375 141 m 1,0,-1
 375 -426 l 1,1,-1
 190 -426 l 1,2,-1
 190 1567 l 1,3,-1
 375 1567 l 1,4,-1
 375 977 l 1,5,6
 421 1060 421 1060 497.5 1103.5 c 128,-1,7
 574 1147 574 1147 674 1147 c 0,8,9
 877 1147 877 1147 992.5 990 c 128,-1,10
 1108 833 1108 833 1108 555 c 0,11,12
 1108 282 1108 282 992 126.5 c 128,-1,13
 876 -29 876 -29 674 -29 c 0,14,15
 572 -29 572 -29 495.5 14.5 c 128,-1,16
 419 58 419 58 375 141 c 1,0,-1
915 559 m 0,17,18
 915 773 915 773 847.5 882 c 128,-1,19
 780 991 780 991 647 991 c 0,20,21
 513 991 513 991 444 881.5 c 128,-1,22
 375 772 375 772 375 559 c 0,23,24
 375 347 375 347 444 237 c 128,-1,25
 513 127 513 127 647 127 c 0,26,27
 780 127 780 127 847.5 236 c 128,-1,28
 915 345 915 345 915 559 c 0,17,18
EndSplineSet
EndChar
StartChar: Dcroat
Encoding: 272 272 272
Width: 1233
Flags: HW
Fore
436 1493 m 2,0,1
 778 1493 778 1493 940 1311 c 128,-1,2
 1102 1129 1102 1129 1102 745 c 0,3,4
 1102 363 1102 363 939.5 181.5 c 128,-1,5
 777 0 777 0 436 0 c 2,6,-1
 133 0 l 1,7,-1
 133 709 l 1,8,-1
 8 709 l 1,9,-1
 8 858 l 1,10,-1
 133 858 l 1,11,-1
 133 1493 l 1,12,-1
 436 1493 l 2,0,1
436 166 m 2,13,14
 691 166 691 166 792 291.5 c 128,-1,15
 893 417 893 417 893 745 c 0,16,17
 893 1076 893 1076 792.5 1201.5 c 128,-1,18
 692 1327 692 1327 436 1327 c 2,19,-1
 340 1327 l 1,20,-1
 340 858 l 1,21,-1
 604 858 l 1,22,-1
 604 709 l 1,23,-1
 340 709 l 1,24,-1
 340 166 l 1,25,-1
 436 166 l 2,13,14
EndSplineSet
EndChar
StartChar: dcroat
Encoding: 273 273 273
Width: 1233
Flags: W
Fore
858 977 m 1,0,-1
 858 1286 l 1,1,-1
 553 1286 l 1,2,-1
 553 1407 l 1,3,-1
 858 1407 l 1,4,-1
 858 1556 l 1,5,-1
 1042 1556 l 1,6,-1
 1042 1407 l 1,7,-1
 1233 1407 l 1,8,-1
 1233 1286 l 1,9,-1
 1042 1286 l 1,10,-1
 1042 0 l 1,11,-1
 858 0 l 1,12,-1
 858 141 l 1,13,14
 812 58 812 58 735.5 14.5 c 128,-1,15
 659 -29 659 -29 559 -29 c 0,16,17
 356 -29 356 -29 239.5 128.5 c 128,-1,18
 123 286 123 286 123 563 c 0,19,20
 123 836 123 836 240 991.5 c 128,-1,21
 357 1147 357 1147 559 1147 c 0,22,23
 660 1147 660 1147 737 1103.5 c 128,-1,24
 814 1060 814 1060 858 977 c 1,0,-1
317 559 m 0,25,26
 317 345 317 345 385 236 c 128,-1,27
 453 127 453 127 586 127 c 0,28,29
 719 127 719 127 788.5 237 c 128,-1,30
 858 347 858 347 858 559 c 0,31,32
 858 772 858 772 788.5 881.5 c 128,-1,33
 719 991 719 991 586 991 c 0,34,35
 453 991 453 991 385 882 c 128,-1,36
 317 773 317 773 317 559 c 0,25,26
EndSplineSet
EndChar
StartChar: Hbar
Encoding: 294 294 294
Width: 1233
Flags: HW
Fore
137 1493 m 1,0,-1
 339 1493 l 1,1,-1
 339 1269 l 1,0,0
 893 1269 l 1,0,0
 893 1493 l 1,4,-1
 1095 1493 l 1,5,-1
 1095 1269 l 1,0,0
 1230 1269 l 1,1,-1
 1230 1105 l 1,2,-1
 1095 1105 l 1,0,0
 1095 0 l 1,6,-1
 893 0 l 1,7,-1
 893 711 l 1,8,-1
 339 711 l 1,9,-1
 339 0 l 1,10,-1
 137 0 l 1,11,-1
 137 1105 l 1,0,0
 3 1105 l 1,3,-1
 3 1269 l 1,0,-1
 137 1269 l 1,0,0
 137 1493 l 1,0,-1
339 1105 m 1,0,0
 339 881 l 1,2,-1
 893 881 l 1,3,-1
 893 1105 l 1,0,0
 339 1105 l 1,0,0
EndSplineSet
EndChar
StartChar: hbar
Encoding: 295 295 295
Width: 1233
Flags: HW
Fore
1051 694 m 2,0,-1
 1051 0 l 1,1,-1
 866 0 l 1,2,-1
 866 694 l 2,3,4
 866 845 866 845 813 916 c 128,-1,5
 760 987 760 987 647 987 c 0,6,7
 518 987 518 987 448.5 895.5 c 128,-1,8
 379 804 379 804 379 633 c 2,9,-1
 379 0 l 1,10,-1
 195 0 l 1,11,-1
 195 1270 l 1,0,0
 70 1270 l 1,3,-1
 70 1434 l 1,0,-1
 195 1434 l 1,0,0
 195 1556 l 1,12,-1
 379 1556 l 1,13,-1
 379 1434 l 1,0,0
 732 1434 l 1,1,-1
 732 1270 l 1,2,-1
 379 1270 l 1,0,0
 379 952 l 1,14,15
 428 1048 428 1048 512 1097.5 c 128,-1,16
 596 1147 596 1147 711 1147 c 0,17,18
 882 1147 882 1147 966.5 1034.5 c 128,-1,19
 1051 922 1051 922 1051 694 c 2,0,-1
EndSplineSet
EndChar
StartChar: dotlessi
Encoding: 305 305 305
Width: 1233
Flags: W
Fore
256 1120 m 1,0,-1
 727 1120 l 1,1,-1
 727 143 l 1,2,-1
 1092 143 l 1,3,-1
 1092 0 l 1,4,-1
 178 0 l 1,5,-1
 178 143 l 1,6,-1
 543 143 l 1,7,-1
 543 977 l 1,8,-1
 256 977 l 1,9,-1
 256 1120 l 1,0,-1
EndSplineSet
EndChar
StartChar: IJ
Encoding: 306 306 306
Width: 1233
Flags: HW
Fore
651.6 64 m 1,0,-1
 651.6 300 l 1,1,2
 713.48 219 713.48 219 779.44 178.5 c 128,-1,3
 845.4 138 845.4 138 916.12 138 c 0,4,5
 1013.36 138 1013.36 138 1051.78 212.5 c 128,-1,6
 1090.2 287 1090.2 287 1090.2 490 c 2,7,-1
 1090.2 1326 l 1,8,-1
 831.12 1326 l 1,9,-1
 831.12 1496 l 1,10,-1
 1227.56 1496 l 1,11,-1
 1227.56 490 l 2,12,13
 1227.56 208 1227.56 208 1155.82 91 c 128,-1,14
 1084.08 -26 1084.08 -26 916.12 -26 c 0,15,16
 850.84 -26 850.84 -26 786.24 -4 c 128,-1,17
 721.64 18 721.64 18 651.6 64 c 1,0,-1
-1 1493 m 1,0,-1
 604.17 1493 l 1,1,-1
 604.17 1323 l 1,2,-1
 375.68 1323 l 1,3,-1
 375.68 170 l 1,4,-1
 604.17 170 l 1,5,-1
 604.17 0 l 1,6,-1
 -1 0 l 1,7,-1
 -1 170 l 1,8,-1
 227.49 170 l 1,9,-1
 227.49 1323 l 1,10,-1
 -1 1323 l 1,11,-1
 -1 1493 l 1,0,-1
EndSplineSet
Ligature: 0 1 'liga' I J
EndChar
StartChar: ij
Encoding: 307 307 307
Width: 1233
Flags: HW
Fore
978 -31 m 2,0,-1
 978 966 l 1,1,-1
 661 966 l 1,2,-1
 661 1109 l 1,3,-1
 1162 1109 l 1,4,-1
 1162 -31 l 2,5,6
 1162 -226 1162 -226 1072.5 -331.5 c 128,-1,7
 983 -437 983 -437 818 -437 c 2,8,-1
 564 -437 l 1,9,-1
 564 -281 l 1,10,-1
 798 -281 l 2,11,12
 888 -281 888 -281 933 -218.5 c 128,-1,13
 978 -156 978 -156 978 -31 c 2,0,-1
978 1545 m 1,14,-1
 1162 1545 l 1,15,-1
 1162 1312 l 1,16,-1
 978 1312 l 1,17,-1
 978 1545 l 1,14,-1
59.0801 1120 m 1,0,-1
 445.3 1120 l 1,1,-1
 445.3 143 l 1,2,-1
 744.6 143 l 1,3,-1
 744.6 0 l 1,4,-1
 -4.87988 0 l 1,5,-1
 -4.87988 143 l 1,6,-1
 294.42 143 l 1,7,-1
 294.42 977 l 1,8,-1
 59.0801 977 l 1,9,-1
 59.0801 1120 l 1,0,-1
294.42 1556 m 1,10,-1
 445.3 1556 l 1,11,-1
 445.3 1323 l 1,12,-1
 294.42 1323 l 1,13,-1
 294.42 1556 l 1,10,-1
EndSplineSet
Ligature: 0 1 'liga' i j
EndChar
StartChar: kgreenlandic
Encoding: 312 312 312
Width: 1233
Flags: HW
Fore
236 1120 m 1,0,-1
 426 1120 l 1,1,-1
 426 655 l 1,2,-1
 909 1120 l 1,3,-1
 1133 1120 l 1,4,-1
 692 698 l 1,5,-1
 1202 0 l 1,6,-1
 977 0 l 1,7,-1
 563 578 l 1,8,-1
 426 449 l 1,9,-1
 426 0 l 1,10,-1
 236 0 l 1,11,-1
 236 1120 l 1,0,-1
EndSplineSet
EndChar
StartChar: Lslash
Encoding: 321 321 321
Width: 1233
Flags: W
Fore
215 1493 m 1,0,-1
 418 1493 l 1,1,-1
 418 877 l 1,2,-1
 733 1096 l 1,3,-1
 811 985 l 1,4,-1
 418 711 l 1,5,-1
 418 170 l 1,6,-1
 1139 170 l 1,7,-1
 1139 0 l 1,8,-1
 215 0 l 1,9,-1
 215 571 l 1,10,-1
 70 465 l 1,11,-1
 -10 575 l 1,12,-1
 215 733 l 1,13,-1
 215 1493 l 1,0,-1
EndSplineSet
EndChar
StartChar: lslash
Encoding: 322 322 322
Width: 1233
Flags: W
Fore
639 406 m 2,0,1
 639 282 639 282 684.5 219 c 128,-1,2
 730 156 730 156 819 156 c 2,3,-1
 1034 156 l 1,4,-1
 1034 0 l 1,5,-1
 801 0 l 2,6,7
 636 0 636 0 545.5 106 c 128,-1,8
 455 212 455 212 455 406 c 2,9,-1
 455 698 l 1,10,-1
 156 489 l 1,11,-1
 76 600 l 1,12,-1
 455 864 l 1,13,-1
 455 1423 l 1,14,-1
 160 1423 l 1,15,-1
 160 1567 l 1,16,-1
 639 1567 l 1,17,-1
 639 989 l 1,18,-1
 954 1208 l 1,19,-1
 1034 1098 l 1,20,-1
 639 823 l 1,21,-1
 639 406 l 2,0,1
EndSplineSet
EndChar
StartChar: Eng
Encoding: 330 330 330
Width: 1233
Flags: HW
Fore
149 1493 m 1,0,-1
 334 1493 l 1,1,-1
 899 364 l 1,2,-1
 899 1493 l 1,3,-1
 1084 1493 l 1,4,-1
 1084 -20 l 2,5,6
 1084 -215 1084 -215 995 -320 c 128,-1,7
 905 -426 905 -426 740 -426 c 2,8,-1
 535 -426 l 1,9,-1
 535 -270 l 1,10,-1
 720 -270 l 2,11,12
 810 -270 810 -270 855 -208 c 128,-1,13
 899 -146 899 -146 899 0 c 1,6,-1
 334 1129 l 1,7,-1
 334 0 l 1,8,-1
 149 0 l 1,9,-1
 149 1493 l 1,0,-1
EndSplineSet
EndChar
StartChar: eng
Encoding: 331 331 331
Width: 1233
Flags: HW
Fore
1051 694 m 2,0,-1
 1051 -20 l 2,5,6
 1051 -215 1051 -215 962 -320 c 128,-1,7
 872 -426 872 -426 707 -426 c 2,8,-1
 502 -426 l 1,9,-1
 502 -270 l 1,10,-1
 687 -270 l 2,11,12
 777 -270 777 -270 822 -208 c 128,-1,13
 866 -146 866 -146 866 -20 c 2,0,-1
 866 694 l 2,3,4
 866 845 866 845 813 916 c 128,-1,5
 760 987 760 987 647 987 c 0,6,7
 518 987 518 987 448 896 c 128,-1,8
 379 804 379 804 379 633 c 2,9,-1
 379 0 l 1,10,-1
 195 0 l 1,11,-1
 195 1120 l 1,12,-1
 379 1120 l 1,13,-1
 379 952 l 1,14,15
 428 1048 428 1048 512 1098 c 128,-1,16
 596 1147 596 1147 711 1147 c 0,17,18
 882 1147 882 1147 966 1034 c 128,-1,19
 1051 922 1051 922 1051 694 c 2,0,-1
EndSplineSet
EndChar
StartChar: OE
Encoding: 338 338 338
Width: 1233
Flags: W
Fore
1217 170 m 1,0,-1
 1217 0 l 1,1,-1
 612 0 l 2,2,3
 317 0 317 0 194.5 166.5 c 128,-1,4
 72 333 72 333 72 745 c 0,5,6
 72 1162 72 1162 194 1327.5 c 128,-1,7
 316 1493 316 1493 612 1493 c 2,8,-1
 1206 1493 l 1,9,-1
 1206 1323 l 1,10,-1
 848 1323 l 1,11,-1
 848 881 l 1,12,-1
 1176 881 l 1,13,-1
 1176 711 l 1,14,-1
 848 711 l 1,15,-1
 848 170 l 1,16,-1
 1217 170 l 1,0,-1
590 1323 m 2,17,18
 413 1323 413 1323 343.5 1208 c 128,-1,19
 274 1093 274 1093 274 745 c 0,20,21
 274 399 274 399 343.5 284.5 c 128,-1,22
 413 170 413 170 590 170 c 2,23,-1
 651 170 l 1,24,-1
 651 1323 l 1,25,-1
 590 1323 l 2,17,18
EndSplineSet
EndChar
StartChar: oe
Encoding: 339 339 339
Width: 1233
Flags: W
Fore
1047 657 m 1,0,1
 1047 668 1047 668 1048 687 c 128,-1,2
 1049 706 1049 706 1049 715 c 0,3,4
 1049 860 1049 860 1009 927.5 c 128,-1,5
 969 995 969 995 883 995 c 0,6,7
 796 995 796 995 757.5 926.5 c 128,-1,8
 719 858 719 858 719 700 c 2,9,-1
 719 657 l 1,10,-1
 1047 657 l 1,0,1
373 123 m 0,11,12
 475 123 475 123 516 207 c 128,-1,13
 557 291 557 291 557 530 c 0,14,15
 557 821 557 821 517 908 c 128,-1,16
 477 995 477 995 373 995 c 0,17,18
 270 995 270 995 230 911.5 c 128,-1,19
 190 828 190 828 190 559 c 0,20,21
 190 290 190 290 230 206.5 c 128,-1,22
 270 123 270 123 373 123 c 0,11,12
1210 514 m 1,23,-1
 719 514 l 1,24,-1
 719 430 l 2,25,26
 719 267 719 267 768.5 195 c 128,-1,27
 818 123 818 123 930 123 c 0,28,29
 1010 123 1010 123 1075.5 149.5 c 128,-1,30
 1141 176 1141 176 1188 227 c 1,31,-1
 1188 55 l 1,32,33
 1129 12 1129 12 1066.5 -8.5 c 128,-1,34
 1004 -29 1004 -29 930 -29 c 0,35,36
 832 -29 832 -29 758.5 4.5 c 128,-1,37
 685 38 685 38 637 104 c 1,38,39
 585 36 585 36 521 3.5 c 128,-1,40
 457 -29 457 -29 373 -29 c 0,41,42
 184 -29 184 -29 99 109 c 128,-1,43
 14 247 14 247 14 559 c 0,44,45
 14 871 14 871 99 1009 c 128,-1,46
 184 1147 184 1147 373 1147 c 0,47,48
 462 1147 462 1147 526 1116 c 128,-1,49
 590 1085 590 1085 637 1020 c 1,50,51
 674 1082 674 1082 739 1114.5 c 128,-1,52
 804 1147 804 1147 891 1147 c 0,53,54
 1066 1147 1066 1147 1138 1028.5 c 128,-1,55
 1210 910 1210 910 1210 604 c 2,56,-1
 1210 514 l 1,23,-1
EndSplineSet
EndChar
StartChar: Tbar
Encoding: 358 358 358
Width: 1233
Flags: HW
TeX: 0 0 0 0
Fore
47 1493 m 1,0,-1
 1186 1493 l 1,1,-1
 1186 1323 l 1,2,-1
 719 1323 l 1,3,-1
 719 747 l 1,4,-1
 984 747 l 1,5,-1
 984 577 l 1,6,-1
 719 577 l 1,7,-1
 719 0 l 1,8,-1
 516 0 l 1,9,-1
 516 577 l 1,10,-1
 251 577 l 1,11,-1
 251 747 l 1,12,-1
 516 747 l 1,13,-1
 516 1323 l 1,14,-1
 47 1323 l 1,15,-1
 47 1493 l 1,0,-1
EndSplineSet
EndChar
StartChar: tbar
Encoding: 359 359 359
Width: 1233
Flags: HW
TeX: 0 0 0 0
Fore
614 1438 m 1,0,-1
 614 1120 l 1,1,-1
 1032 1120 l 1,2,-1
 1032 977 l 1,3,-1
 614 977 l 1,4,-1
 614 744 l 1,0,0
 843 744 l 1,0,0
 843 602 l 1,0,0
 614 602 l 1,0,0
 614 369 l 2,5,6
 614 245 614 245 661 196 c 128,-1,7
 708 147 708 147 825 147 c 2,8,-1
 1032 147 l 1,9,-1
 1032 0 l 1,10,-1
 807 0 l 2,11,12
 600 0 600 0 515 83 c 128,-1,13
 430 166 430 166 430 369 c 2,14,-1
 430 602 l 1,0,0
 201 602 l 1,0,0
 201 744 l 1,0,0
 430 744 l 1,0,0
 430 977 l 1,15,-1
 131 977 l 1,16,-1
 131 1120 l 1,17,-1
 430 1120 l 1,18,-1
 430 1438 l 1,19,-1
 614 1438 l 1,0,-1
EndSplineSet
EndChar
StartChar: longs
Encoding: 383 383 383
Width: 1233
Flags: HW
Fore
678.005 1219 m 17,0,0
 678 1322 678 1322 716.5 1362.5 c 128,-1,4
 755 1403 755 1403 854 1403 c 2,2,3
 1063 1403 l 1,1,-1
 1063 1556 l 1,0,-1
 842 1556 l 2,19,-1
 663 1556 663 1556 578.5 1469 c 128,-1,18
 494 1382 494 1382 494 1198 c 2,16,17
 494 1120 l 1,15,-1
 195 1120 l 1,14,-1
 195 977 l 1,13,-1
 494 977 l 1,12,-1
 494 0 l 1,11,-1
 678 0 l 1,10,-1
 678.005 1219 l 17,0,0
EndSplineSet
EndChar
StartChar: florin
Encoding: 402 402 402
Width: 1233
Flags: W
Fore
1200 1520 m 1,0,-1
 1200 1356 l 1,1,2
 1164 1384 1164 1384 1123 1398.5 c 128,-1,3
 1082 1413 1082 1413 1038 1413 c 0,4,5
 936 1413 936 1413 878.5 1351 c 128,-1,6
 821 1289 821 1289 803 1159 c 1,7,-1
 758 848 l 1,8,-1
 1061 848 l 1,9,-1
 1061 705 l 1,10,-1
 733 705 l 1,11,-1
 633 70 l 1,12,13
 590 -196 590 -196 490.5 -311 c 128,-1,14
 391 -426 391 -426 205 -426 c 0,15,16
 148 -426 148 -426 97 -415.5 c 128,-1,17
 46 -405 46 -405 0 -383 c 1,18,-1
 0 -219 l 1,19,20
 49 -250 49 -250 99 -266.5 c 128,-1,21
 149 -283 149 -283 197 -283 c 0,22,23
 293 -283 293 -283 353.5 -208 c 128,-1,24
 414 -133 414 -133 440 18 c 1,25,-1
 557 705 l 1,26,-1
 305 705 l 1,27,-1
 305 848 l 1,28,-1
 580 848 l 1,29,-1
 629 1178 l 1,30,31
 655 1355 655 1355 754 1455.5 c 128,-1,32
 853 1556 853 1556 1001 1556 c 0,33,34
 1050 1556 1050 1556 1099.5 1547 c 128,-1,35
 1149 1538 1149 1538 1200 1520 c 1,0,-1
EndSplineSet
EndChar
StartChar: dotlessj
Encoding: 567 567 567
Width: 1233
Flags: HW
Fore
600 -20 m 2,0,-1
 600 977 l 1,1,-1
 283 977 l 1,2,-1
 283 1120 l 1,3,-1
 784 1120 l 1,4,-1
 784 -20 l 2,5,6
 784 -215 784 -215 694.5 -320.5 c 128,-1,7
 605 -426 605 -426 440 -426 c 2,8,-1
 186 -426 l 1,9,-1
 186 -270 l 1,10,-1
 420 -270 l 2,11,12
 510 -270 510 -270 555 -207.5 c 128,-1,13
 600 -145 600 -145 600 -20 c 2,0,-1
EndSplineSet
EndChar
StartChar: uni02BB
Encoding: 699 699 699
Width: 1233
Flags: W
Fore
715 967 m 1,0,-1
 463 967 l 1,1,-1
 463 1174 l 1,2,-1
 659 1556 l 1,3,-1
 813 1556 l 1,4,-1
 715 1174 l 1,5,-1
 715 967 l 1,0,-1
EndSplineSet
EndChar
StartChar: afii57929
Encoding: 700 700 700
Width: 1233
Flags: HW
TeX: 0 0 0 0
Fore
561 1556 m 1,0,-1
 813 1556 l 1,1,-1
 813 1349 l 1,2,-1
 617 967 l 1,3,-1
 463 967 l 1,4,-1
 561 1349 l 1,5,-1
 561 1556 l 1,0,-1
EndSplineSet
EndChar
StartChar: circumflex
Encoding: 710 710 710
Width: 1233
Flags: W
Fore
543 1638 m 1,0,-1
 690 1638 l 1,1,-1
 936 1262 l 1,2,-1
 797 1262 l 1,3,-1
 616 1507 l 1,4,-1
 436 1262 l 1,5,-1
 297 1262 l 1,6,-1
 543 1638 l 1,0,-1
EndSplineSet
EndChar
StartChar: caron
Encoding: 711 711 711
Width: 1233
Flags: W
Fore
543 1262 m 1,0,-1
 297 1638 l 1,1,-1
 436 1638 l 1,2,-1
 616 1393 l 1,3,-1
 797 1638 l 1,4,-1
 936 1638 l 1,5,-1
 690 1262 l 1,6,-1
 543 1262 l 1,0,-1
EndSplineSet
EndChar
StartChar: breve
Encoding: 728 728 728
Width: 1233
Flags: W
Fore
303 1608 m 1,0,-1
 422 1608 l 1,1,2
 433 1532 433 1532 481 1495 c 128,-1,3
 529 1458 529 1458 616 1458 c 0,4,5
 701 1458 701 1458 749 1495 c 128,-1,6
 797 1532 797 1532 811 1608 c 1,7,-1
 930 1608 l 1,8,9
 919 1465 919 1465 840 1393 c 128,-1,10
 761 1321 761 1321 616 1321 c 0,11,12
 472 1321 472 1321 393 1393 c 128,-1,13
 314 1465 314 1465 303 1608 c 1,0,-1
EndSplineSet
Ligature: 0 0 'liga' space uni0306
EndChar
StartChar: dotaccent
Encoding: 729 729 729
Width: 1233
Flags: W
Fore
514 1552 m 1,0,-1
 719 1552 l 1,1,-1
 719 1348 l 1,2,-1
 514 1348 l 1,3,-1
 514 1552 l 1,0,-1
EndSplineSet
Ligature: 0 0 'liga' space uni0307
EndChar
StartChar: ring
Encoding: 730 730 730
Width: 1233
Flags: W
Fore
891 1524 m 0,0,1
 891 1409 891 1409 811.5 1329 c 128,-1,2
 732 1249 732 1249 616 1249 c 0,3,4
 501 1249 501 1249 421.5 1329 c 128,-1,5
 342 1409 342 1409 342 1524 c 0,6,7
 342 1639 342 1639 421.5 1718.5 c 128,-1,8
 501 1798 501 1798 616 1798 c 0,9,10
 732 1798 732 1798 811.5 1718.5 c 128,-1,11
 891 1639 891 1639 891 1524 c 0,0,1
768 1524 m 0,12,13
 768 1587 768 1587 724 1631 c 128,-1,14
 680 1675 680 1675 616 1675 c 0,15,16
 552 1675 552 1675 508.5 1631.5 c 128,-1,17
 465 1588 465 1588 465 1524 c 0,18,19
 465 1459 465 1459 508.5 1415.5 c 128,-1,20
 552 1372 552 1372 616 1372 c 0,21,22
 680 1372 680 1372 724 1416 c 128,-1,23
 768 1460 768 1460 768 1524 c 0,12,13
EndSplineSet
LCarets: 0 65535 '    ' 1 0 
Ligature: 0 0 'liga' space uni030A
EndChar
StartChar: ogonek
Encoding: 731 731 731
Width: 1233
Flags: W
Fore
528 0 m 1,0,-1
 647 0 l 1,1,2
 602 -61 602 -61 580.5 -105 c 128,-1,3
 559 -149 559 -149 559 -180 c 0,4,5
 559 -226 559 -226 586.5 -249 c 128,-1,6
 614 -272 614 -272 668 -272 c 0,7,8
 700 -272 700 -272 731 -264.5 c 128,-1,9
 762 -257 762 -257 793 -242 c 1,10,-1
 793 -375 l 1,11,12
 755 -385 755 -385 721 -390 c 128,-1,13
 687 -395 687 -395 657 -395 c 0,14,15
 535 -395 535 -395 477.5 -351.5 c 128,-1,16
 420 -308 420 -308 420 -215 c 0,17,18
 420 -167 420 -167 446.5 -114.5 c 128,-1,19
 473 -62 473 -62 528 0 c 1,0,-1
EndSplineSet
Ligature: 0 0 'liga' space uni0328
EndChar
StartChar: tilde
Encoding: 732 732 732
Width: 1233
Flags: W
Fore
612 1370 m 1,0,-1
 555 1425 l 2,1,2
 534 1445 534 1445 517.5 1454.5 c 128,-1,3
 501 1464 501 1464 487 1464 c 0,4,5
 449 1464 449 1464 431 1427 c 128,-1,6
 413 1390 413 1390 411 1309 c 1,7,-1
 287 1309 l 1,8,9
 288 1443 288 1443 339 1517 c 128,-1,10
 390 1591 390 1591 481 1591 c 0,11,12
 520 1591 520 1591 552 1577 c 128,-1,13
 584 1563 584 1563 621 1530 c 1,14,-1
 678 1475 l 2,15,16
 699 1455 699 1455 715.5 1445.5 c 128,-1,17
 732 1436 732 1436 745 1436 c 0,18,19
 784 1436 784 1436 802 1473 c 128,-1,20
 820 1510 820 1510 821 1591 c 1,21,-1
 946 1591 l 1,22,23
 945 1457 945 1457 894 1383 c 128,-1,24
 843 1309 843 1309 752 1309 c 0,25,26
 713 1309 713 1309 681 1323 c 128,-1,27
 649 1337 649 1337 612 1370 c 1,0,-1
EndSplineSet
Ligature: 0 0 'liga' space tildecomb
EndChar
StartChar: hungarumlaut
Encoding: 733 733 733
Width: 1233
Flags: W
Fore
535 1638 m 1,0,-1
 705 1638 l 1,1,-1
 481 1262 l 1,2,-1
 344 1262 l 1,3,-1
 535 1638 l 1,0,-1
868 1638 m 1,4,-1
 1047 1638 l 1,5,-1
 799 1262 l 1,6,-1
 664 1262 l 1,7,-1
 868 1638 l 1,4,-1
EndSplineSet
Ligature: 0 0 'liga' space uni030B
EndChar
StartChar: uni0312
Encoding: 786 786 786
Width: 1233
Flags: HW
TeX: 0 0 0 0
Fore
708 967 m 1,5,-1
 469 967 l 1,2,-1
 656 1312 l 1,3,-1
 802 1312 l 1,4,-1
 708 967 l 1,5,-1
EndSplineSet
EndChar
StartChar: uni0326
Encoding: 806 806 806
Width: 1233
Flags: HW
Fore
502 -120 m 1,5,-1
 741 -120 l 1,2,-1
 554 -465 l 1,3,-1
 408 -465 l 1,4,-1
 502 -120 l 1,5,-1
EndSplineSet
EndChar
StartChar: Omega
Encoding: 937 937 937
Width: 1233
Flags: W
Fore
74 0 m 1,0,-1
 74 172 l 1,1,-1
 319 172 l 1,2,3
 196 306 196 306 141 450 c 128,-1,4
 86 594 86 594 86 782 c 0,5,6
 86 1093 86 1093 230 1276.5 c 128,-1,7
 374 1460 374 1460 614 1460 c 0,8,9
 856 1460 856 1460 1000.5 1277 c 128,-1,10
 1145 1094 1145 1094 1145 782 c 0,11,12
 1145 594 1145 594 1089.5 449.5 c 128,-1,13
 1034 305 1034 305 911 172 c 1,14,-1
 1159 172 l 1,15,-1
 1159 0 l 1,16,-1
 696 0 l 1,17,-1
 696 172 l 1,18,19
 816 248 816 248 883 412.5 c 128,-1,20
 950 577 950 577 950 799 c 0,21,22
 950 1029 950 1029 860 1161.5 c 128,-1,23
 770 1294 770 1294 616 1294 c 0,24,25
 462 1294 462 1294 372.5 1161.5 c 128,-1,26
 283 1029 283 1029 283 799 c 0,27,28
 283 577 283 577 350 412.5 c 128,-1,29
 417 248 417 248 537 172 c 1,30,-1
 537 0 l 1,31,-1
 74 0 l 1,0,-1
EndSplineSet
EndChar
StartChar: pi
Encoding: 960 960 960
Width: 1233
Flags: W
Fore
80 1100 m 1,0,-1
 1153 1100 l 1,1,-1
 1153 952 l 1,2,-1
 1012 952 l 1,3,-1
 1012 248 l 2,4,5
 1012 176 1012 176 1036.5 144.5 c 128,-1,6
 1061 113 1061 113 1116 113 c 0,7,8
 1131 113 1131 113 1153 115.5 c 128,-1,9
 1175 118 1175 118 1182 119 c 1,10,-1
 1182 -14 l 1,11,12
 1147 -27 1147 -27 1110 -33 c 128,-1,13
 1073 -39 1073 -39 1036 -39 c 0,14,15
 923 -39 923 -39 877 26.5 c 128,-1,16
 831 92 831 92 831 268 c 2,17,-1
 831 952 l 1,18,-1
 403 952 l 1,19,-1
 403 0 l 1,20,-1
 223 0 l 1,21,-1
 223 952 l 1,22,-1
 80 952 l 1,23,-1
 80 1100 l 1,0,-1
EndSplineSet
EndChar
StartChar: afii10051
Encoding: 1026 1026 1026
Width: 1233
Flags: HW
Fore
573 -287.104 m 129,-1,0
 651.378 -304.308 l 2,1,2
 664.239 -306 664.239 -306 676 -306 c 0,3,4
 818.998 -306 818.998 -306 875.5 -231.5 c 0,5,6
 932 -157.003 932 -157.003 932 46 c 2,7,-1
 932 462 l 2,8,9
 932 612.997 932 612.997 879 684 c 0,10,11
 826.002 755 826.002 755 713 755 c 0,12,13
 607.131 755 607.131 755 519.683 713.47 c 0,14,15
 473.96 691.756 473.96 691.756 452.5 663.5 c 0,16,17
 383 571.99 383 571.99 383 401 c 2,18,-1
 383 0 l 1,19,-1
 180 0 l 1,20,-1
 180 1325 l 1,21,-1
 -66 1325 l 1,22,-1
 -66 1495 l 1,23,-1
 828 1495 l 1,24,-1
 828 1325 l 1,25,-1
 383 1325 l 1,26,-1
 383 800 l 1,27,28
 420.24 841.537 420.24 841.537 468.5 866.161 c 0,29,30
 502.044 883.276 502.044 883.276 516 891.5 c 0,31,32
 579.928 929.172 579.928 929.172 729.175 939.255 c 0,33,34
 754.998 941 754.998 941 777 941 c 0,35,36
 936.51 941 936.51 941 1025.16 856.88 c 0,37,38
 1039.18 843.572 1039.18 843.572 1050.5 828.5 c 0,39,40
 1135 715.993 1135 715.993 1135 488 c 2,41,-1
 1135 46 l 2,42,43
 1135 -234.18 1135 -234.18 1028.5 -353 c 0,44,45
 923.008 -470 923.008 -470 676 -470 c 0,46,47
 592.608 -470 592.608 -470 576 -468.002 c 1,48,49
 576 -465.991 576 -465.991 573 -287.104 c 129,-1,0
EndSplineSet
EndChar
StartChar: afii10053
Encoding: 1028 1028 1028
Width: 1233
Flags: HW
Fore
1073 53 m 1,0,1
 996.009 12.0024 996.009 12.0024 915 -8.5 c 0,2,3
 834 -29 834 -29 743 -29 c 0,4,5
 456 -29 456 -29 297.5 174 c 0,6,7
 139.278 376.643 139.278 376.643 139 745 c 0,8,9
 139 1111 139 1111 298.5 1315.5 c 0,10,11
 458.003 1520 458.003 1520 743 1520 c 0,12,13
 834.02 1520 834.02 1520 915 1499.5 c 0,14,15
 996.009 1478.99 996.009 1478.99 1073 1438 c 1,16,-1
 1073 1231 l 1,17,18
 999.009 1292 999.009 1292 914 1324 c 0,19,20
 828.986 1356 828.986 1356 743 1356 c 0,21,22
 546.003 1356 546.003 1356 448 1204 c 0,23,24
 373.079 1087.8 373.079 1087.8 355.435 881 c 1,25,-1
 982 881 l 1,26,-1
 982 711 l 1,27,-1
 350.311 711 l 1,28,29
 355.523 430.434 355.523 430.434 448 287 c 0,30,31
 546 135 546 135 743 135 c 0,32,33
 830.999 135 830.999 135 915.5 167 c 0,34,35
 999.991 198.996 999.991 198.996 1073 260 c 1,36,-1
 1073 53 l 1,0,1
EndSplineSet
EndChar
StartChar: afii10054
Encoding: 1029 1029 1029
Width: 1233
Flags: HW
Fore
1012 1442 m 1,0,-1
 1012 1237 l 1,1,2
 919.984 1296.01 919.984 1296.01 827.5 1326 c 0,3,4
 735 1356 735 1356 641 1356 c 0,5,6
 498.006 1356 498.006 1356 415 1289.5 c 0,7,8
 332 1223 332 1223 332 1110 c 0,9,10
 332 1011 332 1011 386.5 959 c 0,11,12
 440.999 907 440.999 907 590 872 c 2,13,-1
 696 848 l 2,14,15
 906 799 906 799 1002 694 c 0,16,17
 1098 589 1098 589 1098 408 c 0,18,19
 1098 195.001 1098 195.001 966 83 c 0,20,21
 834 -29 834 -29 582 -29 c 0,22,23
 477 -29 477 -29 371 -6.5 c 0,24,25
 265 16 265 16 158 61 c 1,26,-1
 158 276 l 1,27,28
 272.997 203.002 272.997 203.002 375.5 169 c 0,29,30
 477.998 135 477.998 135 582 135 c 0,31,32
 735 135 735 135 820 203.5 c 0,33,34
 905 272 905 272 905 395 c 0,35,36
 905 507 905 507 846.5 566 c 0,37,38
 787.999 625.001 787.999 625.001 643 657 c 2,39,-1
 535 682 l 2,40,41
 327.002 728.999 327.002 728.999 233 824 c 0,42,43
 139 918.999 139 918.999 139 1079 c 0,44,45
 139 1279.01 139 1279.01 273.5 1399.5 c 0,46,47
 408.006 1520 408.006 1520 631 1520 c 0,48,49
 717 1520 717 1520 812 1500.5 c 0,50,51
 907 1481 907 1481 1012 1442 c 1,0,-1
EndSplineSet
EndChar
StartChar: afii10055
Encoding: 1030 1030 1030
Width: 1233
Flags: HW
Fore
201 1493 m 1,0,-1
 1030 1493 l 1,1,-1
 1030 1323 l 1,2,-1
 717 1323 l 1,3,-1
 717 170 l 1,4,-1
 1030 170 l 1,5,-1
 1030 0 l 1,6,-1
 201 0 l 1,7,-1
 201 170 l 1,8,-1
 514 170 l 1,9,-1
 514 1323 l 1,10,-1
 201 1323 l 1,11,-1
 201 1493 l 1,0,-1
EndSplineSet
EndChar
StartChar: afii10057
Encoding: 1032 1032 1032
Width: 1233
Flags: HW
Fore
109 61 m 1,0,-1
 109 297 l 1,1,2
 200.001 215.999 200.001 215.999 297 175.5 c 0,3,4
 394 135 394 135 498 135 c 0,5,6
 641 135 641 135 697.5 209.5 c 0,7,8
 754 284 754 284 754 487 c 1,9,-1
 754 1323 l 1,10,-1
 373 1323 l 1,11,-1
 373 1493 l 1,12,-1
 956 1493 l 1,13,-1
 956 487 l 2,14,15
 956 205 956 205 850.5 88 c 0,16,17
 745 -29 745 -29 498 -29 c 0,18,19
 402 -29 402 -29 307 -7 c 0,20,21
 212.001 15 212.001 15 109 61 c 1,0,-1
EndSplineSet
EndChar
StartChar: afii10058
Encoding: 1033 1033 1033
Width: 1233
Flags: HW
Fore
865 893 m 1,0,-1
 896 893 l 2,1,2
 1002.03 893 1002.03 893 1068.88 849.771 c 0,3,4
 1096.36 832 1096.36 832 1155.5 780 c 0,5,6
 1276 674.047 1276 674.047 1276 446 c 0,7,8
 1276 219.969 1276 219.969 1155 113.5 c 0,9,10
 1068.85 37.6978 1068.85 37.6978 1007.64 16.5818 c 0,11,12
 975.23 5.40395 975.23 5.40395 937.136 1.82143 c 0,13,14
 917.767 0 917.767 0 896 0 c 2,15,-1
 865 0 l 1,16,-1
 662 0 l 1,17,-1
 662 1323 l 1,18,-1
 368 1323 l 1,19,-1
 367 487 l 1,20,21
 366.672 205.351 366.672 205.351 261.5 88 c 0,22,23
 156.008 -29 156.008 -29 -91 -29 c 1,24,-1
 -91 135 l 1,25,26
 51.9982 135 51.9982 135 108.5 209.5 c 0,27,28
 165 283.997 165 283.997 165 487 c 2,29,-1
 165 1493 l 1,30,-1
 662 1493 l 1,31,-1
 864 1493 l 1,32,-1
 865 1493 l 1,33,-1
 865 893 l 1,0,-1
865 166 m 1,24,-1
 896 166 l 2,25,26
 951.341 166 951.341 166 990.269 200.518 c 0,27,28
 1005.09 213.66 1005.09 213.66 1028 239.5 c 0,29,30
 1089 308.302 1089 308.302 1089 446 c 0,31,32
 1089 576.224 1089 576.224 1036.06 642.866 c 0,33,34
 1031.96 648.02 1031.96 648.02 1027.5 653 c 0,35,36
 983.536 702.058 983.536 702.058 963.96 713.03 c 0,37,38
 939.036 727 939.036 727 896 727 c 2,39,-1
 865 727 l 1,40,-1
 865 166 l 1,24,-1
EndSplineSet
EndChar
StartChar: afii10059
Encoding: 1034 1034 1034
Width: 1233
Flags: HW
Fore
874 893 m 1,0,-1
 905 893 l 2,1,2
 1011.03 893 1011.03 893 1077.88 849.771 c 0,3,4
 1105.36 832 1105.36 832 1164.5 780 c 0,5,6
 1285 674.047 1285 674.047 1285 446 c 0,7,8
 1285 219.969 1285 219.969 1164 113.5 c 0,9,10
 1077.85 37.6978 1077.85 37.6978 1016.64 16.5818 c 0,11,12
 984.23 5.40395 984.23 5.40395 946.136 1.82143 c 0,13,14
 926.767 0 926.767 0 905 0 c 2,15,-1
 874 0 l 1,16,-1
 671 0 l 1,17,-1
 671 711 l 1,18,-1
 293 711 l 1,19,-1
 293 0 l 1,20,-1
 90 0 l 1,21,-1
 90 1493 l 1,22,-1
 293 1493 l 1,23,-1
 293 881 l 1,24,-1
 671 881 l 1,25,-1
 671 1493 l 1,26,-1
 873 1493 l 1,27,-1
 874 1493 l 1,28,-1
 874 893 l 1,0,-1
874 727 m 1,21,-1
 874 166 l 1,22,-1
 905 166 l 2,23,24
 960.341 166 960.341 166 999.269 200.518 c 0,25,26
 1014.09 213.66 1014.09 213.66 1037 239.5 c 0,27,28
 1098 308.302 1098 308.302 1098 446 c 0,29,30
 1098 576.224 1098 576.224 1045.06 642.866 c 0,31,32
 1040.96 648.02 1040.96 648.02 1036.5 653 c 0,33,34
 992.536 702.058 992.536 702.058 972.96 713.03 c 0,35,36
 948.036 727 948.036 727 905 727 c 2,37,-1
 874 727 l 1,21,-1
EndSplineSet
EndChar
StartChar: afii10060
Encoding: 1035 1035 1035
Width: 1233
Flags: HW
Fore
383 1325 m 1,0,-1
 383 800 l 1,1,2
 420.24 841.537 420.24 841.537 468.5 866.161 c 0,3,4
 502.044 883.276 502.044 883.276 516 891.5 c 0,5,6
 579.928 929.172 579.928 929.172 729.175 939.255 c 0,7,8
 754.998 941 754.998 941 777 941 c 0,9,10
 936.51 941 936.51 941 1025.16 856.88 c 0,11,12
 1039.18 843.572 1039.18 843.572 1050.5 828.5 c 0,13,14
 1135 715.993 1135 715.993 1135 488 c 2,15,-1
 1135 0 l 1,16,-1
 932 0 l 1,17,-1
 932 462 l 2,18,19
 932 612.997 932 612.997 879 684 c 0,20,21
 826.002 755 826.002 755 713 755 c 0,22,23
 607.131 755 607.131 755 519.683 713.47 c 0,24,25
 473.96 691.756 473.96 691.756 452.5 663.5 c 0,26,27
 383 571.99 383 571.99 383 401 c 2,28,-1
 383 0 l 1,29,-1
 180 0 l 1,30,-1
 180 1325 l 1,31,-1
 -66 1325 l 1,32,-1
 -66 1495 l 1,33,-1
 828 1495 l 1,34,-1
 828 1325 l 1,35,-1
 383 1325 l 1,0,-1
EndSplineSet
EndChar
StartChar: afii10145
Encoding: 1039 1039 1039
Width: 1233
Flags: HW
Fore
137 0 m 1,0,-1
 515 0 l 1,1,-1
 515 -312 l 1,2,-1
 718 -312 l 1,3,-1
 718 0 l 1,4,-1
 1096 0 l 1,5,-1
 1096 1493 l 1,6,-1
 893 1493 l 1,7,-1
 893 170 l 1,8,-1
 340 170 l 1,9,-1
 340 1493 l 1,10,-1
 137 1493 l 1,11,-1
 137 0 l 1,0,-1
EndSplineSet
EndChar
StartChar: afii10017
Encoding: 1040 1040 1040
Width: 1233
Flags: HW
Fore
616 1315 m 1,0,-1
 403 551 l 1,1,-1
 829 551 l 1,2,-1
 616 1315 l 1,0,-1
494 1493 m 1,3,-1
 739 1493 l 1,4,-1
 1196 0 l 1,5,-1
 987 0 l 1,6,-1
 877 389 l 1,7,-1
 354 389 l 1,8,-1
 246 0 l 1,9,-1
 37 0 l 1,10,-1
 494 1493 l 1,3,-1
EndSplineSet
EndChar
StartChar: afii10018
Encoding: 1041 1041 1041
Width: 1233
Flags: HW
Fore
369 713 m 1,0,-1
 369 166 l 1,1,-1
 608 166 l 2,2,3
 784 166 784 166 859 227.5 c 0,4,5
 934 289 934 289 934 430 c 0,6,7
 934 576 934 576 855 644.5 c 0,8,9
 776 713 776 713 608 713 c 2,10,-1
 369 713 l 1,0,-1
1068 1327 m 129,-1,-1
 369 1327 l 1,0,-1
 369 877 l 1,1,-1
 604 877 l 1,2,3
 982.571 862.441 982.571 862.441 1084 671 c 0,4,5
 1137 570.76 1137 570.76 1137 410 c 0,6,7
 1137 206.996 1137 206.996 1004 103.5 c 0,8,9
 871 0 871 0 608 0 c 2,10,-1
 166 0 l 1,11,-1
 166 1493 l 1,12,-1
 1068 1493 l 1,13,-1
 1068 1327 l 129,-1,-1
EndSplineSet
EndChar
StartChar: afii10019
Encoding: 1042 1042 1042
Width: 1233
Flags: HW
Fore
369 713 m 1,0,-1
 369 166 l 1,1,-1
 608 166 l 2,2,3
 784 166 784 166 859 227.5 c 0,4,5
 934 289 934 289 934 430 c 0,6,7
 934 576 934 576 855 644.5 c 0,8,9
 776 713 776 713 608 713 c 2,10,-1
 369 713 l 1,0,-1
369 1327 m 1,9,-1
 369 877 l 1,10,-1
 604 877 l 2,11,12
 750 877 750 877 815.5 933 c 0,13,14
 881 988.999 881 988.999 881 1114 c 0,15,16
 881 1227.01 881 1227.01 816.5 1277 c 0,17,18
 751.993 1327 751.993 1327 604 1327 c 2,19,-1
 369 1327 l 1,9,-1
166 1493 m 1,18,-1
 608 1493 l 2,19,20
 837 1493 837 1493 961 1394 c 0,21,22
 1085 1295 1085 1295 1085 1114 c 0,23,24
 1085 976.994 1085 976.994 1019.5 898 c 0,25,26
 954 819 954 819 823 799 c 1,27,28
 970 777 970 777 1053.5 673.5 c 0,29,30
 1137 570.006 1137 570.006 1137 410 c 0,31,32
 1137 206.996 1137 206.996 1004 103.5 c 0,33,34
 871 0 871 0 608 0 c 2,35,-1
 166 0 l 1,36,-1
 166 1493 l 1,18,-1
EndSplineSet
EndChar
StartChar: afii10020
Encoding: 1043 1043 1043
Width: 1233
Flags: HW
Fore
215 0 m 1,0,-1
 418 0 l 1,1,-1
 418 1323 l 1,2,-1
 1139 1323 l 1,3,-1
 1139 1493 l 1,4,-1
 215 1493 l 1,5,-1
 215 0 l 1,0,-1
EndSplineSet
EndChar
StartChar: afii10021
Encoding: 1044 1044 1044
Width: 1233
Flags: HW
Fore
1072.38 170 m 1,16,17
 1188 170 l 1,1,-1
 1188 -345 l 1,2,-1
 985 -345 l 1,3,-1
 985 0 l 1,4,-1
 224 0 l 1,5,-1
 224 -345 l 1,6,-1
 21 -345 l 1,7,-1
 21 170 l 1,8,-1
 117.62 170 l 2,7,8
 214.62 170 214.62 170 214.62 502 c 2,9,-1
 214.62 1493 l 1,12,-1
 1072.14 1493 l 1,13,-1
 1072.38 170 l 1,16,17
864.139 1344 m 1,28,-1
 405.62 1344 l 1,29,-1
 405.62 494 l 1,30,31
 405.62 293.727 405.62 293.727 378.62 225 c 0,32,33
 364.62 190 364.62 190 373.62 180 c 0,34,35
 382.621 170 382.621 170 416.62 170 c 2,36,-1
 864 170 l 2,37,38
 864.139 1344 l 1,28,-1
EndSplineSet
EndChar
StartChar: afii10022
Encoding: 1045 1045 1045
Width: 1233
Flags: HW
Fore
197 1493 m 1,0,-1
 1083 1493 l 1,1,-1
 1083 1323 l 1,2,-1
 399 1323 l 1,3,-1
 399 881 l 1,4,-1
 1053 881 l 1,5,-1
 1053 711 l 1,6,-1
 399 711 l 1,7,-1
 399 170 l 1,8,-1
 1102 170 l 1,9,-1
 1102 0 l 1,10,-1
 197 0 l 1,11,-1
 197 1493 l 1,0,-1
EndSplineSet
EndChar
StartChar: afii10024
Encoding: 1046 1046 1046
Width: 1233
Flags: HW
Fore
514 711 m 1,0,-1
 404 711 l 1,1,-1
 236 0 l 1,2,-1
 18 0 l 1,3,-1
 206 806 l 1,4,-1
 33 1493 l 1,5,-1
 251 1493 l 1,6,-1
 404 881 l 1,7,-1
 514 881 l 1,8,-1
 514 1493 l 1,9,-1
 717 1493 l 1,10,-1
 717 881 l 1,11,-1
 827 881 l 1,12,-1
 982 1493 l 1,13,-1
 1200 1493 l 1,14,-1
 1025 806 l 1,15,-1
 1216 0 l 1,16,-1
 998 0 l 1,17,-1
 827 711 l 1,18,-1
 717 711 l 1,19,-1
 717 0 l 1,20,-1
 514 0 l 1,21,-1
 514 711 l 1,0,-1
EndSplineSet
EndChar
StartChar: afii10025
Encoding: 1047 1047 1047
Width: 1233
Flags: HW
Fore
776 799 m 1,0,1
 923 760 923 760 1001 660.5 c 0,2,3
 1079 561 1079 561 1079 412 c 0,4,5
 1079 206.004 1079 206.004 940.5 88.5 c 0,6,7
 802 -29 802 -29 557 -29 c 0,8,9
 454 -29 454 -29 347 -10 c 0,10,11
 240 9.00001 240 9.00001 137 45 c 1,12,-1
 137 246 l 1,13,14
 239.004 192.998 239.004 192.998 338 167 c 0,15,16
 437.002 141 437.002 141 535 141 c 0,17,18
 701 141 701 141 790 216 c 0,19,20
 879 291 879 291 879 432 c 0,21,22
 879 562 879 562 790 638.5 c 0,23,24
 701 715 701 715 549 715 c 2,25,-1
 395 715 l 1,26,-1
 395 881 l 1,27,-1
 549 881 l 2,28,29
 688 881 688 881 766 942 c 0,30,31
 844 1003 844 1003 844 1112 c 0,32,33
 844 1227 844 1227 771.5 1288.5 c 0,34,35
 699 1350 699 1350 565 1350 c 0,36,37
 476.024 1350 476.024 1350 381 1330 c 0,38,39
 285.998 1310 285.998 1310 182 1270 c 1,40,-1
 182 1456 l 1,41,42
 303 1487.99 303 1487.99 397.5 1504 c 0,43,44
 491.97 1520 491.97 1520 565 1520 c 0,45,46
 783 1520 783 1520 913.5 1410.5 c 0,47,48
 1044 1301 1044 1301 1044 1120 c 0,49,50
 1044 996.995 1044 996.995 975.5 915 c 0,51,52
 907.001 833.001 907.001 833.001 776 799 c 1,0,1
EndSplineSet
EndChar
StartChar: afii10026
Encoding: 1048 1048 1048
Width: 1233
Flags: HW
Fore
139 0 m 1,0,-1
 395 0 l 1,1,-1
 899 1229 l 1,2,-1
 899 0 l 1,3,-1
 1094 0 l 1,4,-1
 1094 1493 l 1,5,-1
 838 1493 l 1,6,-1
 334 264 l 1,7,-1
 334 1493 l 1,8,-1
 139 1493 l 1,9,-1
 139 0 l 1,0,-1
EndSplineSet
EndChar
StartChar: afii10028
Encoding: 1050 1050 1050
Width: 1233
Flags: HW
Fore
137 1493 m 1,0,-1
 340 1493 l 1,1,-1
 340 829 l 1,2,-1
 971 1493 l 1,3,-1
 1208 1493 l 1,4,-1
 627 883 l 1,5,-1
 1225 0 l 1,6,-1
 981 0 l 1,7,-1
 494 748 l 1,8,-1
 340 584 l 1,9,-1
 340 0 l 1,10,-1
 137 0 l 1,11,-1
 137 1493 l 1,0,-1
EndSplineSet
EndChar
StartChar: afii10029
Encoding: 1051 1051 1051
Width: 1233
Flags: HW
Fore
420 1323 m 1,0,-1
 920 1323 l 1,1,-1
 920 0 l 1,2,-1
 1123 0 l 1,3,-1
 1123 1493 l 1,4,-1
 217 1493 l 1,5,-1
 217 487 l 2,6,7
 217 284 217 284 160.5 209.5 c 0,8,9
 104 135 104 135 -39 135 c 1,10,-1
 -39 -29 l 1,11,12
 208.001 -29 208.001 -29 313.5 88 c 0,13,14
 418.662 204.626 418.662 204.626 419 487 c 2,15,-1
 420 1323 l 1,0,-1
EndSplineSet
EndChar
StartChar: afii10030
Encoding: 1052 1052 1052
Width: 1233
Flags: HW
Fore
86 1493 m 1,0,-1
 356 1493 l 1,1,-1
 614 733 l 1,2,-1
 874 1493 l 1,3,-1
 1145 1493 l 1,4,-1
 1145 0 l 1,5,-1
 958 0 l 1,6,-1
 958 1319 l 1,7,-1
 692 532 l 1,8,-1
 539 532 l 1,9,-1
 272 1319 l 1,10,-1
 272 0 l 1,11,-1
 86 0 l 1,12,-1
 86 1493 l 1,0,-1
EndSplineSet
EndChar
StartChar: afii10031
Encoding: 1053 1053 1053
Width: 1233
Flags: HW
Fore
137 1493 m 1,0,-1
 340 1493 l 1,1,-1
 340 881 l 1,2,-1
 893 881 l 1,3,-1
 893 1493 l 1,4,-1
 1096 1493 l 1,5,-1
 1096 0 l 1,6,-1
 893 0 l 1,7,-1
 893 711 l 1,8,-1
 340 711 l 1,9,-1
 340 0 l 1,10,-1
 137 0 l 1,11,-1
 137 1493 l 1,0,-1
EndSplineSet
EndChar
StartChar: afii10032
Encoding: 1054 1054 1054
Width: 1233
Flags: HW
Fore
905 745 m 0,0,1
 905 1074 905 1074 837.5 1215 c 0,2,3
 770 1356 770 1356 616 1356 c 0,4,5
 463 1356 463 1356 395.5 1215 c 0,6,7
 328 1074 328 1074 328 745 c 0,8,9
 328 417 328 417 395.5 276 c 0,10,11
 463 135 463 135 616 135 c 0,12,13
 770 135 770 135 837.5 275.5 c 0,14,15
 905 416 905 416 905 745 c 0,0,1
1116 745 m 0,12,13
 1116 355.008 1116 355.008 992.5 163 c 0,14,15
 869 -29 869 -29 616 -29 c 0,16,17
 363 -29 363 -29 240 162 c 0,18,19
 117 353 117 353 117 745 c 0,20,21
 117 1136 117 1136 240.5 1328 c 0,22,23
 364 1520 364 1520 616 1520 c 0,24,25
 869 1520 869 1520 992.5 1328 c 0,26,27
 1116 1135.99 1116 1135.99 1116 745 c 0,12,13
EndSplineSet
EndChar
StartChar: afii10033
Encoding: 1055 1055 1055
Width: 1233
Flags: HW
Fore
137 1493 m 1,0,-1
 1096 1493 l 1,1,-1
 1096 0 l 1,2,-1
 893 0 l 1,3,-1
 893 1323 l 1,4,-1
 340 1323 l 1,5,-1
 340 0 l 1,6,-1
 137 0 l 1,7,-1
 137 1493 l 1,0,-1
EndSplineSet
EndChar
StartChar: afii10034
Encoding: 1056 1056 1056
Width: 1233
Flags: HW
Fore
399 1327 m 1,0,-1
 399 766 l 1,1,-1
 633 766 l 2,2,3
 773 766 773 766 851.5 840 c 0,4,5
 930 914 930 914 930 1047 c 0,6,7
 930 1180 930 1180 852 1253.5 c 0,8,9
 774 1327 774 1327 633 1327 c 2,10,-1
 399 1327 l 1,0,-1
197 1493 m 1,9,-1
 633 1493 l 2,10,11
 883.006 1493 883.006 1493 1012 1379.5 c 0,12,13
 1141 1265.99 1141 1265.99 1141 1047 c 0,14,15
 1141 825.995 1141 825.995 1012.5 713 c 0,16,17
 884 600 884 600 633 600 c 2,18,-1
 399 600 l 1,19,-1
 399 0 l 1,20,-1
 197 0 l 1,21,-1
 197 1493 l 1,9,-1
EndSplineSet
EndChar
StartChar: afii10035
Encoding: 1057 1057 1057
Width: 1233
Flags: HW
Fore
1073 53 m 1,0,1
 996.009 12.0024 996.009 12.0024 915 -8.5 c 0,2,3
 834 -29 834 -29 743 -29 c 0,4,5
 456 -29 456 -29 297.5 174 c 0,6,7
 139.278 376.643 139.278 376.643 139 745 c 0,8,9
 139 1111 139 1111 298.5 1315.5 c 0,10,11
 458.003 1520 458.003 1520 743 1520 c 0,12,13
 834.02 1520 834.02 1520 915 1499.5 c 0,14,15
 996.009 1478.99 996.009 1478.99 1073 1438 c 1,16,-1
 1073 1231 l 1,17,18
 999.009 1292 999.009 1292 914 1324 c 0,19,20
 828.986 1356 828.986 1356 743 1356 c 0,21,22
 546.003 1356 546.003 1356 448 1204 c 0,23,24
 350 1052 350 1052 350 745 c 0,25,26
 350 439 350 439 448 287 c 0,27,28
 546 135 546 135 743 135 c 0,29,30
 830.999 135 830.999 135 915.5 167 c 0,31,32
 999.991 198.996 999.991 198.996 1073 260 c 1,33,-1
 1073 53 l 1,0,1
EndSplineSet
EndChar
StartChar: afii10036
Encoding: 1058 1058 1058
Width: 1233
Flags: HW
Fore
47 1493 m 1,0,-1
 1186 1493 l 1,1,-1
 1186 1323 l 1,2,-1
 719 1323 l 1,3,-1
 719 0 l 1,4,-1
 516 0 l 1,5,-1
 516 1323 l 1,6,-1
 47 1323 l 1,7,-1
 47 1493 l 1,0,-1
EndSplineSet
EndChar
StartChar: afii10037
Encoding: 1059 1059 1059
Width: 1233
Flags: HW
Fore
858 733 m 1,0,1
 741 425 l 1,2,3
 683.939 272.837 683.939 272.837 619.472 166.799 c 2,4,5
 613 156 l 2,6,7
 569.499 82.2387 569.499 82.2387 493 39 c 0,8,9
 424 0 424 0 332 0 c 2,10,-1
 184 0 l 1,11,-1
 184 172 l 1,12,-1
 293 172 l 2,13,14
 373.999 172 373.999 172 420 219 c 0,15,16
 465.157 265.137 465.157 265.137 498.678 341.738 c 0,17,18
 512.738 373.868 512.738 373.868 528 416 c 1,19,-1
 104 1493 l 1,20,-1
 321 1493 l 1,21,-1
 632 663 l 1,22,-1
 940 1493 l 1,23,-1
 1153 1493 l 1,24,-1
 858 733 l 1,0,1
EndSplineSet
EndChar
StartChar: afii10038
Encoding: 1060 1060 1060
Width: 1233
Flags: HW
Fore
514 1366.99 m 1,0,-1
 514 1637 l 1,1,-1
 717 1637 l 1,2,-1
 717 1367.14 l 1,3,4
 925.547 1345.2 925.547 1345.2 1012.5 1210 c 0,5,6
 1090.01 1089.5 1090.01 1089.5 1107.87 893.012 c 0,7,8
 1116 803.566 1116 803.566 1116 670 c 0,9,10
 1116 401.788 1116 401.788 1074.17 270.922 c 0,11,12
 1051.89 201.241 1051.89 201.241 1012.5 140 c 0,13,14
 923.318 1.34337 923.318 1.34337 717 -23.371 c 1,15,-1
 717 -281 l 1,16,-1
 514 -281 l 1,17,-1
 514 -23.2906 l 1,18,19
 308.58 1.4551 308.58 1.4551 220 139 c 0,20,21
 144.502 256.231 144.502 256.231 126.229 436.868 c 0,22,23
 117 528.103 117 528.103 117 670 c 0,24,25
 117 947.796 117 947.796 161.021 1083.68 c 0,26,27
 183.114 1151.87 183.114 1151.87 220.5 1210 c 0,28,29
 307.193 1344.78 307.193 1344.78 514 1366.99 c 1,0,-1
514 145.728 m 1,18,-1
 514 1199.24 l 1,19,20
 414.414 1178.29 414.414 1178.29 375.5 1097 c 0,21,22
 335.908 1014.3 335.908 1014.3 330.093 851.321 c 1,23,24
 328 670 l 1,25,26
 328 434.484 328 434.484 343.338 353.487 c 0,27,28
 353.771 298.39 353.771 298.39 375.5 253 c 0,29,30
 415.265 169.935 415.265 169.935 514 145.728 c 1,18,-1
717 145.287 m 1,25,26
 817.434 169.098 817.434 169.098 857.5 252.5 c 0,27,28
 896.626 333.944 896.626 333.944 902.648 484.173 c 0,29,30
 905 542.83 905 542.83 905 670 c 0,31,32
 905 913.086 905 913.086 889.01 997.607 c 0,33,34
 878.509 1053.11 878.509 1053.11 857.5 1097 c 0,35,36
 818.296 1178.89 818.296 1178.89 717 1199.56 c 1,37,-1
 717 145.287 l 1,25,26
EndSplineSet
EndChar
StartChar: afii10039
Encoding: 1061 1061 1061
Width: 1233
Flags: HW
Fore
86 1493 m 1,0,-1
 303 1493 l 1,1,-1
 631 930 l 1,2,-1
 965 1493 l 1,3,-1
 1182 1493 l 1,4,-1
 735 791 l 1,5,-1
 1214 0 l 1,6,-1
 997 0 l 1,7,-1
 631 643 l 1,8,-1
 236 0 l 1,9,-1
 18 0 l 1,10,-1
 518 791 l 1,11,-1
 86 1493 l 1,0,-1
EndSplineSet
EndChar
StartChar: afii10040
Encoding: 1062 1062 1062
Width: 1233
Flags: HW
Fore
58.5 0 m 1,0,-1
 971.5 0 l 1,1,-1
 971.5 -322 l 1,2,-1
 1184.5 -322 l 1,3,-1
 1184.5 170 l 1,4,-1
 1017.5 170 l 1,5,-1
 1017.5 1493 l 1,6,-1
 814.5 1493 l 1,7,-1
 814.5 170 l 1,8,-1
 261.5 170 l 1,9,-1
 261.5 1493 l 1,10,-1
 58.5 1493 l 1,11,-1
 58.5 0 l 1,0,-1
EndSplineSet
EndChar
StartChar: afii10041
Encoding: 1063 1063 1063
Width: 1233
Flags: HW
Fore
140 1030 m 2,0,-1
 140 1495 l 1,1,-1
 343 1495 l 1,2,-1
 343 1056 l 2,3,4
 343 905 343 905 396 834 c 0,5,6
 449 763 449 763 562 763 c 0,7,8
 667.866 763 667.866 763 755.315 804.53 c 0,9,10
 801.038 826.244 801.038 826.244 822.5 854.5 c 0,11,12
 892 946 892 946 892 1117 c 1,13,-1
 892 1495 l 1,14,-1
 1095 1495 l 1,15,-1
 1095 0 l 1,16,-1
 892 0 l 1,17,-1
 892 718 l 1,18,19
 854.76 676.463 854.76 676.463 806.5 651.839 c 2,20,21
 759 626.5 l 1,22,23
 695.073 588.829 695.073 588.829 545.823 578.745 c 1,24,25
 498 577 l 1,26,27
 338.495 577 338.495 577 249.845 661.12 c 0,28,29
 235.821 674.428 235.821 674.428 224.5 689.5 c 0,30,31
 140 802.007 140 802.007 140 1030 c 2,0,-1
EndSplineSet
EndChar
StartChar: afii10042
Encoding: 1064 1064 1064
Width: 1233
Flags: HW
Fore
1114 0 m 17,0,-1
 113 0 l 1,1,-1
 113 1493 l 1,2,-1
 297 1493 l 1,3,-1
 297 184 l 1,4,-1
 522 184 l 1,5,-1
 522 1434 l 1,6,-1
 706 1434 l 1,7,-1
 706 184 l 1,8,-1
 930 184 l 1,9,-1
 930 1493 l 1,10,-1
 1114 1493 l 9,11,-1
 1114 0 l 17,0,-1
EndSplineSet
EndChar
StartChar: afii10043
Encoding: 1065 1065 1065
Width: 1233
Flags: HW
Fore
20.333 0 m 1,0,-1
 20.333 1493 l 1,1,-1
 204.333 1493 l 1,2,-1
 204.333 184 l 1,3,-1
 429.333 184 l 1,4,-1
 429.333 1434 l 1,5,-1
 613.333 1434 l 1,6,-1
 613.333 184 l 1,7,-1
 837.333 184 l 1,8,-1
 837.333 1493 l 1,9,-1
 1021.33 1493 l 1,10,-1
 1021.33 145 l 1,11,-1
 1192.33 145 l 1,12,-1
 1192.33 -312 l 1,13,-1
 989.333 -312 l 1,14,-1
 989.333 0 l 1,15,-1
 20.333 0 l 1,0,-1
EndSplineSet
EndChar
StartChar: afii10044
Encoding: 1066 1066 1066
Width: 1233
Flags: HW
Fore
495 166 m 1,0,-1
 495 727 l 1,1,-1
 633 727 l 2,2,3
 773 727 773 727 851.5 653 c 0,4,5
 930 579 930 579 930 446 c 0,6,7
 930 313 930 313 852 239.5 c 0,8,9
 774 166 774 166 633 166 c 2,10,-1
 495 166 l 1,0,-1
293 0 m 1,9,-1
 633 0 l 2,10,11
 883.005 0 883.005 0 1012 113.5 c 0,12,13
 1141 227.005 1141 227.005 1141 446 c 0,14,15
 1141 667.005 1141 667.005 1012.5 780 c 0,16,17
 883.999 893 883.999 893 633 893 c 2,18,-1
 495 893 l 1,19,-1
 495 1493 l 1,20,-1
 32 1493 l 1,21,-1
 32 1323 l 1,0,0
 293 1323 l 1,0,0
 293 0 l 1,9,-1
EndSplineSet
EndChar
StartChar: afii10045
Encoding: 1067 1067 1067
Width: 1233
Flags: HW
Fore
797 1493 m 1,0,-1
 1271 1493 l 1,1,-1
 1271 1323 l 1,2,-1
 1134 1323 l 1,3,-1
 1134 170 l 1,4,-1
 1271 170 l 1,5,-1
 1271 0 l 1,6,-1
 797 0 l 1,7,-1
 797 170 l 1,8,-1
 931 170 l 1,9,-1
 931 1323 l 1,10,-1
 797 1323 l 1,11,-1
 797 1493 l 1,0,-1
267 166 m 1,0,-1
 267 727 l 1,1,-1
 358 727 l 2,2,3
 477 727 477 727 537.5 653 c 0,4,5
 598 579 598 579 598 446 c 0,6,7
 598 296.038 598 296.038 538 239.5 c 0,8,9
 460 166 460 166 358 166 c 2,10,-1
 267 166 l 1,0,-1
65 0 m 1,9,-1
 358 0 l 2,10,11
 551.006 0 551.006 0 680 113.5 c 0,12,13
 809 227.005 809 227.005 809 446 c 0,14,15
 809 667.005 809 667.005 680.5 780 c 0,16,17
 552 893 552 893 358 893 c 2,18,-1
 267 893 l 1,19,-1
 267 1493 l 1,20,-1
 65 1493 l 1,21,-1
 65 0 l 1,9,-1
EndSplineSet
EndChar
StartChar: afii10046
Encoding: 1068 1068 1068
Width: 1233
Flags: HW
Fore
399 166 m 1,0,-1
 399 727 l 1,1,-1
 633 727 l 2,2,3
 773 727 773 727 851.5 653 c 0,4,5
 930 579 930 579 930 446 c 0,6,7
 930 313 930 313 852 239.5 c 0,8,9
 774 166 774 166 633 166 c 2,10,-1
 399 166 l 1,0,-1
197 0 m 1,9,-1
 633 0 l 2,10,11
 883.005 0 883.005 0 1012 113.5 c 0,12,13
 1141 227.005 1141 227.005 1141 446 c 0,14,15
 1141 667.005 1141 667.005 1012.5 780 c 0,16,17
 884 893 884 893 633 893 c 2,18,-1
 399 893 l 1,19,-1
 399 1493 l 1,20,-1
 197 1493 l 1,21,-1
 197 0 l 1,9,-1
EndSplineSet
EndChar
StartChar: afii10047
Encoding: 1069 1069 1069
Width: 1233
Flags: HW
Fore
139 53 m 1,0,1
 215.99 12.002 215.99 12.002 297 -8.5 c 0,2,3
 378 -29 378 -29 469 -29 c 0,4,5
 756 -29 756 -29 914.5 174 c 0,6,7
 1072.72 376.644 1072.72 376.644 1073 745 c 0,8,9
 1073 1111 1073 1111 913.5 1315.5 c 0,10,11
 753.996 1520 753.996 1520 469 1520 c 0,12,13
 377.98 1520 377.98 1520 297 1499.5 c 0,14,15
 215.99 1478.99 215.99 1478.99 139 1438 c 1,16,-1
 139 1231 l 1,17,18
 212.991 1292 212.991 1292 298 1324 c 0,19,20
 383.014 1356 383.014 1356 469 1356 c 0,21,22
 665.997 1356 665.997 1356 764 1204 c 0,23,24
 838.921 1087.8 838.921 1087.8 856.565 881 c 1,25,-1
 230 881 l 1,26,-1
 230 711 l 1,27,-1
 861.688 711 l 1,28,29
 856.478 430.434 856.478 430.434 764 287 c 0,30,31
 666 135 666 135 469 135 c 0,32,33
 381.001 135 381.001 135 296.5 167 c 0,34,35
 212.009 198.996 212.009 198.996 139 260 c 1,36,-1
 139 53 l 1,0,1
EndSplineSet
EndChar
StartChar: afii10048
Encoding: 1070 1070 1070
Width: 1233
Flags: HW
Fore
-40 1493 m 1,0,-1
 434 1493 l 1,1,-1
 434 1323 l 1,2,-1
 297 1323 l 1,3,-1
 297 836 l 1,4,-1
 416.779 836 l 1,5,6
 429.824 1159.05 429.824 1159.05 538.5 1328 c 2,7,8
 604.528 1431.12 l 1,9,10
 647.745 1491.11 647.745 1491.11 706.016 1508.33 c 0,11,12
 745.494 1520 745.494 1520 806 1520 c 0,13,14
 918.518 1520 918.518 1520 972.025 1472.53 c 0,15,16
 999.742 1447.95 999.742 1447.95 1049.12 1368.37 c 2,17,18
 1074.5 1328 l 2,19,20
 1198 1135.99 1198 1135.99 1198 745 c 0,21,22
 1198 355.008 1198 355.008 1074.5 163 c 0,23,24
 1003.03 51.8904 1003.03 51.8904 950.573 14.0749 c 0,25,26
 892.668 -27.6666 892.668 -27.6666 806 -29 c 0,27,28
 699.977 -30.6309 699.977 -30.6309 620.319 52.9555 c 0,29,30
 583.013 92.1022 583.013 92.1022 538 162 c 0,31,32
 427.732 333.229 427.732 333.229 416.318 666 c 1,33,-1
 297 666 l 1,34,-1
 297 170 l 1,35,-1
 434 170 l 1,36,-1
 434 0 l 1,37,-1
 -40 0 l 1,38,-1
 -40 170 l 1,39,-1
 94 170 l 1,40,-1
 94 1323 l 1,41,-1
 -40 1323 l 1,42,-1
 -40 1493 l 1,0,-1
987 745 m 0,43,44
 987 1074 987 1074 919.5 1215 c 0,45,46
 874.943 1308.07 874.943 1308.07 870.884 1314.69 c 0,47,48
 845.978 1355.3 845.978 1355.3 806 1356 c 0,49,50
 759.926 1356.81 759.926 1356.81 740.301 1323.71 c 1,51,52
 721.785 1282.35 l 1,53,54
 704.647 1238.29 704.647 1238.29 693.5 1215 c 0,55,56
 626 1074 626 1074 626 745 c 0,57,58
 626 417 626 417 693.5 276 c 2,59,60
 739.737 179.262 l 1,61,62
 770.535 137.649 770.535 137.649 806 135 c 1,63,64
 848.869 135 848.869 135 871.054 171.386 c 0,65,66
 874.238 176.608 874.238 176.608 910.536 256.321 c 0,67,68
 915.074 266.287 915.074 266.287 919.5 275.5 c 0,69,70
 987 416 987 416 987 745 c 0,43,44
EndSplineSet
EndChar
StartChar: afii10049
Encoding: 1071 1071 1071
Width: 1233
Flags: HW
Fore
616 705 m 1,0,1
 538 685 538 685 483 629.5 c 0,2,3
 428.001 574.001 428.001 574.001 346 408 c 2,4,-1
 143 0 l 1,5,-1
 360 0 l 1,6,-1
 538 377 l 1,7,8
 615 538 615 538 676.5 584.5 c 0,9,10
 738 631 738 631 837 631 c 2,11,-1
 1030 631 l 1,12,-1
 1030 0 l 1,13,-1
 1233 0 l 1,14,-1
 1233 1493 l 1,15,-1
 817 1493 l 2,16,17
 571 1493 571 1493 440 1382 c 0,18,19
 309 1271 309 1271 309 1061 c 0,20,21
 309 913 309 913 389.5 819.5 c 0,22,23
 470 726 470 726 616 705 c 1,0,1
1030 1327 m 1,20,-1
 1030 797 l 1,21,-1
 809 797 l 2,22,23
 664 797 664 797 593 862 c 0,24,25
 522 927 522 927 522 1061 c 0,26,27
 522 1189.99 522 1189.99 597.5 1258.5 c 0,28,29
 672.994 1327 672.994 1327 817 1327 c 2,30,-1
 1030 1327 l 1,20,-1
EndSplineSet
EndChar
StartChar: afii10065
Encoding: 1072 1072 1072
Width: 1233
Flags: HW
Fore
702 563 m 1,0,-1
 641 563 l 2,1,2
 479.999 563 479.999 563 398.5 506.5 c 0,3,4
 317 449.999 317 449.999 317 338 c 0,5,6
 317 236.999 317 236.999 378 181 c 0,7,8
 439.001 125 439.001 125 547 125 c 0,9,10
 699 125 699 125 786 230.5 c 0,11,12
 873 336 873 336 874 522 c 1,13,-1
 874 563 l 1,14,-1
 702 563 l 1,0,-1
1059 639 m 2,12,-1
 1059 0 l 1,13,-1
 874 0 l 1,14,-1
 874 166 l 1,15,16
 815 65.9999 815 65.9999 725.5 18.5 c 0,17,18
 636 -29 636 -29 508 -29 c 0,19,20
 337 -29 337 -29 235 67.5 c 0,21,22
 133 163.999 133 163.999 133 326 c 0,23,24
 133 513 133 513 258.5 610 c 0,25,26
 384 707 384 707 627 707 c 2,27,-1
 874 707 l 1,28,-1
 874 736 l 1,29,30
 873 870.001 873 870.001 806 930.5 c 0,31,32
 739 991 739 991 592 991 c 0,33,34
 498 991 498 991 402 964 c 0,35,36
 306 937 306 937 215 885 c 1,37,-1
 215 1069 l 1,38,39
 317 1108 317 1108 410.5 1127.5 c 0,40,41
 504 1147 504 1147 592 1147 c 0,42,43
 730.987 1147 730.987 1147 829.5 1106 c 0,44,45
 927.999 1065.01 927.999 1065.01 989 983 c 0,46,47
 1026.99 933 1026.99 933 1043 859.5 c 0,48,49
 1059 786.023 1059 786.023 1059 639 c 2,12,-1
EndSplineSet
EndChar
StartChar: afii10066
Encoding: 1073 1073 1073
Width: 1233
Flags: HW
Fore
616 991 m 0,0,1
 475.995 991 475.995 991 404 882 c 0,2,3
 332 772.992 332 772.992 332 559 c 0,4,5
 332 346 332 346 404 236.5 c 0,6,7
 476 127 476 127 616 127 c 0,8,9
 757 127 757 127 829 236.5 c 0,10,11
 901 346 901 346 901 559 c 0,12,13
 901 772.992 901 772.992 829 882 c 0,14,15
 757.005 991 757.005 991 616 991 c 0,0,1
616 1147 m 0,12,13
 849.012 1147 849.012 1147 972.5 996 c 0,14,15
 1096 844.986 1096 844.986 1096 559 c 0,16,17
 1096 271.992 1096 271.992 973 121.5 c 0,18,19
 850.338 -28.5784 850.338 -28.5784 616 -29 c 0,20,21
 383.006 -29 383.006 -29 260 121.5 c 0,22,23
 137 271.992 137 271.992 137 559 c 0,24,25
 137 787.566 137 787.566 223.62 940.431 c 0,26,27
 259.624 1003.97 259.624 1003.97 308.74 1046.24 c 1,28,29
 228.802 1093.46 228.802 1093.46 187.706 1183.18 c 0,30,31
 164 1234.94 164 1234.94 164 1284 c 0,32,33
 164 1408.43 164 1408.43 247.121 1471.67 c 0,34,35
 266.431 1486.37 266.431 1486.37 292 1500 c 0,36,37
 396.507 1555.74 396.507 1555.74 516 1556 c 2,38,-1
 1024 1557 l 1,39,-1
 1024 1380 l 1,40,-1
 552 1379 l 2,41,42
 375.693 1378.63 375.693 1378.63 364.571 1288.56 c 1,43,44
 364 1272 l 1,45,46
 366.757 1214.05 366.757 1214.05 393.876 1191.34 c 0,47,48
 397.334 1188.45 397.334 1188.45 428 1168 c 0,49,50
 472.545 1138.3 472.545 1138.3 580.966 1145.91 c 0,51,52
 609.095 1147.88 609.095 1147.88 616 1147 c 0,12,13
EndSplineSet
EndChar
StartChar: afii10067
Encoding: 1074 1074 1074
Width: 1233
Flags: HW
Fore
1052 328 m 0,0,1
 1052 174.519 1052 174.519 945 92.1814 c 0,2,3
 828.126 2.24146 828.126 2.24146 592 2 c 2,4,-1
 198 2 l 1,5,-1
 198 1120 l 1,6,-1
 558 1120 l 2,7,8
 727.583 1120 727.583 1120 803.684 1091.26 c 0,9,10
 840.422 1077.39 840.422 1077.39 873 1054 c 0,11,12
 989 969.636 989 969.636 989 804 c 0,13,14
 989 705.838 989 705.838 936.414 648.17 c 1,15,16
 905.885 619.279 l 1,17,18
 894.785 610.254 l 1,19,20
 1034.8 537.271 1034.8 537.271 1050.26 367.284 c 0,21,22
 1052 348.128 1052 348.128 1052 328 c 0,0,1
380 506 m 1,14,-1
 380 165 l 1,15,-1
 592 165 l 2,16,17
 719.194 165 719.194 165 791 220 c 0,18,19
 840.808 259.211 840.808 259.211 852.852 292.222 c 0,20,21
 860.512 313.218 860.512 313.218 861 343 c 0,22,23
 862.895 393.23 862.895 393.23 822.799 430.783 c 0,24,25
 811.126 441.716 811.126 441.716 790 458 c 0,26,27
 729.027 506 729.027 506 592 506 c 2,28,-1
 380 506 l 1,14,-1
558 669 m 2,23,24
 680.378 669 680.378 669 735 712 c 0,25,26
 785.166 750.425 785.166 750.425 794.249 785.828 c 0,27,28
 798 800.449 798 800.449 798 820 c 0,29,30
 798 874.501 798 874.501 758.703 911.499 c 1,31,32
 734 932 l 1,33,34
 701 956 701 956 558 956 c 2,35,-1
 381 956 l 1,36,-1
 381 669 l 1,37,-1
 558 669 l 2,23,24
EndSplineSet
EndChar
StartChar: afii10068
Encoding: 1075 1075 1075
Width: 1233
Flags: HW
Fore
441 936 m 1,0,-1
 1009 936 l 1,1,-1
 1009 1120 l 1,2,-1
 257 1120 l 1,3,-1
 257 0 l 1,4,-1
 441 0 l 1,5,-1
 441 936 l 1,0,-1
EndSplineSet
EndChar
StartChar: afii10069
Encoding: 1076 1076 1076
Width: 1233
Flags: HW
Fore
1032.58 184 m 1,16,17
 1134 184 l 1,7,-1
 1134 -250 l 1,8,-1
 950 -250 l 1,9,-1
 950 0 l 1,10,-1
 295 0 l 1,11,-1
 295 -250 l 1,12,-1
 111 -250 l 1,13,-1
 111 184 l 1,14,-1
 205.93 184 l 2,7,8
 284.93 184 284.93 184 284.93 393 c 2,9,-1
 284.93 1120 l 1,12,-1
 1032.58 1120 l 1,13,-1
 1032.58 184 l 1,16,17
849.58 184 m 1,37,38
 849.58 971 l 1,28,-1
 450.93 971 l 1,29,-1
 450.93 387 l 1,30,31
 450.93 262.506 450.93 262.506 433.93 223 c 0,32,33
 423.93 199 423.93 199 430.93 191 c 0,34,35
 437.93 184 437.93 184 462.93 184 c 2,36,-1
 849.58 184 l 1,37,38
EndSplineSet
EndChar
StartChar: afii10070
Encoding: 1077 1077 1077
Width: 1233
Flags: HW
Fore
1112 606 m 2,0,-1
 1112 516 l 1,1,-1
 315 516 l 1,2,-1
 315 510 l 2,3,4
 315 327 315 327 410.5 227 c 0,5,6
 506 127 506 127 680 127 c 0,7,8
 768.002 127 768.002 127 864 155 c 0,9,10
 960.001 183.001 960.001 183.001 1069 240 c 1,11,-1
 1069 57 l 1,12,13
 964 14 964 14 866.5 -7.5 c 0,14,15
 769 -29 769 -29 678 -29 c 0,16,17
 417 -29 417 -29 270 127.5 c 0,18,19
 123 283.999 123 283.999 123 559 c 0,20,21
 123 827 123 827 267 987 c 0,22,23
 410.995 1147 410.995 1147 651 1147 c 0,24,25
 865.005 1147 865.005 1147 988.5 1002 c 0,26,27
 1112 856.994 1112 856.994 1112 606 c 2,0,-1
928 660 m 1,22,23
 924 822 924 822 851.5 906.5 c 0,24,25
 779 991 779 991 643 991 c 0,26,27
 510 991 510 991 424 903 c 0,28,29
 338 815 338 815 322 659 c 1,30,-1
 928 660 l 1,22,23
EndSplineSet
EndChar
StartChar: afii10072
Encoding: 1078 1078 1078
Width: 1233
Flags: HW
Fore
704 505 m 1,0,-1
 704 0 l 1,1,-1
 520 0 l 1,2,-1
 520 505 l 1,3,-1
 421 505 l 1,4,-1
 271 0 l 1,5,-1
 75 0 l 1,6,-1
 243 600 l 1,7,-1
 95 1120 l 1,8,-1
 291 1120 l 1,9,-1
 421 675 l 1,10,-1
 520 675 l 1,11,-1
 520 1120 l 1,12,-1
 704 1120 l 1,13,-1
 704 675 l 1,14,-1
 824 675 l 1,15,-1
 954 1120 l 1,16,-1
 1150 1120 l 1,17,-1
 1002 600 l 1,18,-1
 1170 0 l 1,19,-1
 974 0 l 1,20,-1
 824 505 l 1,21,-1
 704 505 l 1,0,-1
EndSplineSet
EndChar
StartChar: afii10073
Encoding: 1079 1079 1079
Width: 1233
Flags: HW
Fore
790.141 591.625 m 1,0,1
 875.471 572.876 875.471 572.876 933.693 518.22 c 1,2,3
 963.9 487.75 l 1,4,5
 1034.54 413.12 1034.54 413.12 1034.54 301.375 c 0,6,7
 1034.54 146.88 1034.54 146.88 909.112 58.75 c 0,8,9
 783.687 -29.375 783.687 -29.375 561.814 -29.375 c 0,10,11
 468.536 -29.375 468.536 -29.375 371.639 -15.125 c 0,12,13
 274.74 -0.875151 274.74 -0.875151 181.462 26.125 c 1,14,-1
 181.462 206.875 l 1,15,16
 231.109 185.51 231.109 185.51 348.694 160.784 c 0,17,18
 356.876 159.063 356.876 159.063 363.488 157.625 c 2,19,20
 486.087 129.319 l 1,21,22
 516.576 124.125 516.576 124.125 541.892 124.125 c 0,23,24
 662.281 124.125 662.281 124.125 734.534 168.664 c 0,25,26
 742.561 173.612 742.561 173.612 750.819 179.375 c 0,27,28
 810.809 221.243 810.809 221.243 824.699 268.474 c 0,29,30
 831.418 291.323 831.418 291.323 831.418 321.375 c 0,31,32
 831.418 374.67 831.418 374.67 798.271 405.205 c 0,33,34
 787.448 415.175 787.448 415.175 750.819 441.25 c 0,35,36
 658.983 506.625 658.983 506.625 541.569 506.625 c 2,37,-1
 415.107 506.625 l 1,38,-1
 415.107 670.125 l 1,39,-1
 541.569 670.125 l 2,40,41
 646.095 670.125 646.095 670.125 729.085 723.875 c 0,42,43
 776.177 754.375 776.177 754.375 786.614 769.528 c 0,44,45
 799.722 788.556 799.722 788.556 799.722 821.375 c 0,46,47
 799.722 867.426 799.722 867.426 772.781 890.724 c 1,48,49
 734.065 918.75 l 2,50,51
 676.232 959.38 676.232 959.38 600.644 963.979 c 2,52,53
 569.06 964.875 l 2,54,55
 488.486 964.875 488.486 964.875 402.429 949.875 c 0,56,57
 316.394 934.879 316.394 934.879 222.215 904.875 c 1,58,-1
 222.215 1084.38 l 1,59,60
 331.796 1108.37 331.796 1108.37 417.371 1120.38 c 0,61,62
 502.951 1132.38 502.951 1132.38 569.06 1132.38 c 0,63,64
 766.473 1132.38 766.473 1132.38 884.661 1050.25 c 0,65,66
 1002.84 968.126 1002.84 968.126 1002.84 832.375 c 0,67,68
 1002.84 740.119 1002.84 740.119 940.808 678.625 c 0,69,70
 890.894 629.14 890.894 629.14 853.863 612.019 c 0,71,72
 826.794 599.504 826.794 599.504 790.141 591.625 c 1,0,1
EndSplineSet
EndChar
StartChar: afii10074
Encoding: 1080 1080 1080
Width: 1233
Flags: HW
Fore
866 718 m 1,0,-1
 866 0 l 1,1,-1
 1050 0 l 1,2,-1
 1050 1120 l 1,3,-1
 866 1120 l 1,4,-1
 866 1029 l 1,5,-1
 379 311 l 1,6,-1
 379 1120 l 1,7,-1
 195 1120 l 1,8,-1
 195 0 l 1,9,-1
 379 0 l 1,10,-1
 866 718 l 1,0,-1
EndSplineSet
EndChar
StartChar: afii10076
Encoding: 1082 1082 1082
Width: 1233
Flags: HW
Fore
236 1120 m 1,0,-1
 426 1120 l 1,1,-1
 426 655 l 1,2,-1
 909 1120 l 1,3,-1
 1133 1120 l 1,4,-1
 692 698 l 1,5,-1
 1202 0 l 1,6,-1
 977 0 l 1,7,-1
 563 578 l 1,8,-1
 426 449 l 1,9,-1
 426 0 l 1,10,-1
 236 0 l 1,11,-1
 236 1120 l 1,0,-1
EndSplineSet
EndChar
StartChar: afii10077
Encoding: 1083 1083 1083
Width: 1233
Flags: HW
Fore
195 1120 m 1,0,-1
 1050 1120 l 1,1,-1
 1050 0 l 1,2,-1
 866 0 l 1,3,-1
 866 936 l 1,4,-1
 379 936 l 1,5,-1
 379 386 l 2,6,7
 379 190.983 379 190.983 289.5 85.5 c 0,8,9
 199.985 -20 199.985 -20 35 -20 c 2,10,-1
 -20 -20 l 1,11,-1
 -20 136 l 1,12,-1
 15 136 l 2,13,14
 105.006 136 105.006 136 150 198.5 c 0,15,16
 195 261.008 195 261.008 195 386 c 2,17,-1
 195 1120 l 1,0,-1
EndSplineSet
EndChar
StartChar: afii10078
Encoding: 1084 1084 1084
Width: 1233
Flags: HW
Fore
620 429.422 m 1,0,-1
 995 1120 l 1,1,-1
 1179 1120 l 1,2,-1
 1179 0 l 1,3,-1
 995 0 l 1,4,-1
 995 741 l 1,5,-1
 712 260 l 1,6,-1
 528 260 l 1,7,-1
 245 741 l 1,8,-1
 245 0 l 1,9,-1
 61 0 l 1,10,-1
 61 1120 l 1,11,-1
 245 1120 l 1,12,-1
 620 429.422 l 1,0,-1
EndSplineSet
EndChar
StartChar: afii10079
Encoding: 1085 1085 1085
Width: 1233
Flags: HW
Fore
866 505 m 1,0,-1
 866 0 l 1,1,-1
 1050 0 l 1,2,-1
 1050 1120 l 1,3,-1
 866 1120 l 1,4,-1
 866 675 l 1,5,-1
 379 675 l 1,6,-1
 379 1120 l 1,7,-1
 195 1120 l 1,8,-1
 195 0 l 1,9,-1
 379 0 l 1,10,-1
 379 505 l 1,11,-1
 866 505 l 1,0,-1
EndSplineSet
EndChar
StartChar: afii10080
Encoding: 1086 1086 1086
Width: 1233
Flags: HW
Fore
616 991 m 0,0,1
 476 991 476 991 404 882 c 0,2,3
 332 773 332 773 332 559 c 0,4,5
 332 346 332 346 404 236.5 c 0,6,7
 476 127 476 127 616 127 c 0,8,9
 757 127 757 127 829 236.5 c 0,10,11
 901 346 901 346 901 559 c 0,12,13
 901 773 901 773 829 882 c 0,14,15
 757 991 757 991 616 991 c 0,0,1
616 1147 m 0,12,13
 849.005 1147 849.005 1147 972.5 996 c 0,14,15
 1096 844.993 1096 844.993 1096 559 c 0,16,17
 1096 271.999 1096 271.999 973 121.5 c 0,18,19
 850 -29 850 -29 616 -29 c 0,20,21
 383 -29 383 -29 260 121.5 c 0,22,23
 137 271.999 137 271.999 137 559 c 0,24,25
 137 845 137 845 260 996 c 0,26,27
 382.996 1147 382.996 1147 616 1147 c 0,12,13
EndSplineSet
EndChar
StartChar: afii10081
Encoding: 1087 1087 1087
Width: 1233
Flags: HW
Fore
866 936 m 1,0,-1
 866 0 l 1,1,-1
 1050 0 l 1,2,-1
 1050 1120 l 1,3,-1
 195 1120 l 1,4,-1
 195 0 l 1,5,-1
 379 0 l 1,6,-1
 379 936 l 1,7,-1
 866 936 l 1,0,-1
EndSplineSet
EndChar
StartChar: afii10082
Encoding: 1088 1088 1088
Width: 1233
Flags: HW
Fore
375 141 m 1,0,-1
 375 -426 l 1,1,-1
 190 -426 l 1,2,-1
 190 1120 l 1,3,-1
 375 1120 l 1,4,-1
 375 977 l 1,5,6
 421.005 1060 421.005 1060 497.5 1103.5 c 0,7,8
 574 1147 574 1147 674 1147 c 0,9,10
 877.004 1147 877.004 1147 992.5 990 c 0,11,12
 1108 833 1108 833 1108 555 c 0,13,14
 1108 282.007 1108 282.007 992 126.5 c 0,15,16
 876 -29 876 -29 674 -29 c 0,17,18
 572 -29 572 -29 495.5 14.5 c 0,19,20
 419 58 419 58 375 141 c 1,0,-1
915 559 m 0,17,18
 915 773 915 773 847.5 882 c 0,19,20
 780 991 780 991 647 991 c 0,21,22
 513 991 513 991 444 881.5 c 0,23,24
 375 772 375 772 375 559 c 0,25,26
 375 347 375 347 444 237 c 0,27,28
 513 127 513 127 647 127 c 0,29,30
 780 127 780 127 847.5 236 c 0,31,32
 915 345 915 345 915 559 c 0,17,18
EndSplineSet
EndChar
StartChar: afii10083
Encoding: 1089 1089 1089
Width: 1233
Flags: HW
Fore
1061 57 m 1,0,1
 987.01 14.0029 987.01 14.0029 908.5 -7.5 c 0,2,3
 830 -29 830 -29 748 -29 c 0,4,5
 488 -29 488 -29 341.5 127 c 0,6,7
 195.339 282.638 195.339 282.638 195 559 c 0,8,9
 195 835.001 195 835.001 341.5 991 c 0,10,11
 488 1147 488 1147 748 1147 c 0,12,13
 829 1147 829 1147 906 1126 c 0,14,15
 982.983 1105 982.983 1105 1061 1061 c 1,16,-1
 1061 868 l 1,17,18
 987.989 933.005 987.989 933.005 914.5 962 c 0,19,20
 841 991 841 991 748 991 c 0,21,22
 575 991 575 991 482 879 c 0,23,24
 389 767 389 767 389 559 c 0,25,26
 389 352 389 352 482.5 239.5 c 0,27,28
 576 127 576 127 748 127 c 0,29,30
 844.001 127 844.001 127 920 156.5 c 0,31,32
 996.008 186.003 996.008 186.003 1061 248 c 1,33,-1
 1061 57 l 1,0,1
EndSplineSet
EndChar
StartChar: afii10084
Encoding: 1090 1090 1090
Width: 1233
Flags: HW
Fore
720 942 m 1,0,-1
 1031 942 l 1,1,-1
 1031 1120 l 1,2,-1
 225 1120 l 1,3,-1
 225 942 l 1,4,-1
 536 942 l 1,5,-1
 536 0 l 1,6,-1
 720 0 l 1,7,-1
 720 942 l 1,0,-1
EndSplineSet
EndChar
StartChar: afii10085
Encoding: 1091 1091 1091
Width: 1233
Flags: HW
Fore
858 360 m 1,0,1
 741 52 l 1,2,3
 642 -212.001 642 -212.001 608 -270 c 0,4,5
 562 -348 562 -348 493 -387 c 0,6,7
 424 -426 424 -426 332 -426 c 2,8,-1
 184 -426 l 1,9,-1
 184 -272 l 1,10,-1
 293 -272 l 2,11,12
 374 -272 374 -272 420 -225 c 0,13,14
 466 -178.001 466 -178.001 537 18 c 1,15,-1
 104 1120 l 1,16,-1
 299 1120 l 1,17,-1
 631 244 l 1,18,-1
 958 1120 l 1,19,-1
 1153 1120 l 1,20,-1
 858 360 l 1,0,1
EndSplineSet
EndChar
StartChar: afii10086
Encoding: 1092 1092 1092
Width: 1233
Flags: HW
Fore
520 1062.15 m 1,0,-1
 520 1307 l 1,1,-1
 704 1307 l 1,2,-1
 704 1062.94 l 1,3,4
 923.874 1042.05 923.874 1042.05 1015.5 930 c 0,5,6
 1101.6 824.716 1101.6 824.716 1118.98 654.396 c 0,7,8
 1125 595.419 1125 595.419 1125 519 c 0,9,10
 1125 290.038 1125 290.038 1061.21 169.528 c 0,11,12
 1042.13 133.466 1042.13 133.466 1016 101.5 c 0,13,14
 927.149 -7.20921 927.149 -7.20921 704 -25.5391 c 1,15,-1
 704 -231 l 1,16,-1
 520 -231 l 1,17,-1
 520 -24.8238 l 1,18,19
 303.078 -5.04128 303.078 -5.04128 216 101.5 c 0,20,21
 127.552 209.717 127.552 209.717 111.623 396.919 c 0,22,23
 107 451.252 107 451.252 107 519 c 0,24,25
 107 737.468 107 737.468 166.345 854.044 c 0,26,27
 186.699 894.027 186.699 894.027 216 930 c 0,28,29
 305.408 1039.77 305.408 1039.77 520 1062.15 c 1,0,-1
520 133.796 m 1,18,-1
 520 902.736 l 1,19,20
 403.312 881.574 403.312 881.574 360 816 c 0,21,22
 311.574 742.683 311.574 742.683 304.228 613.917 c 1,23,24
 302 519 l 1,25,26
 302 344.782 302 344.782 334.044 265.963 c 0,27,28
 344.681 239.797 344.681 239.797 360 216.5 c 0,29,30
 402.359 152.078 402.359 152.078 520 133.796 c 1,18,-1
704 904.163 m 1,25,-1
 704 132.579 l 1,26,27
 828.081 149.708 828.081 149.708 872 216.5 c 0,28,29
 921.415 291.652 921.415 291.652 928.224 432.232 c 0,30,31
 930 468.9 930 468.9 930 519 c 0,32,33
 930 686.716 930 686.716 899.973 762.437 c 0,34,35
 888.849 790.49 888.849 790.49 872 816 c 0,36,37
 826.985 884.151 826.985 884.151 704 904.163 c 1,25,-1
EndSplineSet
EndChar
StartChar: afii10087
Encoding: 1093 1093 1093
Width: 1233
Flags: HW
Fore
1118 1120 m 1,0,-1
 717 584 l 1,1,-1
 1157 0 l 1,2,-1
 944 0 l 1,3,-1
 616 449 l 1,4,-1
 289 0 l 1,5,-1
 76 0 l 1,6,-1
 516 584 l 1,7,-1
 115 1120 l 1,8,-1
 319 1120 l 1,9,-1
 616 715 l 1,10,-1
 911 1120 l 1,11,-1
 1118 1120 l 1,0,-1
EndSplineSet
EndChar
StartChar: afii10088
Encoding: 1094 1094 1094
Width: 1233
Flags: HW
Fore
1139.5 184 m 1,0,-1
 1139.5 -286 l 1,1,-1
 944.5 -286 l 1,2,-1
 944.5 0 l 1,3,-1
 103.5 0 l 1,4,-1
 103.5 1120 l 1,5,-1
 287.5 1120 l 1,6,-1
 287.5 184 l 1,7,-1
 774.5 184 l 1,8,-1
 774.5 1120 l 1,9,-1
 958.5 1120 l 1,10,-1
 958.5 184 l 1,11,-1
 1139.5 184 l 1,0,-1
EndSplineSet
EndChar
StartChar: afii10089
Encoding: 1095 1095 1095
Width: 1233
Flags: HW
Fore
195 855 m 2,0,-1
 195 1122 l 1,1,-1
 380 1122 l 1,2,-1
 380 855 l 2,3,4
 380 704 380 704 433 633 c 0,5,6
 486 562 486 562 599 562 c 0,7,8
 728 562 728 562 797.5 653.5 c 0,9,10
 867 745 867 745 867 916 c 1,11,-1
 867 1122 l 1,12,-1
 1051 1122 l 1,13,-1
 1051 0 l 1,14,-1
 867 0 l 1,15,-1
 867 566 l 1,16,17
 839.519 515.202 839.519 515.202 780.193 478.642 c 0,18,19
 783.117 480.444 783.117 480.444 734 451.5 c 0,20,21
 650 402 650 402 535 402 c 0,22,23
 364 402 364 402 279.5 514.5 c 0,24,25
 195 627.007 195 627.007 195 855 c 2,0,-1
EndSplineSet
EndChar
StartChar: afii10090
Encoding: 1096 1096 1096
Width: 1233
Flags: HW
Fore
1114 0 m 1,0,-1
 113 0 l 1,1,-1
 113 1120 l 1,2,-1
 297 1120 l 1,3,-1
 297 184 l 1,4,-1
 522 184 l 1,5,-1
 522 1085 l 1,6,-1
 706 1085 l 1,7,-1
 706 184 l 1,8,-1
 930 184 l 1,9,-1
 930 1120 l 1,10,-1
 1114 1120 l 1,11,-1
 1114 0 l 1,0,-1
EndSplineSet
EndChar
StartChar: afii10091
Encoding: 1097 1097 1097
Width: 1233
Flags: HW
Fore
20.333 0 m 1,0,-1
 20.333 1120 l 1,1,-1
 204.333 1120 l 1,2,-1
 204.333 184 l 1,3,-1
 429.333 184 l 1,4,-1
 429.333 1085 l 1,5,-1
 613.333 1085 l 1,6,-1
 613.333 184 l 1,7,-1
 837.333 184 l 1,8,-1
 837.333 1120 l 1,9,-1
 1021.33 1120 l 1,10,-1
 1021.33 145 l 1,11,-1
 1192.33 145 l 1,12,-1
 1192.33 -312 l 1,13,-1
 989.333 -312 l 1,14,-1
 989.333 0 l 1,15,-1
 20.333 0 l 1,0,-1
EndSplineSet
EndChar
StartChar: afii10092
Encoding: 1098 1098 1098
Width: 1233
Flags: HW
Fore
513.488 165.125 m 1,0,-1
 513.488 522.875 l 1,1,-1
 725.398 522.875 l 2,2,3
 852.183 522.875 852.183 522.875 923.271 467.375 c 0,4,5
 967.837 432.583 967.837 432.583 977.271 419.372 c 0,6,7
 994.361 395.438 994.361 395.438 994.361 351.125 c 0,8,9
 994.361 286.563 994.361 286.563 954.855 247.078 c 0,10,11
 943.292 235.521 943.292 235.521 923.725 220.25 c 0,12,13
 853.089 165.125 853.089 165.125 725.398 165.125 c 2,14,-1
 513.488 165.125 l 1,0,-1
330.557 1.625 m 1,9,-1
 725.398 1.625 l 2,10,11
 951.802 1.625 951.802 1.625 1068.62 86.75 c 0,12,13
 1185.44 171.878 1185.44 171.878 1185.44 336.125 c 0,14,15
 1185.44 494.382 1185.44 494.382 1093.11 581.646 c 0,16,17
 1081.7 592.434 1081.7 592.434 1069.07 601.625 c 0,18,19
 952.703 686.375 952.703 686.375 725.398 686.375 c 2,20,-1
 513.488 686.375 l 1,21,-1
 513.488 1121.38 l 1,22,-1
 80 1121.38 l 1,23,-1
 80 972 l 1,0,0
 330.557 972 l 1,0,0
 330.557 1.625 l 1,9,-1
EndSplineSet
EndChar
StartChar: afii10093
Encoding: 1099 1099 1099
Width: 1233
Flags: HW
Fore
1120 1120 m 1,0,-1
 936 1120 l 1,1,-1
 936 0 l 1,2,-1
 1120 0 l 1,3,-1
 1120 1120 l 1,0,-1
277.488 165.125 m 1,0,-1
 277.488 522.875 l 1,1,-1
 385.398 522.875 l 2,2,3
 512.183 522.875 512.183 522.875 583.271 467.375 c 0,4,5
 627.837 432.583 627.837 432.583 637.271 419.372 c 0,6,7
 654.361 395.438 654.361 395.438 654.361 351.125 c 0,8,9
 654.361 286.563 654.361 286.563 614.855 247.078 c 0,10,11
 603.292 235.521 603.292 235.521 583.725 220.25 c 0,12,13
 513.089 165.125 513.089 165.125 385.398 165.125 c 2,14,-1
 277.488 165.125 l 1,0,-1
94.5566 1.625 m 1,9,-1
 385.398 1.625 l 2,10,11
 611.802 1.625 611.802 1.625 728.621 86.75 c 0,12,13
 845.439 171.878 845.439 171.878 845.439 336.125 c 0,14,15
 845.439 494.382 845.439 494.382 753.108 581.646 c 0,16,17
 741.695 592.434 741.695 592.434 729.073 601.625 c 0,18,19
 612.703 686.375 612.703 686.375 385.398 686.375 c 2,20,-1
 277.488 686.375 l 1,21,-1
 277.488 1121.38 l 1,22,-1
 94.5566 1121.38 l 1,23,-1
 94.5566 1.625 l 1,9,-1
EndSplineSet
EndChar
StartChar: afii10094
Encoding: 1100 1100 1100
Width: 1233
Flags: HW
Fore
380.488 165.125 m 1,0,-1
 380.488 522.875 l 1,1,-1
 592.398 522.875 l 2,2,3
 719.182 522.875 719.182 522.875 790.272 467.375 c 0,4,5
 834.837 432.583 834.837 432.583 844.27 419.372 c 0,6,7
 861.361 395.437 861.361 395.437 861.361 351.125 c 0,8,9
 861.361 286.564 861.361 286.564 821.856 247.078 c 0,10,11
 810.292 235.52 810.292 235.52 790.725 220.25 c 0,12,13
 720.089 165.125 720.089 165.125 592.398 165.125 c 2,14,-1
 380.488 165.125 l 1,0,-1
197.557 1.625 m 1,9,-1
 592.398 1.625 l 2,10,11
 818.802 1.625 818.802 1.625 935.621 86.75 c 0,12,13
 1052.44 171.878 1052.44 171.878 1052.44 336.125 c 0,14,15
 1052.44 494.382 1052.44 494.382 960.108 581.647 c 0,16,17
 948.695 592.434 948.695 592.434 936.073 601.625 c 0,18,19
 819.703 686.375 819.703 686.375 592.398 686.375 c 2,20,-1
 380.488 686.375 l 1,21,-1
 380.488 1121.38 l 1,22,-1
 197.557 1121.38 l 1,23,-1
 197.557 1.625 l 1,9,-1
EndSplineSet
EndChar
StartChar: afii10095
Encoding: 1101 1101 1101
Width: 1233
Flags: HW
Fore
195 57 m 1,0,1
 268.99 14.0029 268.99 14.0029 347.5 -7.5 c 0,2,3
 426 -29 426 -29 508 -29 c 0,4,5
 768 -29 768 -29 914.5 127 c 0,6,7
 1060.66 282.639 1060.66 282.639 1061 559 c 0,8,9
 1061 835.001 1061 835.001 914.5 991 c 0,10,11
 768 1147 768 1147 508 1147 c 0,12,13
 427 1147 427 1147 350 1126 c 0,14,15
 273.017 1105 273.017 1105 195 1061 c 1,16,-1
 195 868 l 1,17,18
 268.011 933.005 268.011 933.005 341.5 962 c 0,19,20
 415 991 415 991 508 991 c 0,21,22
 681 991 681 991 774 879 c 0,23,24
 843.214 795.646 843.214 795.646 860.916 659.12 c 1,25,-1
 324 660 l 1,26,-1
 324 516 l 1,27,-1
 865.94 516 l 1,28,29
 857.047 340.024 857.047 340.024 773.5 239.5 c 0,30,31
 680 127 680 127 508 127 c 0,32,33
 411.999 127 411.999 127 336 156.5 c 0,34,35
 259.992 186.004 259.992 186.004 195 248 c 1,36,-1
 195 57 l 1,0,1
EndSplineSet
EndChar
StartChar: afii10096
Encoding: 1102 1102 1102
Width: 1233
Flags: HW
Fore
784 1147 m 0,0,1
 945.005 1147 945.005 1147 1060.5 996 c 0,2,3
 1168 855.453 1168 855.453 1168 559 c 0,4,5
 1168 252.421 1168 252.421 1061 121.5 c 0,6,7
 938 -28.9995 938 -28.9995 784 -29 c 0,8,9
 631 -29 631 -29 508 121.5 c 1,10,11
 418.657 247.165 418.657 247.165 403.913 468 c 1,12,-1
 262 468 l 1,13,-1
 262 0 l 1,14,-1
 78 0 l 1,15,-1
 78 1120 l 1,16,-1
 262 1120 l 1,17,-1
 262 652 l 1,18,-1
 403.718 652 l 1,19,20
 418.054 885.579 418.054 885.579 508 996 c 0,21,22
 630.996 1147 630.996 1147 784 1147 c 0,0,1
784 991 m 0,23,24
 709.107 990.117 709.107 990.117 652 882 c 1,25,26
 596 745.995 596 745.995 596 559 c 0,27,28
 596 360.029 596 360.029 652 236.5 c 0,29,30
 700.93 128.263 700.93 128.263 784 127 c 0,31,32
 873.996 125.901 873.996 125.901 917 236.5 c 0,33,34
 973 380.521 973 380.521 973 559 c 0,35,36
 973 772.946 973 772.946 917 882 c 0,37,38
 860.864 991.32 860.864 991.32 784 991 c 0,23,24
EndSplineSet
EndChar
StartChar: afii10097
Encoding: 1103 1103 1103
Width: 1233
Flags: HW
Fore
504.417 528.892 m 1,0,1
 445.901 513.888 445.901 513.888 404.641 472.251 c 0,2,3
 364.273 431.517 364.273 431.517 301.863 306.082 c 2,4,-1
 149.572 0 l 1,5,-1
 329.366 0 l 1,6,-1
 445.901 243.825 l 1,7,8
 520.482 384.321 520.482 384.321 549.805 406.492 c 0,9,10
 595.941 441.376 595.941 441.376 670.212 441.376 c 2,11,-1
 798 441.376 l 1,12,-1
 798 0 l 1,13,-1
 984.291 0 l 1,14,-1
 984.291 1120.05 l 1,15,-1
 655.207 1120.05 l 2,16,17
 470.658 1120.05 470.658 1120.05 372.382 1036.78 c 0,18,19
 274.106 953.504 274.106 953.504 274.105 795.962 c 0,20,21
 274.105 684.933 274.105 684.933 334.497 614.789 c 0,22,23
 394.889 544.646 394.889 544.646 504.417 528.892 c 1,0,1
798 976.516 m 1,20,-1
 798 626.909 l 1,21,-1
 649.206 626.909 l 2,22,23
 554.427 626.909 554.427 626.909 501.163 675.673 c 0,24,25
 447.898 724.436 447.898 724.436 447.898 795.962 c 0,26,27
 447.898 873.734 447.898 873.734 504.538 925.127 c 0,28,29
 561.174 976.516 561.174 976.516 655.207 976.516 c 2,30,-1
 798 976.516 l 1,20,-1
EndSplineSet
EndChar
StartChar: afii10099
Encoding: 1106 1106 1106
Width: 1233
Flags: HW
Fore
1051 -11 m 2,0,1
 1051 -204.835 1051 -204.835 960.5 -311.5 c 0,2,3
 870.985 -417 870.985 -417 706 -417 c 2,4,-1
 572 -417 l 1,5,-1
 572 -261 l 1,6,-1
 686 -261 l 2,7,8
 776.006 -261 776.006 -261 821 -198.5 c 0,9,10
 866 -135.992 866 -135.992 866 -11 c 2,11,-1
 866 481 l 2,12,13
 866 631.997 866 631.997 813 703 c 0,14,15
 760.002 774 760.002 774 647 774 c 0,16,17
 517.992 774 517.992 774 448.5 682.5 c 0,18,19
 379 590.99 379 590.99 379 420 c 2,20,-1
 379 0 l 1,21,-1
 195 0 l 1,22,-1
 195 1192 l 1,23,-1
 5 1192 l 1,24,-1
 5 1362 l 1,25,-1
 195 1362 l 1,26,-1
 195 1556 l 1,27,-1
 379 1556 l 1,28,-1
 379 1362 l 1,29,-1
 757 1362 l 1,30,-1
 757 1192 l 1,31,-1
 379 1192 l 1,32,-1
 379 739 l 1,33,34
 428.011 835.007 428.011 835.007 512 884.5 c 0,35,36
 596 934 596 934 711 934 c 0,37,38
 882.008 934 882.008 934 966.5 821.5 c 0,39,40
 1051 708.993 1051 708.993 1051 481 c 2,41,-1
 1051 -11 l 2,0,1
EndSplineSet
EndChar
StartChar: afii10101
Encoding: 1108 1108 1108
Width: 1233
Flags: HW
Fore
1061 57 m 1,0,1
 987.01 14.0029 987.01 14.0029 908.5 -7.5 c 0,2,3
 830 -29 830 -29 748 -29 c 0,4,5
 488 -29 488 -29 341.5 127 c 0,6,7
 195.339 282.638 195.339 282.638 195 559 c 0,8,9
 195 835.001 195 835.001 341.5 991 c 0,10,11
 488 1147 488 1147 748 1147 c 0,12,13
 829 1147 829 1147 906 1126 c 0,14,15
 982.983 1105 982.983 1105 1061 1061 c 1,16,-1
 1061 868 l 1,17,18
 987.989 933.005 987.989 933.005 914.5 962 c 0,19,20
 841 991 841 991 748 991 c 0,21,22
 575 991 575 991 482 879 c 0,23,24
 412.786 795.646 412.786 795.646 395.084 659.12 c 1,25,-1
 932 660 l 1,26,-1
 932 516 l 1,27,-1
 390.06 516 l 1,28,29
 398.953 340.024 398.953 340.024 482.5 239.5 c 0,30,31
 576 127 576 127 748 127 c 0,32,33
 844.001 127 844.001 127 920 156.5 c 0,34,35
 996.008 186.003 996.008 186.003 1061 248 c 1,36,-1
 1061 57 l 1,0,1
EndSplineSet
EndChar
StartChar: afii10102
Encoding: 1109 1109 1109
Width: 1233
Flags: HW
Fore
973 1081 m 1,0,-1
 973 901 l 1,1,2
 894 947 894 947 814 970 c 0,3,4
 733.999 993 733.999 993 651 993 c 0,5,6
 526 993 526 993 464.5 952.5 c 0,7,8
 403 912 403 912 403 829 c 0,9,10
 403 754 403 754 449 717 c 0,11,12
 495 680 495 680 678 645 c 2,13,-1
 752 631 l 2,14,15
 889 605 889 605 959.5 527 c 0,16,17
 1030 449 1030 449 1030 324 c 0,18,19
 1030 157.999 1030 157.999 912 64.5 c 0,20,21
 794 -29 794 -29 584 -29 c 0,22,23
 501 -29 501 -29 410 -11.5 c 0,24,25
 319.002 5.99948 319.002 5.99948 213 41 c 1,26,-1
 213 231 l 1,27,28
 316.002 178 316.002 178 410 151.5 c 0,29,30
 503.999 125 503.999 125 588 125 c 0,31,32
 710 125 710 125 777 174.5 c 0,33,34
 844 224 844 224 844 313 c 0,35,36
 844 441 844 441 599 490 c 2,37,-1
 591 492 l 1,38,-1
 522 506 l 2,39,40
 363 537 363 537 290 610.5 c 0,41,42
 217 684 217 684 217 811 c 0,43,44
 217 972.005 217 972.005 326 1059.5 c 0,45,46
 435.007 1147 435.007 1147 637 1147 c 0,47,48
 727 1147 727 1147 810 1130.5 c 0,49,50
 893.001 1114 893.001 1114 973 1081 c 1,0,-1
EndSplineSet
EndChar
StartChar: afii10103
Encoding: 1110 1110 1110
Width: 1233
Flags: HW
Fore
256 1120 m 1,0,-1
 727 1120 l 1,1,-1
 727 143 l 1,2,-1
 1092 143 l 1,3,-1
 1092 0 l 1,4,-1
 178 0 l 1,5,-1
 178 143 l 1,6,-1
 543 143 l 1,7,-1
 543 977 l 1,8,-1
 256 977 l 1,9,-1
 256 1120 l 1,0,-1
543 1556 m 1,10,-1
 727 1556 l 1,11,-1
 727 1323 l 1,12,-1
 543 1323 l 1,13,-1
 543 1556 l 1,10,-1
EndSplineSet
EndChar
StartChar: afii10105
Encoding: 1112 1112 1112
Width: 1233
Flags: HW
Fore
600 -20 m 2,0,-1
 600 977 l 1,1,-1
 283 977 l 1,2,-1
 283 1120 l 1,3,-1
 784 1120 l 1,4,-1
 784 -20 l 2,5,6
 784 -215.001 784 -215.001 694.5 -320.5 c 0,7,8
 605 -426 605 -426 440 -426 c 2,9,-1
 186 -426 l 1,10,-1
 186 -270 l 1,11,-1
 420 -270 l 2,12,13
 510 -270 510 -270 555 -207.5 c 0,14,15
 600 -144.999 600 -144.999 600 -20 c 2,0,-1
600 1556 m 1,14,-1
 784 1556 l 1,15,-1
 784 1323 l 1,16,-1
 600 1323 l 1,17,-1
 600 1556 l 1,14,-1
EndSplineSet
EndChar
StartChar: afii10106
Encoding: 1113 1113 1113
Width: 1233
Flags: HW
Fore
865.98 684.748 m 1,0,-1
 866 1120 l 1,1,-1
 195 1120 l 1,2,-1
 195 386 l 2,3,4
 195 261.008 195 261.008 150 198.5 c 0,5,6
 105.006 136 105.006 136 15 136 c 2,7,-1
 -20 136 l 1,8,-1
 -20 -20 l 1,9,-1
 35 -20 l 2,10,11
 199.985 -20 199.985 -20 289.5 85.5 c 0,12,13
 379 190.983 379 190.983 379 386 c 2,14,-1
 379 936 l 1,15,-1
 682 936 l 1,16,-1
 682 0 l 1,17,-1
 911.844 0 l 2,18,19
 1000.25 0 1000.25 0 1059.3 33.6726 c 0,20,21
 1082.39 46.8388 1082.39 46.8388 1128.06 80.125 c 0,22,23
 1244.89 165.257 1244.89 165.257 1244.89 334.5 c 0,24,25
 1244.89 488.952 1244.89 488.952 1157.73 576.881 c 0,26,27
 1144.03 590.702 1144.03 590.702 1128.52 602 c 0,28,29
 1060.12 651.818 1060.12 651.818 1022.78 665.156 c 1,30,31
 978.273 676.798 l 1,32,33
 934.673 684.679 934.673 684.679 865.98 684.748 c 1,0,-1
866 521.227 m 1,22,23
 939.529 519.605 939.529 519.605 980.344 491.451 c 0,24,25
 987.824 486.291 987.824 486.291 995.719 479.75 c 0,26,27
 1053.81 431.609 1053.81 431.609 1053.81 349.5 c 0,28,29
 1053.81 259.456 1053.81 259.456 996.172 206.625 c 0,30,31
 969.94 182.582 969.94 182.582 950.04 175.283 c 1,32,33
 913.969 166.674 l 1,34,35
 892.928 163.689 892.928 163.689 866 163.506 c 1,36,-1
 866 521.227 l 1,22,23
EndSplineSet
EndChar
StartChar: afii10107
Encoding: 1114 1114 1114
Width: 1233
Flags: HW
Fore
839 1120 m 1,0,-1
 655 1120 l 1,1,-1
 655 675 l 1,2,-1
 291 675 l 1,3,-1
 291 1120 l 1,4,-1
 107 1120 l 1,5,-1
 107 0 l 1,6,-1
 291 0 l 1,7,-1
 291 505 l 1,8,-1
 655 505 l 1,9,-1
 655 0 l 1,10,-1
 884.844 0 l 2,11,12
 973.249 0 973.249 0 1032.3 33.6726 c 0,13,14
 1055.39 46.8389 1055.39 46.8389 1101.06 80.125 c 0,15,16
 1217.89 165.257 1217.89 165.257 1217.89 329.5 c 0,17,18
 1217.89 494.322 1217.89 494.322 1116.1 580.539 c 0,19,20
 1109.03 586.531 1109.03 586.531 1101.52 592 c 0,21,22
 1033.12 641.818 1033.12 641.818 995.776 655.156 c 1,23,24
 951.273 666.798 l 1,25,26
 907.673 674.679 907.673 674.679 838.98 674.748 c 1,27,-1
 839 1120 l 1,0,-1
839 504.228 m 1,18,19
 912.53 502.604 912.53 502.604 953.344 474.451 c 0,20,21
 960.824 469.291 960.824 469.291 968.719 462.75 c 0,22,23
 1012.67 426.324 1012.67 426.324 1022.4 384.322 c 0,24,25
 1026.81 365.288 1026.81 365.288 1026.81 341.5 c 0,26,27
 1026.81 261.038 1026.81 261.038 972.208 209.449 c 0,28,29
 970.721 208.045 970.721 208.045 969.172 206.625 c 0,30,31
 942.941 182.583 942.941 182.583 923.04 175.283 c 1,32,33
 886.969 166.675 l 1,34,35
 839 163.507 l 1,36,37
 839 504.228 l 1,18,19
EndSplineSet
EndChar
StartChar: afii10108
Encoding: 1115 1115 1115
Width: 1233
Flags: HW
Fore
379 1362 m 1,0,-1
 757 1362 l 1,1,-1
 757 1192 l 1,2,-1
 379 1192 l 1,3,-1
 379 739 l 1,4,5
 428.011 835.007 428.011 835.007 512 884.5 c 0,6,7
 596 934 596 934 711 934 c 0,8,9
 882.008 934 882.008 934 966.5 821.5 c 0,10,11
 1051 708.993 1051 708.993 1051 481 c 2,12,-1
 1051 0 l 1,13,-1
 866 0 l 1,14,-1
 866 481 l 2,15,16
 866 631.997 866 631.997 813 703 c 0,17,18
 760.002 774 760.002 774 647 774 c 0,19,20
 517.992 774 517.992 774 448.5 682.5 c 0,21,22
 379 590.99 379 590.99 379 420 c 2,23,-1
 379 0 l 1,24,-1
 195 0 l 1,25,-1
 195 1192 l 1,26,-1
 5 1192 l 1,27,-1
 5 1362 l 1,28,-1
 195 1362 l 1,29,-1
 195 1556 l 1,30,-1
 379 1556 l 1,31,-1
 379 1362 l 1,0,-1
EndSplineSet
EndChar
StartChar: afii10193
Encoding: 1119 1119 1119
Width: 1233
Flags: HW
Fore
714 0 m 1,0,-1
 714 -276 l 1,1,-1
 531 -276 l 1,2,-1
 531 0 l 1,3,-1
 195 0 l 1,4,-1
 195 1120 l 1,5,-1
 379 1120 l 1,6,-1
 379 184 l 1,7,-1
 866 184 l 1,8,-1
 866 1120 l 1,9,-1
 1050 1120 l 1,10,-1
 1050 0 l 1,11,-1
 714 0 l 1,0,-1
EndSplineSet
EndChar
StartChar: uni2010
Encoding: 8208 8208 8208
Width: 1233
Flags: W
Fore
356 643 m 1,0,-1
 877 643 l 1,1,-1
 877 479 l 1,2,-1
 356 479 l 1,3,-1
 356 643 l 1,0,-1
EndSplineSet
EndChar
StartChar: figuredash
Encoding: 8210 8210 8210
Width: 1233
Flags: W
Fore
0 633 m 1,0,-1
 1233 633 l 1,1,-1
 1233 492 l 1,2,-1
 0 492 l 1,3,-1
 0 633 l 1,0,-1
EndSplineSet
EndChar
StartChar: endash
Encoding: 8211 8211 8211
Width: 1233
Flags: W
Fore
0 633 m 1,0,-1
 1233 633 l 1,1,-1
 1233 492 l 1,2,-1
 0 492 l 1,3,-1
 0 633 l 1,0,-1
EndSplineSet
EndChar
StartChar: emdash
Encoding: 8212 8212 8212
Width: 1233
Flags: W
Fore
0 633 m 1,0,-1
 1233 633 l 1,1,-1
 1233 492 l 1,2,-1
 0 492 l 1,3,-1
 0 633 l 1,0,-1
EndSplineSet
EndChar
StartChar: afii00208
Encoding: 8213 8213 8213
Width: 1233
Flags: W
Fore
0 633 m 1,0,-1
 1233 633 l 1,1,-1
 1233 492 l 1,2,-1
 0 492 l 1,3,-1
 0 633 l 1,0,-1
EndSplineSet
EndChar
StartChar: quoteleft
Encoding: 8216 8216 8216
Width: 1233
Flags: W
Fore
715 967 m 1,0,-1
 463 967 l 1,1,-1
 463 1174 l 1,2,-1
 659 1556 l 1,3,-1
 813 1556 l 1,4,-1
 715 1174 l 1,5,-1
 715 967 l 1,0,-1
EndSplineSet
EndChar
StartChar: quoteright
Encoding: 8217 8217 8217
Width: 1233
Flags: W
Fore
561 1556 m 1,0,-1
 813 1556 l 1,1,-1
 813 1350 l 1,2,-1
 616 967 l 1,3,-1
 463 967 l 1,4,-1
 561 1350 l 1,5,-1
 561 1556 l 1,0,-1
EndSplineSet
EndChar
StartChar: quotesinglbase
Encoding: 8218 8218 8218
Width: 1233
Flags: W
Fore
502 303 m 1,0,-1
 754 303 l 1,1,-1
 754 96 l 1,2,-1
 557 -287 l 1,3,-1
 403 -287 l 1,4,-1
 502 96 l 1,5,-1
 502 303 l 1,0,-1
EndSplineSet
EndChar
StartChar: quotedblleft
Encoding: 8220 8220 8220
Width: 1233
Flags: W
Fore
924 967 m 1,0,-1
 672 967 l 1,1,-1
 672 1174 l 1,2,-1
 868 1556 l 1,3,-1
 1022 1556 l 1,4,-1
 924 1174 l 1,5,-1
 924 967 l 1,0,-1
465 967 m 1,6,-1
 211 967 l 1,7,-1
 211 1174 l 1,8,-1
 410 1556 l 1,9,-1
 563 1556 l 1,10,-1
 465 1174 l 1,11,-1
 465 967 l 1,6,-1
EndSplineSet
EndChar
StartChar: quotedblright
Encoding: 8221 8221 8221
Width: 1233
Flags: W
Fore
768 1556 m 1,0,-1
 1020 1556 l 1,1,-1
 1020 1350 l 1,2,-1
 823 967 l 1,3,-1
 670 967 l 1,4,-1
 768 1350 l 1,5,-1
 768 1556 l 1,0,-1
309 1556 m 1,6,-1
 561 1556 l 1,7,-1
 561 1350 l 1,8,-1
 365 967 l 1,9,-1
 211 967 l 1,10,-1
 309 1350 l 1,11,-1
 309 1556 l 1,6,-1
EndSplineSet
EndChar
StartChar: quotedblbase
Encoding: 8222 8222 8222
Width: 1233
Flags: W
Fore
768 303 m 1,0,-1
 1020 303 l 1,1,-1
 1020 96 l 1,2,-1
 823 -287 l 1,3,-1
 670 -287 l 1,4,-1
 768 96 l 1,5,-1
 768 303 l 1,0,-1
309 303 m 1,6,-1
 561 303 l 1,7,-1
 561 96 l 1,8,-1
 365 -287 l 1,9,-1
 211 -287 l 1,10,-1
 309 96 l 1,11,-1
 309 303 l 1,6,-1
EndSplineSet
EndChar
StartChar: dagger
Encoding: 8224 8224 8224
Width: 1233
Flags: W
Fore
528 1493 m 1,0,-1
 705 1493 l 1,1,-1
 705 1073 l 1,2,-1
 1071 1073 l 1,3,-1
 1071 920 l 1,4,-1
 705 920 l 1,5,-1
 705 -197 l 1,6,-1
 528 -197 l 1,7,-1
 528 920 l 1,8,-1
 162 920 l 1,9,-1
 162 1073 l 1,10,-1
 528 1073 l 1,11,-1
 528 1493 l 1,0,-1
EndSplineSet
EndChar
StartChar: daggerdbl
Encoding: 8225 8225 8225
Width: 1233
Flags: W
Fore
1071 223 m 1,0,-1
 705 223 l 1,1,-1
 705 -197 l 1,2,-1
 528 -197 l 1,3,-1
 528 223 l 1,4,-1
 162 223 l 1,5,-1
 162 377 l 1,6,-1
 528 377 l 1,7,-1
 528 920 l 1,8,-1
 162 920 l 1,9,-1
 162 1073 l 1,10,-1
 528 1073 l 1,11,-1
 528 1493 l 1,12,-1
 705 1493 l 1,13,-1
 705 1073 l 1,14,-1
 1071 1073 l 1,15,-1
 1071 920 l 1,16,-1
 705 920 l 1,17,-1
 705 377 l 1,18,-1
 1071 377 l 1,19,-1
 1071 223 l 1,0,-1
EndSplineSet
EndChar
StartChar: bullet
Encoding: 8226 8226 8226
Width: 1233
Flags: W
Fore
319 762 m 0,0,1
 319 886 319 886 405 971.5 c 128,-1,2
 491 1057 491 1057 616 1057 c 0,3,4
 740 1057 740 1057 826.5 971 c 128,-1,5
 913 885 913 885 913 762 c 0,6,7
 913 638 913 638 826 551.5 c 128,-1,8
 739 465 739 465 614 465 c 0,9,10
 490 465 490 465 404.5 550.5 c 128,-1,11
 319 636 319 636 319 762 c 0,0,1
EndSplineSet
EndChar
StartChar: ellipsis
Encoding: 8230 8230 8230
Width: 1233
Flags: W
Fore
80 305 m 1,0,-1
 332 305 l 1,1,-1
 332 0 l 1,2,-1
 80 0 l 1,3,-1
 80 305 l 1,0,-1
899 305 m 1,4,-1
 1151 305 l 1,5,-1
 1151 0 l 1,6,-1
 899 0 l 1,7,-1
 899 305 l 1,4,-1
489 305 m 1,8,-1
 741 305 l 1,9,-1
 741 0 l 1,10,-1
 489 0 l 1,11,-1
 489 305 l 1,8,-1
EndSplineSet
Ligature: 0 0 'liga' period period period
EndChar
StartChar: perthousand
Encoding: 8240 8240 8240
Width: 1233
Flags: W
Fore
72 567 m 1,0,-1
 35 664 l 1,1,-1
 1079 1079 l 1,2,-1
 1118 983 l 1,3,-1
 72 567 l 1,0,-1
166 289 m 0,4,5
 166 218 166 218 213.5 169.5 c 128,-1,6
 261 121 261 121 330 121 c 0,7,8
 398 121 398 121 447 170.5 c 128,-1,9
 496 220 496 220 496 289 c 0,10,11
 496 356 496 356 446.5 405.5 c 128,-1,12
 397 455 397 455 330 455 c 0,13,14
 261 455 261 455 213.5 406.5 c 128,-1,15
 166 358 166 358 166 289 c 0,4,5
45 289 m 0,16,17
 45 410 45 410 127.5 492.5 c 128,-1,18
 210 575 210 575 330 575 c 0,19,20
 450 575 450 575 533 492 c 128,-1,21
 616 409 616 409 616 289 c 0,22,23
 616 168 616 168 532.5 84 c 128,-1,24
 449 0 449 0 330 0 c 0,25,26
 209 0 209 0 127 83 c 128,-1,27
 45 166 45 166 45 289 c 0,16,17
121 1145 m 0,28,29
 121 1076 121 1076 169.5 1027.5 c 128,-1,30
 218 979 218 979 287 979 c 0,31,32
 356 979 356 979 404.5 1027.5 c 128,-1,33
 453 1076 453 1076 453 1145 c 0,34,35
 453 1212 453 1212 403.5 1261.5 c 128,-1,36
 354 1311 354 1311 287 1311 c 0,37,38
 218 1311 218 1311 169.5 1262.5 c 128,-1,39
 121 1214 121 1214 121 1145 c 0,28,29
0 1145 m 0,40,41
 0 1265 0 1265 83 1348.5 c 128,-1,42
 166 1432 166 1432 287 1432 c 0,43,44
 407 1432 407 1432 490 1348.5 c 128,-1,45
 573 1265 573 1265 573 1145 c 0,46,47
 573 1024 573 1024 490 940 c 128,-1,48
 407 856 407 856 287 856 c 0,49,50
 166 856 166 856 83 939.5 c 128,-1,51
 0 1023 0 1023 0 1145 c 0,40,41
780 289 m 0,52,53
 780 218 780 218 828.5 169.5 c 128,-1,54
 877 121 877 121 946 121 c 0,55,56
 1016 121 1016 121 1064 169.5 c 128,-1,57
 1112 218 1112 218 1112 289 c 0,58,59
 1112 356 1112 356 1063 405.5 c 128,-1,60
 1014 455 1014 455 946 455 c 0,61,62
 877 455 877 455 828.5 406.5 c 128,-1,63
 780 358 780 358 780 289 c 0,52,53
659 289 m 0,64,65
 659 409 659 409 742 492 c 128,-1,66
 825 575 825 575 946 575 c 0,67,68
 1066 575 1066 575 1149.5 492 c 128,-1,69
 1233 409 1233 409 1233 289 c 0,70,71
 1233 168 1233 168 1149.5 84 c 128,-1,72
 1066 0 1066 0 946 0 c 0,73,74
 825 0 825 0 742 83.5 c 128,-1,75
 659 167 659 167 659 289 c 0,64,65
EndSplineSet
EndChar
StartChar: guilsinglleft
Encoding: 8249 8249 8249
Width: 1233
Flags: W
Fore
815 1059 m 1,0,-1
 815 868 l 1,1,-1
 514 600 l 1,2,-1
 815 332 l 1,3,-1
 815 141 l 1,4,-1
 346 559 l 1,5,-1
 346 641 l 1,6,-1
 815 1059 l 1,0,-1
EndSplineSet
EndChar
StartChar: guilsinglright
Encoding: 8250 8250 8250
Width: 1233
Flags: W
Fore
420 1059 m 1,0,-1
 889 641 l 1,1,-1
 889 559 l 1,2,-1
 420 141 l 1,3,-1
 420 332 l 1,4,-1
 721 600 l 1,5,-1
 420 868 l 1,6,-1
 420 1059 l 1,0,-1
EndSplineSet
EndChar
StartChar: Euro
Encoding: 8364 8364 8364
Width: 1233
Flags: W
Fore
211 948 m 1,0,1
 259 1231 259 1231 396 1375.5 c 128,-1,2
 533 1520 533 1520 756 1520 c 0,3,4
 840 1520 840 1520 913.5 1500 c 128,-1,5
 987 1480 987 1480 1061 1438 c 1,6,-1
 1061 1231 l 1,7,8
 995 1292 995 1292 915.5 1326 c 128,-1,9
 836 1360 836 1360 758 1360 c 0,10,11
 612 1360 612 1360 525 1256 c 128,-1,12
 438 1152 438 1152 414 948 c 1,13,-1
 895 948 l 1,14,-1
 846 840 l 1,15,-1
 404 840 l 1,16,17
 402 820 402 820 401.5 797.5 c 128,-1,18
 401 775 401 775 401 729 c 0,19,20
 401 714 401 714 401.5 695 c 128,-1,21
 402 676 402 676 403 653 c 1,22,-1
 764 653 l 1,23,-1
 715 543 l 1,24,-1
 414 543 l 1,25,26
 437 340 437 340 524 235.5 c 128,-1,27
 611 131 611 131 758 131 c 0,28,29
 837 131 837 131 915.5 164.5 c 128,-1,30
 994 198 994 198 1061 260 c 1,31,-1
 1061 53 l 1,32,33
 989 11 989 11 915 -9 c 128,-1,34
 841 -29 841 -29 756 -29 c 0,35,36
 530 -29 530 -29 392.5 115 c 128,-1,37
 255 259 255 259 211 543 c 1,38,-1
 37 543 l 1,39,-1
 86 653 l 1,40,-1
 203 653 l 1,41,42
 202 665 202 665 201 685 c 0,43,44
 199 730 199 730 199 745 c 0,45,46
 199 763 199 763 201 810 c 0,47,48
 202 829 202 829 203 840 c 1,49,-1
 37 840 l 1,50,-1
 86 948 l 1,51,-1
 211 948 l 1,0,1
EndSplineSet
EndChar
StartChar: trademark
Encoding: 8482 8482 8482
Width: 1233
Flags: W
Fore
438 1493 m 1,0,-1
 438 1399 l 1,1,-1
 276 1399 l 1,2,-1
 276 915 l 1,3,-1
 162 915 l 1,4,-1
 162 1399 l 1,5,-1
 0 1399 l 1,6,-1
 0 1493 l 1,7,-1
 438 1493 l 1,0,-1
692 1493 m 1,8,-1
 829 1237 l 1,9,-1
 954 1493 l 1,10,-1
 1126 1493 l 1,11,-1
 1126 915 l 1,12,-1
 1012 915 l 1,13,-1
 1012 1397 l 1,14,-1
 856 1096 l 1,15,-1
 801 1096 l 1,16,-1
 635 1397 l 1,17,-1
 635 915 l 1,18,-1
 522 915 l 1,19,-1
 522 1493 l 1,20,-1
 692 1493 l 1,8,-1
EndSplineSet
Ligature: 0 0 'liga' T M
EndChar
StartChar: partialdiff
Encoding: 8706 8706 8706
Width: 1233
Flags: W
Fore
842 621 m 1,0,1
 857 708 857 708 864.5 789.5 c 128,-1,2
 872 871 872 871 872 946 c 0,3,4
 872 1075 872 1075 835.5 1140.5 c 128,-1,5
 799 1206 799 1206 727 1206 c 0,6,7
 672 1206 672 1206 600 1148 c 128,-1,8
 528 1090 528 1090 492 1090 c 0,9,10
 456 1090 456 1090 432 1112 c 128,-1,11
 408 1134 408 1134 408 1165 c 0,12,13
 408 1227 408 1227 480 1276 c 128,-1,14
 552 1325 552 1325 653 1325 c 0,15,16
 833 1325 833 1325 940 1170 c 128,-1,17
 1047 1015 1047 1015 1047 752 c 0,18,19
 1047 417 1047 417 902.5 196 c 128,-1,20
 758 -25 758 -25 545 -25 c 0,21,22
 393 -25 393 -25 291.5 83 c 128,-1,23
 190 191 190 191 190 354 c 0,24,25
 190 552 190 552 300.5 680.5 c 128,-1,26
 411 809 411 809 573 809 c 0,27,28
 674 809 674 809 739 763.5 c 128,-1,29
 804 718 804 718 842 621 c 1,0,1
793 494 m 0,30,31
 793 610 793 610 749.5 672.5 c 128,-1,32
 706 735 706 735 627 735 c 0,33,34
 518 735 518 735 447.5 606 c 128,-1,35
 377 477 377 477 377 270 c 0,36,37
 377 154 377 154 420 92.5 c 128,-1,38
 463 31 463 31 543 31 c 0,39,40
 652 31 652 31 722.5 161 c 128,-1,41
 793 291 793 291 793 494 c 0,30,31
EndSplineSet
EndChar
StartChar: Delta
Encoding: 8710 8710 8710
Width: 1233
Flags: W
Fore
-6 0 m 1,0,-1
 512 1423 l 1,1,-1
 721 1423 l 1,2,-1
 1241 0 l 1,3,-1
 -6 0 l 1,0,-1
616 1219 m 1,4,-1
 248 172 l 1,5,-1
 985 172 l 1,6,-1
 616 1219 l 1,4,-1
EndSplineSet
EndChar
StartChar: product
Encoding: 8719 8719 8719
Width: 1233
Flags: W
Fore
152 -436 m 1,0,-1
 152 1518 l 1,1,-1
 1081 1518 l 1,2,-1
 1081 -436 l 1,3,-1
 926 -436 l 1,4,-1
 926 1386 l 1,5,-1
 307 1386 l 1,6,-1
 307 -436 l 1,7,-1
 152 -436 l 1,0,-1
EndSplineSet
EndChar
StartChar: summation
Encoding: 8721 8721 8721
Width: 1233
Flags: W
Fore
332 -299 m 1,0,-1
 1085 -299 l 1,1,-1
 1085 -436 l 1,2,-1
 143 -436 l 1,3,-1
 143 -344 l 1,4,-1
 692 575 l 1,5,-1
 143 1423 l 1,6,-1
 143 1518 l 1,7,-1
 1065 1518 l 1,8,-1
 1065 1378 l 1,9,-1
 332 1378 l 1,10,-1
 854 575 l 1,11,-1
 332 -299 l 1,0,-1
EndSplineSet
EndChar
StartChar: minus
Encoding: 8722 8722 8722
Width: 1233
Flags: W
Fore
88 727 m 1,0,-1
 1145 727 l 1,1,-1
 1145 557 l 1,2,-1
 88 557 l 1,3,-1
 88 727 l 1,0,-1
EndSplineSet
EndChar
StartChar: fraction
Encoding: 8725 8725 8725
Width: 1233
Flags: W
Fore
889 1493 m 1,0,-1
 1079 1493 l 1,1,-1
 293 -190 l 1,2,-1
 102 -190 l 1,3,-1
 889 1493 l 1,0,-1
EndSplineSet
EndChar
StartChar: periodcentered
Encoding: 8729 8729 8729
Width: 1233
Flags: W
Fore
489 864 m 1,0,-1
 741 864 l 1,1,-1
 741 559 l 1,2,-1
 489 559 l 1,3,-1
 489 864 l 1,0,-1
EndSplineSet
EndChar
StartChar: radical
Encoding: 8730 8730 8730
Width: 1233
Flags: W
Fore
100 733 m 1,0,-1
 59 858 l 1,1,-1
 350 956 l 1,2,-1
 569 225 l 1,3,-1
 1036 1696 l 1,4,-1
 1184 1696 l 1,5,-1
 1184 1565 l 1,6,-1
 1137 1565 l 1,7,-1
 631 -39 l 1,8,-1
 504 -39 l 1,9,-1
 258 786 l 1,10,-1
 100 733 l 1,0,-1
EndSplineSet
EndChar
StartChar: infinity
Encoding: 8734 8734 8734
Width: 1233
Flags: W
Fore
694 627 m 1,0,1
 751 491 751 491 796.5 441 c 128,-1,2
 842 391 842 391 903 391 c 0,3,4
 974 391 974 391 1019.5 458 c 128,-1,5
 1065 525 1065 525 1065 633 c 0,6,7
 1065 740 1065 740 1023 804 c 128,-1,8
 981 868 981 868 911 868 c 0,9,10
 845 868 845 868 792.5 809.5 c 128,-1,11
 740 751 740 751 694 627 c 1,0,1
537 635 m 1,12,13
 481 769 481 769 435 818.5 c 128,-1,14
 389 868 389 868 328 868 c 0,15,16
 257 868 257 868 211.5 801.5 c 128,-1,17
 166 735 166 735 166 629 c 0,18,19
 166 520 166 520 207.5 455.5 c 128,-1,20
 249 391 249 391 317 391 c 0,21,22
 384 391 384 391 437 450 c 128,-1,23
 490 509 490 509 537 635 c 1,12,13
616 764 m 1,24,25
 663 881 663 881 736.5 944.5 c 128,-1,26
 810 1008 810 1008 901 1008 c 0,27,28
 1020 1008 1020 1008 1106 898.5 c 128,-1,29
 1192 789 1192 789 1192 629 c 0,30,31
 1192 462 1192 462 1110.5 356 c 128,-1,32
 1029 250 1029 250 903 250 c 0,33,34
 820 250 820 250 756 300 c 128,-1,35
 692 350 692 350 614 481 c 1,36,37
 549 357 549 357 483 303.5 c 128,-1,38
 417 250 417 250 332 250 c 0,39,40
 207 250 207 250 124 357 c 128,-1,41
 41 464 41 464 41 629 c 0,42,43
 41 802 41 802 119.5 905 c 128,-1,44
 198 1008 198 1008 330 1008 c 0,45,46
 424 1008 424 1008 492 950.5 c 128,-1,47
 560 893 560 893 616 764 c 1,24,25
EndSplineSet
EndChar
StartChar: integral
Encoding: 8747 8747 8747
Width: 1233
Flags: W
Fore
393 -262 m 0,0,1
 499 -262 499 -262 513 426 c 0,2,3
 515 534 515 534 516 591 c 0,4,5
 528 1106 528 1106 623 1328 c 128,-1,6
 718 1550 718 1550 920 1550 c 0,7,8
 1000 1550 1000 1550 1050 1508 c 128,-1,9
 1100 1466 1100 1466 1100 1401 c 0,10,11
 1100 1347 1100 1347 1068 1315.5 c 128,-1,12
 1036 1284 1036 1284 981 1284 c 0,13,14
 939 1284 939 1284 910.5 1303 c 128,-1,15
 882 1322 882 1322 871 1357 c 0,16,17
 865 1372 865 1372 860.5 1408 c 128,-1,18
 856 1444 856 1444 840 1444 c 0,19,20
 733 1444 733 1444 719 825 c 0,21,22
 715 632 715 632 711 522 c 0,23,24
 694 43 694 43 599.5 -164 c 128,-1,25
 505 -371 505 -371 309 -371 c 0,26,27
 230 -371 230 -371 179.5 -329.5 c 128,-1,28
 129 -288 129 -288 129 -223 c 0,29,30
 129 -167 129 -167 163 -135.5 c 128,-1,31
 197 -104 197 -104 258 -104 c 0,32,33
 291 -104 291 -104 315 -118.5 c 128,-1,34
 339 -133 339 -133 354 -161 c 0,35,36
 363 -178 363 -178 368.5 -220 c 128,-1,37
 374 -262 374 -262 393 -262 c 0,0,1
EndSplineSet
EndChar
StartChar: approxequal
Encoding: 8776 8776 8776
Width: 1233
Flags: W
Fore
1145 963 m 1,0,-1
 1145 788 l 1,1,2
 1070 729 1070 729 998.5 701.5 c 128,-1,3
 927 674 927 674 848 674 c 0,4,5
 758 674 758 674 645 725 c 0,6,7
 623 735 623 735 612 739 c 0,8,9
 535 773 535 773 483.5 785 c 128,-1,10
 432 797 432 797 381 797 c 0,11,12
 302 797 302 797 231.5 767.5 c 128,-1,13
 161 738 161 738 88 674 c 1,14,-1
 88 848 l 1,15,16
 166 908 166 908 239 935.5 c 128,-1,17
 312 963 312 963 395 963 c 0,18,19
 448 963 448 963 498 952 c 128,-1,20
 548 941 548 941 623 909 c 0,21,22
 633 905 633 905 655 894 c 0,23,24
 771 840 771 840 864 840 c 0,25,26
 934 840 934 840 1002.5 870 c 128,-1,27
 1071 900 1071 900 1145 963 c 1,0,-1
1145 596 m 1,28,-1
 1145 420 l 1,29,30
 1070 361 1070 361 998.5 333 c 128,-1,31
 927 305 927 305 848 305 c 0,32,33
 758 305 758 305 645 356 c 0,34,35
 623 366 623 366 612 371 c 0,36,37
 529 407 529 407 479.5 418.5 c 128,-1,38
 430 430 430 430 381 430 c 0,39,40
 303 430 303 430 232.5 400 c 128,-1,41
 162 370 162 370 88 305 c 1,42,-1
 88 479 l 1,43,44
 167 541 167 541 240 568.5 c 128,-1,45
 313 596 313 596 395 596 c 0,46,47
 491 596 491 596 621 541 c 2,48,-1
 622 541 l 2,49,50
 633 536 633 536 655 526 c 0,51,52
 771 471 771 471 864 471 c 0,53,54
 932 471 932 471 1001 501.5 c 128,-1,55
 1070 532 1070 532 1145 596 c 1,28,-1
EndSplineSet
EndChar
StartChar: notequal
Encoding: 8800 8800 8800
Width: 1233
Flags: W
Fore
88 930 m 1,0,-1
 735 930 l 1,1,-1
 981 1245 l 1,2,-1
 1106 1143 l 1,3,-1
 942 930 l 1,4,-1
 1145 930 l 1,5,-1
 1145 760 l 1,6,-1
 811 760 l 1,7,-1
 627 524 l 1,8,-1
 1145 524 l 1,9,-1
 1145 352 l 1,10,-1
 498 352 l 1,11,-1
 250 37 l 1,12,-1
 125 141 l 1,13,-1
 289 352 l 1,14,-1
 88 352 l 1,15,-1
 88 524 l 1,16,-1
 418 524 l 1,17,-1
 602 760 l 1,18,-1
 88 760 l 1,19,-1
 88 930 l 1,0,-1
EndSplineSet
Ligature: 0 0 'liga' equal uni0338
EndChar
StartChar: lessequal
Encoding: 8804 8804 8804
Width: 1233
Flags: W
Fore
1143 438 m 1,0,-1
 1143 256 l 1,1,-1
 86 588 l 1,2,-1
 86 756 l 1,3,-1
 1143 1087 l 1,4,-1
 1143 903 l 1,5,-1
 342 672 l 1,6,-1
 1143 438 l 1,0,-1
1143 170 m 1,7,-1
 1143 0 l 1,8,-1
 86 0 l 1,9,-1
 86 170 l 1,10,-1
 1143 170 l 1,7,-1
EndSplineSet
EndChar
StartChar: greaterequal
Encoding: 8805 8805 8805
Width: 1233
Flags: W
Fore
88 438 m 1,0,-1
 891 672 l 1,1,-1
 88 903 l 1,2,-1
 88 1087 l 1,3,-1
 1145 756 l 1,4,-1
 1145 588 l 1,5,-1
 88 256 l 1,6,-1
 88 438 l 1,0,-1
88 170 m 1,7,-1
 1145 170 l 1,8,-1
 1145 0 l 1,9,-1
 88 0 l 1,10,-1
 88 170 l 1,7,-1
EndSplineSet
EndChar
StartChar: uni2423
Encoding: 9251 9251 9251
Width: 1233
Flags: MW
Fore
150 -466 m 1,0,-1
 1082 -466 l 1,1,-1
 1082 181 l 1,2,-1
 914 181 l 1,3,-1
 914 -294 l 1,4,-1
 318 -294 l 1,5,-1
 318 181 l 1,6,-1
 150 181 l 1,7,-1
 150 -466 l 1,0,-1
EndSplineSet
EndChar
StartChar: SF100000
Encoding: 9472 9472 9472
Width: 1233
Flags: HW
TeX: 0 0 0 0
Fore
-20 80 m 1,0,-1
 -20 252 l 1,1,-1
 1253 252 l 1,2,-1
 1253 80 l 1,3,-1
 -20 80 l 1,0,-1
EndSplineSet
EndChar
StartChar: uni2501
Encoding: 9473 9473 9473
Width: 1233
Flags: HW
TeX: 0 0 0 0
Fore
-20 -6 m 1,0,-1
 -20 338 l 1,1,-1
 1253 338 l 1,2,-1
 1253 -6 l 1,3,-1
 -20 -6 l 1,0,-1
EndSplineSet
EndChar
StartChar: SF110000
Encoding: 9474 9474 9474
Width: 1233
Flags: HW
TeX: 0 0 0 0
Fore
536 -1034 m 1,0,-1
 536 1576 l 1,1,-1
 696 1576 l 1,2,-1
 696 -1034 l 1,3,-1
 536 -1034 l 1,0,-1
EndSplineSet
EndChar
StartChar: uni2503
Encoding: 9475 9475 9475
Width: 1233
Flags: HW
TeX: 0 0 0 0
Fore
456 -1034 m 1,0,-1
 456 1576 l 1,1,-1
 776 1576 l 1,2,-1
 776 -1034 l 1,3,-1
 456 -1034 l 1,0,-1
EndSplineSet
EndChar
StartChar: uni2504
Encoding: 9476 9476 9476
Width: 1233
Flags: HW
TeX: 0 0 0 0
Fore
945 80 m 9,0,-1
 945 252 l 17,1,-1
 1253 252 l 1,2,-1
 1253 80 l 1,3,-1
 945 80 l 9,0,-1
468 80 m 1,4,-1
 468 252 l 1,5,-1
 765 252 l 9,6,-1
 765 80 l 17,7,-1
 468 80 l 1,4,-1
-20 80 m 1,8,-1
 -20 252 l 1,9,-1
 288 252 l 9,10,-1
 288 80 l 17,11,-1
 -20 80 l 1,8,-1
EndSplineSet
EndChar
StartChar: uni2505
Encoding: 9477 9477 9477
Width: 1233
Flags: HW
TeX: 0 0 0 0
Fore
945 -6 m 9,0,-1
 945 338 l 17,1,-1
 1253 338 l 1,2,-1
 1253 -6 l 1,3,-1
 945 -6 l 9,0,-1
468 -6 m 1,4,-1
 468 338 l 1,5,-1
 765 338 l 9,6,-1
 765 -6 l 17,7,-1
 468 -6 l 1,4,-1
-20 -6 m 1,8,-1
 -20 338 l 1,9,-1
 288 338 l 9,10,-1
 288 -6 l 17,11,-1
 -20 -6 l 1,8,-1
EndSplineSet
EndChar
StartChar: uni2506
Encoding: 9478 9478 9478
Width: 1233
Flags: HW
TeX: 0 0 0 0
Fore
536 -1034 m 1,0,-1
 536 -254 l 9,1,-1
 696 -254 l 17,2,-1
 696 -1034 l 1,3,-1
 536 -1034 l 1,0,-1
536 -74 m 17,4,-1
 536 616 l 9,5,-1
 696 616 l 17,6,-1
 696 -74 l 9,7,-1
 536 -74 l 17,4,-1
536 796 m 17,8,-1
 536 1576 l 1,9,-1
 696 1576 l 1,10,-1
 696 796 l 9,11,-1
 536 796 l 17,8,-1
EndSplineSet
EndChar
StartChar: uni2507
Encoding: 9479 9479 9479
Width: 1233
Flags: HW
TeX: 0 0 0 0
Fore
456 -1034 m 1,0,-1
 456 -254 l 9,1,-1
 776 -254 l 17,2,-1
 776 -1034 l 1,3,-1
 456 -1034 l 1,0,-1
456 -74 m 17,4,-1
 456 616 l 9,5,-1
 776 616 l 17,6,-1
 776 -74 l 9,7,-1
 456 -74 l 17,4,-1
456 796 m 17,8,-1
 456 1576 l 1,9,-1
 776 1576 l 1,10,-1
 776 796 l 9,11,-1
 456 796 l 17,8,-1
EndSplineSet
EndChar
StartChar: uni2508
Encoding: 9480 9480 9480
Width: 1233
Flags: HW
TeX: 0 0 0 0
Fore
-21 80 m 1,0,-1
 -21 252 l 1,1,-1
 167 252 l 1,2,-1
 167 80 l 1,3,-1
 -21 80 l 1,0,-1
347 80 m 1,4,-1
 347 252 l 1,5,-1
 526 252 l 1,6,-1
 526 80 l 1,7,-1
 347 80 l 1,4,-1
706 80 m 1,8,-1
 706 252 l 1,9,-1
 884 252 l 1,10,-1
 884 80 l 1,11,-1
 706 80 l 1,8,-1
1064 80 m 1,12,-1
 1064 252 l 1,13,-1
 1253 252 l 1,14,-1
 1253 80 l 1,15,-1
 1064 80 l 1,12,-1
EndSplineSet
EndChar
StartChar: uni2509
Encoding: 9481 9481 9481
Width: 1233
Flags: HW
TeX: 0 0 0 0
Fore
-20 -6 m 1,0,-1
 -20 338 l 1,1,-1
 168 338 l 1,2,-1
 168 -6 l 1,3,-1
 -20 -6 l 1,0,-1
348 -6 m 1,4,-1
 348 338 l 1,5,-1
 527 338 l 1,6,-1
 527 -6 l 1,7,-1
 348 -6 l 1,4,-1
707 -6 m 1,8,-1
 707 338 l 1,9,-1
 885 338 l 1,10,-1
 885 -6 l 1,11,-1
 707 -6 l 1,8,-1
1065 -6 m 1,12,-1
 1065 338 l 1,13,-1
 1254 338 l 1,14,-1
 1254 -6 l 1,15,-1
 1065 -6 l 1,12,-1
EndSplineSet
EndChar
StartChar: uni250A
Encoding: 9482 9482 9482
Width: 1233
Flags: HW
TeX: 0 0 0 0
Fore
536 1014 m 17,0,-1
 536 1576 l 1,1,-1
 696 1576 l 1,2,-1
 696 1014 l 9,3,-1
 536 1014 l 17,0,-1
536 -1034 m 1,4,-1
 536 -472 l 9,5,-1
 696 -472 l 17,6,-1
 696 -1034 l 1,7,-1
 536 -1034 l 1,4,-1
536 361 m 17,8,-1
 536 834 l 1,9,-1
 696 834 l 1,10,-1
 696 361 l 9,11,-1
 536 361 l 17,8,-1
536 -292 m 1,12,-1
 536 181 l 9,13,-1
 696 181 l 17,14,-1
 696 -292 l 1,15,-1
 536 -292 l 1,12,-1
EndSplineSet
EndChar
StartChar: uni250B
Encoding: 9483 9483 9483
Width: 1233
Flags: HW
TeX: 0 0 0 0
Fore
456 1014 m 17,0,-1
 456 1576 l 1,1,-1
 776 1576 l 1,2,-1
 776 1014 l 9,3,-1
 456 1014 l 17,0,-1
456 -1034 m 1,4,-1
 456 -472 l 9,5,-1
 776 -472 l 17,6,-1
 776 -1034 l 1,7,-1
 456 -1034 l 1,4,-1
456 361 m 17,8,-1
 456 834 l 1,9,-1
 776 834 l 1,10,-1
 776 361 l 9,11,-1
 456 361 l 17,8,-1
456 -292 m 1,12,-1
 456 181 l 9,13,-1
 776 181 l 17,14,-1
 776 -292 l 1,15,-1
 456 -292 l 1,12,-1
EndSplineSet
EndChar
StartChar: SF010000
Encoding: 9484 9484 9484
Width: 1233
Flags: HW
TeX: 0 0 0 0
Fore
536 -1034 m 1,0,-1
 536 252 l 1,1,-1
 1253 252 l 1,2,-1
 1253 80 l 1,3,-1
 696 80 l 1,4,-1
 696 -1034 l 1,5,-1
 536 -1034 l 1,0,-1
EndSplineSet
EndChar
StartChar: uni250D
Encoding: 9485 9485 9485
Width: 1233
Flags: HW
TeX: 0 0 0 0
Fore
536 -1034 m 1,0,-1
 536 338 l 1,1,-1
 1253 338 l 1,2,-1
 1253 -6 l 1,3,-1
 696 -6 l 1,4,-1
 696 -1034 l 1,5,-1
 536 -1034 l 1,0,-1
EndSplineSet
EndChar
StartChar: uni250E
Encoding: 9486 9486 9486
Width: 1233
Flags: HW
TeX: 0 0 0 0
Fore
456 -1034 m 1,0,-1
 456 252 l 1,1,-1
 1253 252 l 1,2,-1
 1253 80 l 1,3,-1
 776 80 l 1,4,-1
 776 -1034 l 1,5,-1
 456 -1034 l 1,0,-1
EndSplineSet
EndChar
StartChar: uni250F
Encoding: 9487 9487 9487
Width: 1233
Flags: HW
TeX: 0 0 0 0
Fore
456 -1034 m 1,0,-1
 456 338 l 1,1,-1
 1253 338 l 1,2,-1
 1253 -6 l 1,3,-1
 776 -6 l 1,4,-1
 776 -1034 l 1,5,-1
 456 -1034 l 1,0,-1
EndSplineSet
EndChar
StartChar: SF030000
Encoding: 9488 9488 9488
Width: 1233
Flags: HW
TeX: 0 0 0 0
Fore
536 -1034 m 1,0,-1
 536 80 l 1,1,-1
 -20 80 l 1,2,-1
 -20 252 l 1,3,-1
 696 252 l 1,4,-1
 696 -1034 l 1,5,-1
 536 -1034 l 1,0,-1
EndSplineSet
EndChar
StartChar: uni2511
Encoding: 9489 9489 9489
Width: 1233
Flags: HW
TeX: 0 0 0 0
Fore
536 -1034 m 1,0,-1
 536 -6 l 1,1,-1
 -20 -6 l 1,2,-1
 -20 338 l 1,3,-1
 696 338 l 1,4,-1
 696 -1034 l 1,5,-1
 536 -1034 l 1,0,-1
EndSplineSet
EndChar
StartChar: uni2512
Encoding: 9490 9490 9490
Width: 1233
Flags: HW
TeX: 0 0 0 0
Fore
456 -1034 m 1,0,-1
 456 80 l 1,1,-1
 -20 80 l 1,2,-1
 -20 252 l 1,3,-1
 776 252 l 1,4,-1
 776 -1034 l 1,5,-1
 456 -1034 l 1,0,-1
EndSplineSet
EndChar
StartChar: uni2513
Encoding: 9491 9491 9491
Width: 1233
Flags: HW
TeX: 0 0 0 0
Fore
456 -1034 m 1,0,-1
 456 -6 l 1,1,-1
 -20 -6 l 1,2,-1
 -20 338 l 1,3,-1
 776 338 l 1,4,-1
 776 -1034 l 1,5,-1
 456 -1034 l 1,0,-1
EndSplineSet
EndChar
StartChar: SF020000
Encoding: 9492 9492 9492
Width: 1233
Flags: HW
TeX: 0 0 0 0
Fore
536 80 m 1,0,-1
 536 1576 l 1,1,-1
 696 1576 l 1,2,-1
 696 252 l 1,3,-1
 1253 252 l 1,4,-1
 1253 80 l 1,5,-1
 536 80 l 1,0,-1
EndSplineSet
EndChar
StartChar: uni2515
Encoding: 9493 9493 9493
Width: 1233
Flags: HW
TeX: 0 0 0 0
Fore
536 -6 m 1,0,-1
 536 1576 l 1,1,-1
 696 1576 l 1,2,-1
 696 338 l 1,3,-1
 1253 338 l 1,4,-1
 1253 -6 l 1,5,-1
 536 -6 l 1,0,-1
EndSplineSet
EndChar
StartChar: uni2516
Encoding: 9494 9494 9494
Width: 1233
Flags: HW
TeX: 0 0 0 0
Fore
456 80 m 1,0,-1
 456 1576 l 1,1,-1
 776 1576 l 1,2,-1
 776 252 l 1,3,-1
 1253 252 l 1,4,-1
 1253 80 l 1,5,-1
 456 80 l 1,0,-1
EndSplineSet
EndChar
StartChar: uni2517
Encoding: 9495 9495 9495
Width: 1233
Flags: HW
TeX: 0 0 0 0
Fore
456 -6 m 1,0,-1
 456 1576 l 1,1,-1
 776 1576 l 1,2,-1
 776 338 l 1,3,-1
 1253 338 l 1,4,-1
 1253 -6 l 1,5,-1
 456 -6 l 1,0,-1
EndSplineSet
EndChar
StartChar: SF040000
Encoding: 9496 9496 9496
Width: 1233
Flags: HW
TeX: 0 0 0 0
Fore
-20 80 m 1,0,-1
 -20 252 l 1,1,-1
 536 252 l 1,2,-1
 536 1576 l 1,3,-1
 696 1576 l 1,4,-1
 696 80 l 1,5,-1
 -20 80 l 1,0,-1
EndSplineSet
EndChar
StartChar: uni2519
Encoding: 9497 9497 9497
Width: 1233
Flags: HW
TeX: 0 0 0 0
Fore
-20 -6 m 1,0,-1
 -20 338 l 1,1,-1
 536 338 l 1,2,-1
 536 1576 l 1,3,-1
 696 1576 l 1,4,-1
 696 -6 l 1,5,-1
 -20 -6 l 1,0,-1
EndSplineSet
EndChar
StartChar: uni251A
Encoding: 9498 9498 9498
Width: 1233
Flags: HW
TeX: 0 0 0 0
Fore
-20 80 m 1,0,-1
 -20 252 l 1,1,-1
 456 252 l 1,2,-1
 456 1576 l 1,3,-1
 776 1576 l 1,4,-1
 776 80 l 1,5,-1
 -20 80 l 1,0,-1
EndSplineSet
EndChar
StartChar: uni251B
Encoding: 9499 9499 9499
Width: 1233
Flags: HW
TeX: 0 0 0 0
Fore
-20 -6 m 1,0,-1
 -20 338 l 1,1,-1
 456 338 l 1,2,-1
 456 1576 l 1,3,-1
 776 1576 l 1,4,-1
 776 -6 l 1,5,-1
 -20 -6 l 1,0,-1
EndSplineSet
EndChar
StartChar: SF080000
Encoding: 9500 9500 9500
Width: 1233
Flags: HW
TeX: 0 0 0 0
Fore
536 -1034 m 1,0,-1
 536 1576 l 1,1,-1
 696 1576 l 1,2,-1
 696 252 l 1,3,-1
 1253 252 l 1,4,-1
 1253 80 l 1,5,-1
 696 80 l 1,6,-1
 696 -1034 l 1,7,-1
 536 -1034 l 1,0,-1
EndSplineSet
EndChar
StartChar: uni251D
Encoding: 9501 9501 9501
Width: 1233
Flags: HW
TeX: 0 0 0 0
Fore
536 -1034 m 1,0,-1
 536 1576 l 1,1,-1
 696 1576 l 1,2,-1
 696 338 l 1,3,-1
 1253 338 l 1,4,-1
 1253 -6 l 1,5,-1
 696 -6 l 1,6,-1
 696 -1034 l 1,7,-1
 536 -1034 l 1,0,-1
EndSplineSet
EndChar
StartChar: uni251E
Encoding: 9502 9502 9502
Width: 1233
Flags: HW
TeX: 0 0 0 0
Fore
536 -1034 m 1,0,-1
 536 80 l 1,1,-1
 456 80 l 1,2,-1
 456 1576 l 1,3,-1
 776 1576 l 1,4,-1
 776 252 l 1,5,-1
 1253 252 l 1,6,-1
 1253 80 l 1,7,-1
 696 80 l 1,8,-1
 696 -1034 l 1,9,-1
 536 -1034 l 1,0,-1
EndSplineSet
EndChar
StartChar: uni251F
Encoding: 9503 9503 9503
Width: 1233
Flags: HW
TeX: 0 0 0 0
Fore
456 -1034 m 1,0,-1
 456 252 l 1,1,-1
 536 252 l 1,2,-1
 536 1576 l 1,3,-1
 696 1576 l 1,4,-1
 696 252 l 1,5,-1
 1253 252 l 1,6,-1
 1253 80 l 1,7,-1
 776 80 l 1,8,-1
 776 -1034 l 1,9,-1
 456 -1034 l 1,0,-1
EndSplineSet
EndChar
StartChar: uni2520
Encoding: 9504 9504 9504
Width: 1233
Flags: HW
TeX: 0 0 0 0
Fore
456 -1034 m 1,0,-1
 456 1576 l 1,1,-1
 776 1576 l 1,2,-1
 776 252 l 1,3,-1
 1253 252 l 1,4,-1
 1253 80 l 1,5,-1
 776 80 l 1,6,-1
 776 -1034 l 1,7,-1
 456 -1034 l 1,0,-1
EndSplineSet
EndChar
StartChar: uni2521
Encoding: 9505 9505 9505
Width: 1233
Flags: HW
TeX: 0 0 0 0
Fore
536 -1034 m 1,0,-1
 536 -6 l 1,1,-1
 456 -6 l 1,2,-1
 456 1576 l 1,3,-1
 776 1576 l 1,4,-1
 776 338 l 1,5,-1
 1253 338 l 1,6,-1
 1253 -6 l 1,7,-1
 696 -6 l 1,8,-1
 696 -1034 l 1,9,-1
 536 -1034 l 1,0,-1
EndSplineSet
EndChar
StartChar: uni2522
Encoding: 9506 9506 9506
Width: 1233
Flags: HW
TeX: 0 0 0 0
Fore
456 -1034 m 1,0,-1
 456 338 l 1,1,-1
 536 338 l 1,2,-1
 536 1576 l 1,3,-1
 696 1576 l 1,4,-1
 696 338 l 1,5,-1
 1253 338 l 1,6,-1
 1253 -6 l 1,7,-1
 776 -6 l 1,8,-1
 776 -1034 l 1,9,-1
 456 -1034 l 1,0,-1
EndSplineSet
EndChar
StartChar: uni2523
Encoding: 9507 9507 9507
Width: 1233
Flags: HW
TeX: 0 0 0 0
Fore
456 -1034 m 1,0,-1
 456 1576 l 1,1,-1
 776 1576 l 1,2,-1
 776 338 l 1,3,-1
 1253 338 l 1,4,-1
 1253 -6 l 1,5,-1
 776 -6 l 1,6,-1
 776 -1034 l 1,7,-1
 456 -1034 l 1,0,-1
EndSplineSet
EndChar
StartChar: SF090000
Encoding: 9508 9508 9508
Width: 1233
Flags: HW
TeX: 0 0 0 0
Fore
536 -1034 m 1,0,-1
 536 80 l 1,1,-1
 -20 80 l 1,2,-1
 -20 252 l 1,3,-1
 536 252 l 1,4,-1
 536 1576 l 1,5,-1
 696 1576 l 1,6,-1
 696 -1034 l 1,7,-1
 536 -1034 l 1,0,-1
EndSplineSet
EndChar
StartChar: uni2525
Encoding: 9509 9509 9509
Width: 1233
Flags: HW
TeX: 0 0 0 0
Fore
536 -1034 m 1,0,-1
 536 -6 l 1,1,-1
 -20 -6 l 1,2,-1
 -20 338 l 1,3,-1
 536 338 l 1,4,-1
 536 1576 l 1,5,-1
 696 1576 l 1,6,-1
 696 -1034 l 1,7,-1
 536 -1034 l 1,0,-1
EndSplineSet
EndChar
StartChar: uni2526
Encoding: 9510 9510 9510
Width: 1233
Flags: HW
TeX: 0 0 0 0
Fore
536 -1034 m 1,0,-1
 536 80 l 1,1,-1
 -20 80 l 1,2,-1
 -20 252 l 1,3,-1
 456 252 l 1,4,-1
 456 1576 l 1,5,-1
 776 1576 l 1,6,-1
 776 80 l 1,7,-1
 696 80 l 1,8,-1
 696 -1034 l 1,9,-1
 536 -1034 l 1,0,-1
EndSplineSet
EndChar
StartChar: uni2527
Encoding: 9511 9511 9511
Width: 1233
Flags: HW
TeX: 0 0 0 0
Fore
456 -1034 m 1,0,-1
 456 80 l 1,1,-1
 -20 80 l 1,2,-1
 -20 252 l 1,3,-1
 536 252 l 1,4,-1
 536 1576 l 1,5,-1
 696 1576 l 1,6,-1
 696 252 l 1,7,-1
 776 252 l 1,8,-1
 776 -1034 l 1,9,-1
 456 -1034 l 1,0,-1
EndSplineSet
EndChar
StartChar: uni2528
Encoding: 9512 9512 9512
Width: 1233
Flags: HW
TeX: 0 0 0 0
Fore
456 -1034 m 1,0,-1
 456 80 l 1,1,-1
 -20 80 l 1,2,-1
 -20 252 l 1,3,-1
 456 252 l 1,4,-1
 456 1576 l 1,5,-1
 776 1576 l 1,6,-1
 776 -1034 l 1,7,-1
 456 -1034 l 1,0,-1
EndSplineSet
EndChar
StartChar: uni2529
Encoding: 9513 9513 9513
Width: 1233
Flags: HW
TeX: 0 0 0 0
Fore
536 -1034 m 1,0,-1
 536 -6 l 1,1,-1
 -20 -6 l 1,2,-1
 -20 338 l 1,3,-1
 456 338 l 1,4,-1
 456 1576 l 1,5,-1
 776 1576 l 1,6,-1
 776 -6 l 1,7,-1
 696 -6 l 1,8,-1
 696 -1034 l 1,9,-1
 536 -1034 l 1,0,-1
EndSplineSet
EndChar
StartChar: uni252A
Encoding: 9514 9514 9514
Width: 1233
Flags: HW
TeX: 0 0 0 0
Fore
456 -1034 m 1,0,-1
 456 -6 l 1,1,-1
 -20 -6 l 1,2,-1
 -20 338 l 1,3,-1
 536 338 l 1,4,-1
 536 1576 l 1,5,-1
 696 1576 l 1,6,-1
 696 338 l 1,7,-1
 776 338 l 1,8,-1
 776 -1034 l 1,9,-1
 456 -1034 l 1,0,-1
EndSplineSet
EndChar
StartChar: uni252B
Encoding: 9515 9515 9515
Width: 1233
Flags: HW
TeX: 0 0 0 0
Fore
456 -1034 m 1,0,-1
 456 -6 l 1,1,-1
 -20 -6 l 1,2,-1
 -20 338 l 1,3,-1
 456 338 l 1,4,-1
 456 1576 l 1,5,-1
 776 1576 l 1,6,-1
 776 -1034 l 1,7,-1
 456 -1034 l 1,0,-1
EndSplineSet
EndChar
StartChar: SF060000
Encoding: 9516 9516 9516
Width: 1233
Flags: HW
TeX: 0 0 0 0
Fore
536 -1034 m 1,0,-1
 536 80 l 1,1,-1
 -20 80 l 1,2,-1
 -20 252 l 1,3,-1
 1253 252 l 1,4,-1
 1253 80 l 1,5,-1
 696 80 l 1,6,-1
 696 -1034 l 1,7,-1
 536 -1034 l 1,0,-1
EndSplineSet
EndChar
StartChar: uni252D
Encoding: 9517 9517 9517
Width: 1233
Flags: HW
TeX: 0 0 0 0
Fore
536 -1034 m 1,0,-1
 536 -6 l 1,1,-1
 -20 -6 l 1,2,-1
 -20 338 l 1,3,-1
 696 338 l 1,4,-1
 696 252 l 1,5,-1
 1253 252 l 1,6,-1
 1253 80 l 1,7,-1
 696 80 l 1,8,-1
 696 -1034 l 1,9,-1
 536 -1034 l 1,0,-1
EndSplineSet
EndChar
StartChar: uni252E
Encoding: 9518 9518 9518
Width: 1233
Flags: HW
TeX: 0 0 0 0
Fore
536 -1034 m 1,0,-1
 536 80 l 1,1,-1
 -20 80 l 1,2,-1
 -20 252 l 1,3,-1
 536 252 l 1,4,-1
 536 338 l 1,5,-1
 1253 338 l 1,6,-1
 1253 -6 l 1,7,-1
 696 -6 l 1,8,-1
 696 -1034 l 1,9,-1
 536 -1034 l 1,0,-1
EndSplineSet
EndChar
StartChar: uni252F
Encoding: 9519 9519 9519
Width: 1233
Flags: HW
TeX: 0 0 0 0
Fore
536 -1034 m 1,0,-1
 536 -6 l 1,1,-1
 -20 -6 l 1,2,-1
 -20 338 l 1,3,-1
 1253 338 l 1,4,-1
 1253 -6 l 1,5,-1
 696 -6 l 1,6,-1
 696 -1034 l 1,7,-1
 536 -1034 l 1,0,-1
EndSplineSet
EndChar
StartChar: uni2530
Encoding: 9520 9520 9520
Width: 1233
Flags: HW
TeX: 0 0 0 0
Fore
456 -1034 m 1,0,-1
 456 80 l 1,1,-1
 -20 80 l 1,2,-1
 -20 252 l 1,3,-1
 1253 252 l 1,4,-1
 1253 80 l 1,5,-1
 776 80 l 1,6,-1
 776 -1034 l 1,7,-1
 456 -1034 l 1,0,-1
EndSplineSet
EndChar
StartChar: uni2531
Encoding: 9521 9521 9521
Width: 1233
Flags: HW
TeX: 0 0 0 0
Fore
456 -1034 m 1,0,-1
 456 -6 l 1,1,-1
 -20 -6 l 1,2,-1
 -20 338 l 1,3,-1
 776 338 l 1,4,-1
 776 252 l 1,5,-1
 1253 252 l 1,6,-1
 1253 80 l 1,7,-1
 776 80 l 1,8,-1
 776 -1034 l 1,9,-1
 456 -1034 l 1,0,-1
EndSplineSet
EndChar
StartChar: uni2532
Encoding: 9522 9522 9522
Width: 1233
Flags: HW
TeX: 0 0 0 0
Fore
456 -1034 m 1,0,-1
 456 80 l 1,1,-1
 -20 80 l 1,2,-1
 -20 252 l 1,3,-1
 456 252 l 1,4,-1
 456 338 l 1,5,-1
 1253 338 l 1,6,-1
 1253 -6 l 1,7,-1
 776 -6 l 1,8,-1
 776 -1034 l 1,9,-1
 456 -1034 l 1,0,-1
EndSplineSet
EndChar
StartChar: uni2533
Encoding: 9523 9523 9523
Width: 1233
Flags: HW
TeX: 0 0 0 0
Fore
456 -1034 m 1,0,-1
 456 -6 l 1,1,-1
 -20 -6 l 1,2,-1
 -20 338 l 1,3,-1
 1253 338 l 1,4,-1
 1253 -6 l 1,5,-1
 776 -6 l 1,6,-1
 776 -1034 l 1,7,-1
 456 -1034 l 1,0,-1
EndSplineSet
EndChar
StartChar: SF070000
Encoding: 9524 9524 9524
Width: 1233
Flags: HW
TeX: 0 0 0 0
Fore
-20 80 m 1,0,-1
 -20 252 l 1,1,-1
 536 252 l 1,2,-1
 536 1576 l 1,3,-1
 696 1576 l 1,4,-1
 696 252 l 1,5,-1
 1253 252 l 1,6,-1
 1253 80 l 1,7,-1
 -20 80 l 1,0,-1
EndSplineSet
EndChar
StartChar: uni2535
Encoding: 9525 9525 9525
Width: 1233
Flags: HW
TeX: 0 0 0 0
Fore
-20 -6 m 1,0,-1
 -20 338 l 1,1,-1
 536 338 l 1,2,-1
 536 1576 l 1,3,-1
 696 1576 l 1,4,-1
 696 252 l 1,5,-1
 1253 252 l 1,6,-1
 1253 80 l 1,7,-1
 696 80 l 1,8,-1
 696 -6 l 1,9,-1
 -20 -6 l 1,0,-1
EndSplineSet
EndChar
StartChar: uni2536
Encoding: 9526 9526 9526
Width: 1233
Flags: HW
TeX: 0 0 0 0
Fore
-20 80 m 1,0,-1
 -20 252 l 1,1,-1
 536 252 l 1,2,-1
 536 1576 l 1,3,-1
 696 1576 l 1,4,-1
 696 338 l 1,5,-1
 1253 338 l 1,6,-1
 1253 -6 l 1,7,-1
 536 -6 l 1,8,-1
 536 80 l 1,9,-1
 -20 80 l 1,0,-1
EndSplineSet
EndChar
StartChar: uni2537
Encoding: 9527 9527 9527
Width: 1233
Flags: HW
TeX: 0 0 0 0
Fore
-20 -6 m 1,0,-1
 -20 338 l 1,1,-1
 536 338 l 1,2,-1
 536 1576 l 1,3,-1
 696 1576 l 1,4,-1
 696 338 l 1,5,-1
 1253 338 l 1,6,-1
 1253 -6 l 1,7,-1
 -20 -6 l 1,0,-1
EndSplineSet
EndChar
StartChar: uni2538
Encoding: 9528 9528 9528
Width: 1233
Flags: HW
TeX: 0 0 0 0
Fore
-20 80 m 1,0,-1
 -20 252 l 1,1,-1
 456 252 l 1,2,-1
 456 1576 l 1,3,-1
 776 1576 l 1,4,-1
 776 252 l 1,5,-1
 1253 252 l 1,6,-1
 1253 80 l 1,7,-1
 -20 80 l 1,0,-1
EndSplineSet
EndChar
StartChar: uni2539
Encoding: 9529 9529 9529
Width: 1233
Flags: HW
TeX: 0 0 0 0
Fore
-20 -6 m 1,0,-1
 -20 338 l 1,1,-1
 456 338 l 1,2,-1
 456 1576 l 1,3,-1
 776 1576 l 1,4,-1
 776 252 l 1,5,-1
 1253 252 l 1,6,-1
 1253 80 l 1,7,-1
 776 80 l 1,8,-1
 776 -6 l 1,9,-1
 -20 -6 l 1,0,-1
EndSplineSet
EndChar
StartChar: uni253A
Encoding: 9530 9530 9530
Width: 1233
Flags: HW
TeX: 0 0 0 0
Fore
-20 80 m 1,0,-1
 -20 252 l 1,1,-1
 456 252 l 1,2,-1
 456 1576 l 1,3,-1
 776 1576 l 1,4,-1
 776 338 l 1,5,-1
 1253 338 l 1,6,-1
 1253 -6 l 1,7,-1
 456 -6 l 1,8,-1
 456 80 l 1,9,-1
 -20 80 l 1,0,-1
EndSplineSet
EndChar
StartChar: uni253B
Encoding: 9531 9531 9531
Width: 1233
Flags: HW
TeX: 0 0 0 0
Fore
-20 -6 m 1,0,-1
 -20 338 l 1,1,-1
 456 338 l 1,2,-1
 456 1576 l 1,3,-1
 776 1576 l 1,4,-1
 776 338 l 1,5,-1
 1253 338 l 1,6,-1
 1253 -6 l 1,7,-1
 -20 -6 l 1,0,-1
EndSplineSet
EndChar
StartChar: SF050000
Encoding: 9532 9532 9532
Width: 1233
Flags: HW
TeX: 0 0 0 0
Fore
696 80 m 1,0,-1
 696 -1034 l 1,1,-1
 536 -1034 l 1,2,-1
 536 80 l 1,3,-1
 -20 80 l 1,4,-1
 -20 252 l 1,5,-1
 536 252 l 1,6,-1
 536 1576 l 1,7,-1
 696 1576 l 1,8,-1
 696 252 l 1,9,-1
 1253 252 l 1,10,-1
 1253 80 l 1,11,-1
 696 80 l 1,0,-1
EndSplineSet
EndChar
StartChar: uni253D
Encoding: 9533 9533 9533
Width: 1233
Flags: HW
TeX: 0 0 0 0
Fore
536 -1034 m 1,0,-1
 536 -6 l 1,1,-1
 -20 -6 l 1,2,-1
 -20 338 l 1,3,-1
 536 338 l 1,4,-1
 536 1576 l 1,5,-1
 696 1576 l 1,6,-1
 696 252 l 1,7,-1
 1253 252 l 1,8,-1
 1253 80 l 1,9,-1
 696 80 l 1,10,-1
 696 -1034 l 1,11,-1
 536 -1034 l 1,0,-1
EndSplineSet
EndChar
StartChar: uni253E
Encoding: 9534 9534 9534
Width: 1233
Flags: HW
TeX: 0 0 0 0
Fore
536 -1034 m 1,0,-1
 536 80 l 1,1,-1
 -20 80 l 1,2,-1
 -20 252 l 1,3,-1
 536 252 l 1,4,-1
 536 1576 l 1,5,-1
 696 1576 l 1,6,-1
 696 338 l 1,7,-1
 1253 338 l 1,8,-1
 1253 -6 l 1,9,-1
 696 -6 l 1,10,-1
 696 -1034 l 1,11,-1
 536 -1034 l 1,0,-1
EndSplineSet
EndChar
StartChar: uni253F
Encoding: 9535 9535 9535
Width: 1233
Flags: HW
TeX: 0 0 0 0
Fore
536 -1034 m 1,0,-1
 536 -6 l 1,1,-1
 -20 -6 l 1,2,-1
 -20 338 l 1,3,-1
 536 338 l 1,4,-1
 536 1576 l 1,5,-1
 696 1576 l 1,6,-1
 696 338 l 1,7,-1
 1253 338 l 1,8,-1
 1253 -6 l 1,9,-1
 696 -6 l 1,10,-1
 696 -1034 l 1,11,-1
 536 -1034 l 1,0,-1
EndSplineSet
EndChar
StartChar: uni2540
Encoding: 9536 9536 9536
Width: 1233
Flags: HW
TeX: 0 0 0 0
Fore
536 -1034 m 1,0,-1
 536 80 l 1,1,-1
 -20 80 l 1,2,-1
 -20 252 l 1,3,-1
 456 252 l 1,4,-1
 456 1576 l 1,5,-1
 776 1576 l 1,6,-1
 776 252 l 1,7,-1
 1253 252 l 1,8,-1
 1253 80 l 1,9,-1
 696 80 l 1,10,-1
 696 -1034 l 1,11,-1
 536 -1034 l 1,0,-1
EndSplineSet
EndChar
StartChar: uni2541
Encoding: 9537 9537 9537
Width: 1233
Flags: HW
TeX: 0 0 0 0
Fore
456 -1034 m 1,0,-1
 456 80 l 1,1,-1
 -20 80 l 1,2,-1
 -20 252 l 1,3,-1
 536 252 l 1,4,-1
 536 1576 l 1,5,-1
 696 1576 l 1,6,-1
 696 252 l 1,7,-1
 1253 252 l 1,8,-1
 1253 80 l 1,9,-1
 776 80 l 1,10,-1
 776 -1034 l 1,11,-1
 456 -1034 l 1,0,-1
EndSplineSet
EndChar
StartChar: uni2542
Encoding: 9538 9538 9538
Width: 1233
Flags: HW
TeX: 0 0 0 0
Fore
456 -1034 m 1,0,-1
 456 80 l 1,1,-1
 -20 80 l 1,2,-1
 -20 252 l 1,3,-1
 456 252 l 1,4,-1
 456 1576 l 1,5,-1
 776 1576 l 1,6,-1
 776 252 l 1,7,-1
 1253 252 l 1,8,-1
 1253 80 l 1,9,-1
 776 80 l 1,10,-1
 776 -1034 l 1,11,-1
 456 -1034 l 1,0,-1
EndSplineSet
EndChar
StartChar: uni2543
Encoding: 9539 9539 9539
Width: 1233
Flags: HW
TeX: 0 0 0 0
Fore
536 -1034 m 1,0,-1
 536 -6 l 1,1,-1
 -20 -6 l 1,2,-1
 -20 338 l 1,3,-1
 456 338 l 1,4,-1
 456 1576 l 1,5,-1
 776 1576 l 1,6,-1
 776 252 l 1,7,-1
 1253 252 l 1,8,-1
 1253 80 l 1,9,-1
 776 80 l 1,10,-1
 776 -6 l 1,11,-1
 696 -6 l 1,12,-1
 696 -1034 l 1,13,-1
 536 -1034 l 1,0,-1
EndSplineSet
EndChar
StartChar: uni2544
Encoding: 9540 9540 9540
Width: 1233
Flags: HW
TeX: 0 0 0 0
Fore
536 -1034 m 1,0,-1
 536 -6 l 1,1,-1
 456 -6 l 1,2,-1
 456 80 l 1,3,-1
 -20 80 l 1,4,-1
 -20 252 l 1,5,-1
 456 252 l 1,6,-1
 456 1576 l 1,7,-1
 776 1576 l 1,8,-1
 776 338 l 1,9,-1
 1253 338 l 1,10,-1
 1253 -6 l 1,11,-1
 696 -6 l 1,12,-1
 696 -1034 l 1,13,-1
 536 -1034 l 1,0,-1
EndSplineSet
EndChar
StartChar: uni2545
Encoding: 9541 9541 9541
Width: 1233
Flags: HW
TeX: 0 0 0 0
Fore
456 -1034 m 1,0,-1
 456 -6 l 1,1,-1
 -20 -6 l 1,2,-1
 -20 338 l 1,3,-1
 536 338 l 1,4,-1
 536 1576 l 1,5,-1
 696 1576 l 1,6,-1
 696 338 l 1,7,-1
 776 338 l 1,8,-1
 776 252 l 1,9,-1
 1253 252 l 1,10,-1
 1253 80 l 1,11,-1
 776 80 l 1,12,-1
 776 -1034 l 1,13,-1
 456 -1034 l 1,0,-1
EndSplineSet
EndChar
